SplineFontDB: 3.0
FontName: ManifontGroteskBold
FullName: Manifont Grotesk Bold
FamilyName: Manifont Grotesk Bold
Weight: Bold
Copyright: Copyright (c) 2015 by interstices.io. All rights reserved.
Version: 001.001
ItalicAngle: 0
UnderlinePosition: -100
UnderlineWidth: 50
Ascent: 750
Descent: 250
InvalidEm: 0
sfntRevision: 0x00010000
LayerCount: 4
Layer: 0 0 "Arri+AOgA-re" 1
Layer: 1 0 "Avant" 0
Layer: 2 0 "Arri+AOgA-re 2" 1
Layer: 3 0 "Arri+AOgA-re 3" 1
XUID: [1021 809 1845788318 5505792]
FSType: 4
OS2Version: 2
OS2_WeightWidthSlopeOnly: 0
OS2_UseTypoMetrics: 1
CreationTime: 1251911142
ModificationTime: 1464870061
PfmFamily: 33
TTFWeight: 400
TTFWidth: 5
LineGap: 9
VLineGap: 0
Panose: 0 0 0 0 0 0 0 0 0 0
OS2TypoAscent: 750
OS2TypoAOffset: 0
OS2TypoDescent: -250
OS2TypoDOffset: 0
OS2TypoLinegap: 0
OS2WinAscent: 1035
OS2WinAOffset: 0
OS2WinDescent: 377
OS2WinDOffset: 0
HheadAscent: 750
HheadAOffset: 0
HheadDescent: -250
HheadDOffset: 0
OS2SubXSize: 700
OS2SubYSize: 650
OS2SubXOff: 0
OS2SubYOff: 140
OS2SupXSize: 700
OS2SupYSize: 650
OS2SupXOff: 0
OS2SupYOff: 477
OS2StrikeYSize: 50
OS2StrikeYPos: 250
OS2CapHeight: 720
OS2XHeight: 520
OS2Vendor: 'pyrs'
OS2CodePages: 00000007.00000000
OS2UnicodeRanges: 8000020f.0000000a.00000000.00000000
Lookup: 4 0 1 "'liga' Ligatures standard lookups0" { "'liga' Ligatures standard lookups0-1"  } ['liga' ('DFLT' <'dflt' > 'cyrl' <'dflt' > 'latn' <'dflt' > ) ]
Lookup: 258 0 0 "'kern' Horizontal Kerning in Latin lookup 0" { "'kern' Horizontal Kerning in Latin lookup 0 per glyph data 0"  "'kern' Horizontal Kerning in Latin lookup 0 per glyph data 1"  } ['kern' ('latn' <'dflt' > ) ]
MarkAttachClasses: 1
DEI: 91125

StartChar: arrowright
Encoding: 8594 8594 0
Width: 1066
Flags: W
HStem: 201.155 124.84<50 686.427>
LayerCount: 4
Fore
SplineSet
476.865234375 86.99609375 m 1
 686.426757812 201.155273438 l 1
 50 201.155273438 l 1
 50 325.995117188 l 1
 686.426757812 325.995117188 l 1
 476.865234375 440.155273438 l 1
 549.8984375 561.208984375 l 1
 966.10546875 310.390625 l 1
 966.10546875 216.760742188 l 1
 549.8984375 -34.05859375 l 1
 476.865234375 86.99609375 l 1
  Spiro
    476.865 86.9962 v
    686.427 201.154 v
    50.0004 201.154 v
    50.0004 325.996 v
    686.427 325.996 v
    476.865 440.155 v
    549.898 561.209 v
    966.104 310.391 v
    966.104 216.76 v
    549.898 -34.0589 v
    0 0 z
  EndSpiro
EndSplineSet
Validated: 1
EndChar

StartChar: arrowleft
Encoding: 8592 8592 1
Width: 1066
Flags: W
HStem: 201.155 124.84<379.679 1016.11>
LayerCount: 4
Fore
SplineSet
589.240234375 86.99609375 m 1
 516.20703125 -34.05859375 l 1
 100 216.760742188 l 1
 100 310.390625 l 1
 516.20703125 561.208984375 l 1
 589.240234375 440.155273438 l 1
 379.678710938 325.995117188 l 1
 1016.10546875 325.995117188 l 1
 1016.10546875 201.155273438 l 1
 379.678710938 201.155273438 l 1
 589.240234375 86.99609375 l 1
  Spiro
    516.207 -34.0589 v
    100 216.76 v
    100 310.391 v
    516.207 561.209 v
    589.24 440.155 v
    379.678 325.996 v
    1016.1 325.996 v
    1016.1 201.154 v
    379.678 201.154 v
    589.24 86.9962 v
    0 0 z
  EndSpiro
EndSplineSet
Validated: 1
EndChar

StartChar: arrowdown
Encoding: 8595 8595 2
Width: 615
Flags: W
VStem: 245.214 124.84<85.2197 712.959>
LayerCount: 4
Fore
SplineSet
484.212890625 294.78125 m 1
 605.267578125 221.748046875 l 1
 354.448242188 -194.458984375 l 1
 260.818359375 -194.458984375 l 1
 10 221.748046875 l 1
 131.053710938 294.78125 l 1
 245.213867188 85.2197265625 l 1
 245.213867188 712.958984375 l 1
 370.053710938 712.958984375 l 1
 370.053710938 85.2197265625 l 1
 484.212890625 294.78125 l 1
EndSplineSet
Validated: 1
EndChar

StartChar: afii10069
Encoding: 1076 1076 4
Width: 1000
Flags: HM
LayerCount: 4
Back
SplineSet
113 320 m 2xec
 113 520 l 1
 529 520 l 1
 529 125 l 1
 598 125 l 1
 598 -127 l 1
 453 -127 l 1
 453 0 l 1
 150 0 l 1xf2
 150 -127 l 1
 5 -127 l 1
 5 125 l 1
 24 125 l 2
 93 125 113 197 113 320 c 2xec
202 125 m 1
 379 125 l 1
 379 395 l 1
 253 395 l 1xec
 253 280 l 2
 253 215 246 148 202 125 c 1
EndSplineSet
Fore
SplineSet
5.03515625 125.00390625 m 5
 24.125 125.00390625 l 5
 94.4091796875 176.283203125 l 5
 112.98828125 319.8984375 l 5
 112.98828125 519.796875 l 5
 528.959960938 519.796875 l 5
 528.959960938 125.00390625 l 5
 597.900390625 125.00390625 l 5
 597.900390625 -127 l 5
 452.934570312 -127 l 5
 452.934570312 -0.04296875 l 5
 150 -0.04296875 l 5
 150 -127 l 5
 5.03515625 -127 l 5
 5.03515625 125.00390625 l 5
379.077148438 124.836914062 m 5
 379.077148438 394.758789062 l 5
 253.034179688 394.758789062 l 5
 253.034179688 279.80078125 l 5
 244.041992188 186.497070312 l 5
 202.100585938 124.836914062 l 5
 379.077148438 124.836914062 l 5
EndSplineSet
EndChar

StartChar: afii10070
Encoding: 1077 1077 5
Width: 557
Flags: HMW
LayerCount: 4
Back
SplineSet
532 217 m 1
 175 217 l 1
 179 145 226 110 293 110 c 0
 341 110 372 137 384 170 c 1
 524 141 l 1
 485 38 408 -15 283 -15 c 0
 149 -15 25 68 25 260 c 0
 25 452 150 535 283 535 c 0
 414 535 533 455 533 281 c 0
 533 250 532 219 532 217 c 1
279 410 m 0
 229 410 183 376 177 319 c 1
 381 319 l 1
 377 374 337 410 279 410 c 0
EndSplineSet
Fore
SplineSet
204.370117188 133.775390625 m 5
 288.520507812 106.66015625 l 5
 348.360351562 125.360351562 l 5
 381.084960938 168.370117188 l 5
 486.740234375 88.89453125 l 5
 434.379882812 19.705078125 l 5
 278.235351562 -20.5 l 5
 95.91015625 45.884765625 l 5
 15.5 260 l 5
 95.91015625 474.115234375 l 5
 278.235351562 540.5 l 5
 455.884765625 477.85546875 l 5
 533.490234375 281.504882812 l 5
 532.5546875 216.990234375 l 5
 167.905273438 216.990234375 l 5
 204.370117188 133.775390625 l 5
170.709960938 318.905273438 m 5
 378.280273438 318.905273438 l 5
 347.424804688 388.094726562 l 5
 274.495117188 413.33984375 l 5
 205.3046875 388.094726562 l 5
 170.709960938 318.905273438 l 5
EndSplineSet
Colour: ffff00
EndChar

StartChar: afii10072
Encoding: 1078 1078 6
Width: 1000
Flags: HM
LayerCount: 4
Back
SplineSet
471 200 m 1
 471 0 l 1
 321 0 l 1
 321 200 l 1
 309 200 l 2
 279 200 268 185 249 149 c 1
 185 0 l 1
 20 0 l 1
 106 173 l 1
 137 224 164 257 199 265 c 1
 199 269 l 1
 160 279 143 308 127 342 c 0
 111 376 108 387 73 387 c 2
 54 387 l 1
 44 520 l 1
 73 520 l 2
 144 520 178 512 215 453 c 0
 225 437 242 387 256 359 c 0
 272 328 289 325 309 325 c 2
 321 325 l 1
 321 520 l 1
 471 520 l 1
 471 325 l 1
 483 325 l 2
 503 325 520 328 536 359 c 0
 550 387 567 437 577 453 c 0
 614 512 648 520 719 520 c 2
 748 520 l 1
 738 387 l 1
 719 387 l 2
 684 387 681 376 665 342 c 0
 649 308 632 279 593 269 c 1
 593 265 l 1
 628 257 655 224 686 173 c 1
 772 0 l 1
 607 0 l 1
 543 149 l 1
 524 185 513 200 483 200 c 2
 471 200 l 1
EndSplineSet
Fore
SplineSet
482.96875 199.731445312 m 1
 470.881835938 199.731445312 l 1
 470.881835938 0 l 1
 321 0 l 1
 321 199.731445312 l 1
 308.913085938 199.731445312 l 1
 274.838867188 187.741210938 l 1
 248.892578125 148.801757812 l 1
 184.87109375 0 l 1
 19.8994140625 0 l 1
 105.844726562 172.890625 l 1
 150.818359375 235.009765625 l 1
 198.79296875 264.926757812 l 1
 198.79296875 268.9296875 l 1
 154.163085938 296.370117188 l 1
 106.94921875 377.091796875 l 1
 72.9169921875 386.805664062 l 1
 53.8271484375 386.805664062 l 1
 43.8232421875 519.848632812 l 1
 72.916015625 519.848632812 l 1
 156.673828125 508.458984375 l 1
 214.796875 452.743164062 l 1
 255.810546875 358.797851562 l 1
 280.788085938 330.198242188 l 1
 308.828125 324.778320312 l 2
 320.915039062 324.778320312 l 1
 320.915039062 519.83984375 l 1
 470.881835938 519.83984375 l 1
 470.881835938 324.778320312 l 1
 483.052734375 324.778320312 l 2
 510.936523438 330.198242188 l 1
 536.0703125 358.797851562 l 1
 577.000976562 452.743164062 l 1
 635.217773438 508.458984375 l 1
 718.881835938 519.848632812 l 1
 747.974609375 519.848632812 l 1
 738.053710938 386.805664062 l 1
 718.963867188 386.805664062 l 1
 684.911132812 377.091796875 l 1
 637.770507812 296.370117188 l 1
 593.171875 268.9296875 l 1
 593.171875 264.926757812 l 1
 641.146484375 235.04296875 l 1
 686.119140625 172.890625 l 1
 772.065429688 0 l 1
 607.092773438 0 l 1
 543.072265625 148.801757812 l 1
 517.146484375 187.833007812 l 1
 482.96875 199.731445312 l 1
EndSplineSet
EndChar

StartChar: afii10073
Encoding: 1079 1079 7
Width: 1000
Flags: HM
LayerCount: 4
Back
SplineSet
212 215 m 1xe4
 212 323 l 1
 227 323 240 323 243 323 c 0
 284 323 294 342 294 367 c 0xf0
 294 391 277 413 238 413 c 0
 200 413 177 394 169 361 c 1
 39 384 l 1
 58 484 135 535 244 535 c 0
 359 535 444 482 444 382 c 0
 444 310 392 281 356 275 c 1
 409 269 464 224 464 155 c 0xe8
 464 33 357 -15 245 -15 c 0
 127 -15 44 37 25 146 c 1
 163 164 l 1
 171 121 207 107 244 107 c 0
 291 107 321 127 321 164 c 0
 321 203 292 215 254 215 c 2
 212 215 l 1xe4
EndSplineSet
Fore
SplineSet
211.979492188 322.809570312 m 4
 212.3125 322.809570312 l 6
 212.3125 322.8515625 l 5
 227.776367188 322.892578125 l 5
 243.239257812 322.892578125 l 5
 284.086914062 335.541992188 l 5
 294.172851562 366.826171875 l 5
 280.793945312 398.76171875 l 5
 238.154296875 412.752929688 l 5
 192.461914062 399.169921875 l 5
 169.21484375 360.823242188 l 5
 39.171875 383.744140625 l 5
 107.90234375 496.750976562 l 5
 244.15625 534.797851562 l 5
 387.21484375 495.75 l 5
 444.056640625 381.743164062 l 5
 413.536132812 303.540039062 l 5
 355.944335938 274.790039062 l 5
 429.84375 238.51953125 l 5
 463.979492188 154.920898438 l 5
 396.499023438 24.1376953125 l 5
 244.990234375 -15.05078125 l 5
 97.888671875 24.5546875 l 5
 25 146 l 5
 162.962890625 163.91796875 l 5
 192.53515625 119.284179688 l 5
 243.990234375 106.90234375 l 5
 300.029296875 121.53515625 l 5
 320.932617188 163.91796875 l 5
 301.67578125 204.049804688 l 5
 253.91015625 214.85546875 l 5
 211.979492188 214.85546875 l 5
 211.979492188 322.809570312 l 4
EndSplineSet
EndChar

StartChar: afii10074
Encoding: 1080 1080 8
Width: 1000
Flags: HMW
LayerCount: 4
Back
SplineSet
55 0 m 5
 55 520 l 5
 205 520 l 5
 205 216 l 5
 378 520 l 5
 535 520 l 5
 535 0 l 5
 385 0 l 5
 385 301 l 5
 212 0 l 5
 55 0 l 5
EndSplineSet
Fore
SplineSet
55 0 m 1
 55 520 l 1
 205 520 l 1
 205 216 l 1
 378 520 l 1
 535 520 l 1
 535 0 l 1
 385 0 l 1
 385 301 l 1
 212 0 l 1
 55 0 l 1
EndSplineSet
Refer: 195 96 N 1 0 0 1 141.284 59.028 2
EndChar

StartChar: afii10075
Encoding: 1081 1081 9
Width: 1531
Flags: HMW
LayerCount: 4
Back
SplineSet
887 720 m 5xdc
 992 720 l 5
 992 625 923 573 823 573 c 4
 723 573 654 626 654 720 c 5
 759 720 l 5
 764 680 795 664 823 664 c 4
 851 664 882 680 887 720 c 5xdc
583 0 m 5
 583 520 l 5
 733 520 l 5
 733 216 l 5
 906 520 l 5
 1063 520 l 5xdc
 1063 0 l 5xec
 913 0 l 5
 913 301 l 5
 740 0 l 5
 583 0 l 5
EndSplineSet
Fore
SplineSet
587.056640625 519.83984375 m 1
 737.190429688 519.83984375 l 1
 737.190429688 215.907226562 l 1
 909.998046875 519.83984375 l 1
 1067.05078125 519.83984375 l 1
 1067.05078125 0 l 1
 917 0 l 1
 917 300.856445312 l 1
 744.192382812 0 l 1
 587.056640625 0 l 1
 587.056640625 519.83984375 l 1
996.026367188 719.73828125 m 5
 949.0625 610.609375 l 5
 827.13671875 572.6953125 l 5
 705.2421875 610.984375 l 5
 658.247070312 719.73828125 l 5
 763.282226562 719.73828125 l 5
 786.67578125 676.73046875 l 5
 827.38671875 663.72265625 l 5
 867.995117188 676.697265625 l 5
 891.408203125 719.73828125 l 5
 996.026367188 719.73828125 l 5
EndSplineSet
EndChar

StartChar: afii10076
Encoding: 1082 1082 10
Width: 1000
Flags: HM
LayerCount: 4
Back
SplineSet
55 0 m 1xd0
 55 520 l 1
 205 520 l 1
 205 325 l 1
 222 325 l 2
 252 325 272 328 298 359 c 0
 318 383 336 437 345 453 c 0
 377 512 417 525 488 525 c 2
 519 525 l 1
 504 392 l 1
 488 392 l 2
 453 392 445 376 429 342 c 0
 413 308 392 283 347 274 c 1
 347 270 l 1
 392 259 431 222 455 173 c 2xd0
 541 0 l 1
 376 0 l 1
 307 149 l 1
 288 185 262 200 222 200 c 2
 205 200 l 1
 205 0 l 1xb0
 55 0 l 1xd0
EndSplineSet
Fore
SplineSet
221.97265625 199.731445312 m 5
 205.05078125 199.731445312 l 5
 205.05078125 0 l 5
 55 0 l 5
 55.1669921875 519.922851562 l 5
 130.200195312 519.83203125 l 5
 205.224609375 519.83203125 l 5
 205.224609375 324.76953125 l 5
 222.146484375 324.76953125 l 5
 261.69140625 330.189453125 l 5
 298.171875 358.7890625 l 5
 325.733398438 408.826171875 l 5
 345.104492188 452.734375 l 5
 401.92578125 510.951171875 l 5
 488.068359375 524.842773438 l 5
 519.079101562 524.842773438 l 5
 503.987304688 391.6328125 l 5
 488.061523438 391.6328125 l 5
 451.434570312 379.467773438 l 5
 429.125 341.612304688 l 5
 399.000976562 298.337890625 l 5
 347.180664062 273.756835938 l 5
 347.180664062 269.754882812 l 5
 409.00390625 235.610351562 l 5
 455.133789062 172.890625 l 5
 541.079101562 0 l 5
 376.107421875 0 l 5
 307.083984375 148.96875 l 5
 272.4375 187.857421875 l 5
 221.97265625 199.731445312 l 5
EndSplineSet
EndChar

StartChar: afii10077
Encoding: 1083 1083 11
Width: 1000
Flags: HM
LayerCount: 4
Back
SplineSet
114 257 m 2xac
 114 520 l 1
 540 520 l 1
 540 0 l 1x6c
 390 0 l 1
 390 395 l 1xb4
 254 395 l 1
 254 207 l 2
 254 97 224 -15 101 -15 c 0
 72 -15 29 -5 20 0 c 1x74
 20 119 l 1
 31 113 45 108 59 108 c 0
 118 107 114 184 114 257 c 2xac
EndSplineSet
Fore
SplineSet
327.094726562 519.83984375 m 5
 540 519.83984375 l 5
 540 0 l 5
 390.032226562 0 l 5
 390.032226562 394.801757812 l 5
 253.987304688 394.801757812 l 5
 253.987304688 206.901367188 l 5
 223.674804688 54.748046875 l 5
 101.01953125 -15.0009765625 l 5
 53.044921875 -9.4140625 l 5
 20.0751953125 -0.0087890625 l 5
 20.0751953125 119.034179688 l 5
 38.45703125 111.280273438 l 5
 59.0888671875 107.9453125 l 5
 108.657226562 154.705078125 l 5
 114.026367188 256.9140625 l 5
 114.193359375 519.831054688 l 5
 114.193359375 519.831054688 l 5
 327.094726562 519.83984375 l 5
EndSplineSet
EndChar

StartChar: afii10078
Encoding: 1084 1084 12
Width: 1000
Flags: HMW
LayerCount: 4
Back
SplineSet
55 0 m 5
 55 520 l 5
 256 520 l 5
 368 174 l 5
 494 520 l 5
 682 520 l 5
 682 0 l 5
 532 0 l 5
 532 295 l 5
 426 0 l 5
 307 0 l 5
 205 295 l 5
 205 0 l 5
 55 0 l 5
EndSplineSet
Fore
SplineSet
55 0 m 5
 55 520 l 5
 256 520 l 5
 368 174 l 5
 494 520 l 5
 682 520 l 5
 682 0 l 5
 532 0 l 5
 532 295 l 5
 426 0 l 5
 307 0 l 5
 205 295 l 5
 205 0 l 5
 55 0 l 5
EndSplineSet
Colour: ffff00
EndChar

StartChar: afii10079
Encoding: 1085 1085 13
Width: 1000
Flags: HMW
LayerCount: 4
Back
SplineSet
55 0 m 5
 55 520 l 5
 205 520 l 5
 205 325 l 5
 375 325 l 5
 375 520 l 5
 525 520 l 5
 525 0 l 5
 375 0 l 5
 375 200 l 5
 205 200 l 5
 205 0 l 5
 55 0 l 5
EndSplineSet
Fore
SplineSet
55 0 m 5
 55 520 l 5
 205 520 l 5
 205 325 l 5
 375 325 l 5
 375 520 l 5
 525 520 l 5
 525 0 l 5
 375 0 l 5
 375 200 l 5
 205 200 l 5
 205 0 l 5
 55 0 l 5
EndSplineSet
Colour: ffff00
EndChar

StartChar: afii10080
Encoding: 1086 1086 14
Width: 566
Flags: HMW
LayerCount: 4
Back
SplineSet
25 260 m 0
 25 452 144 535 283 535 c 0
 422 535 541 452 541 260 c 0
 541 68 422 -15 283 -15 c 0
 144 -15 25 68 25 260 c 0
175 260 m 0
 175 163 214 110 283 110 c 0
 352 110 391 163 391 260 c 0
 391 357 352 410 283 410 c 0
 214 410 175 357 175 260 c 0
EndSplineSet
Fore
SplineSet
283.669921875 540.5 m 5
 467.864257812 474.115234375 l 5
 546.404296875 260 l 5
 467.864257812 45.884765625 l 5
 283.669921875 -20.5 l 5
 98.5400390625 45.884765625 l 5
 20 260 l 5
 98.5400390625 474.115234375 l 5
 283.669921875 540.5 l 5
283.669921875 106.66015625 m 5
 365.014648438 145.9296875 l 5
 393.064453125 260 l 5
 365.014648438 373.134765625 l 5
 283.669921875 413.33984375 l 5
 201.389648438 373.134765625 l 5
 173.33984375 260 l 5
 201.389648438 145.9296875 l 5
 283.669921875 106.66015625 l 5
EndSplineSet
Colour: ffff00
EndChar

StartChar: afii10081
Encoding: 1087 1087 15
Width: 1000
Flags: HMW
LayerCount: 4
Back
SplineSet
55 0 m 5
 55 520 l 5
 525 520 l 5
 525 0 l 5
 375 0 l 5
 375 395 l 5
 205 395 l 5
 205 0 l 5
 55 0 l 5
EndSplineSet
Fore
SplineSet
55 0 m 5
 55 520 l 5
 525 520 l 5
 525 0 l 5
 375 0 l 5
 375 395 l 5
 205 395 l 5
 205 0 l 5
 55 0 l 5
EndSplineSet
Colour: ffff00
EndChar

StartChar: afii10082
Encoding: 1088 1088 16
Width: 582
Flags: HMW
LayerCount: 4
Back
SplineSet
205 -200 m 1xdc
 55 -200 l 1
 55 520 l 1
 195 520 l 1
 195 459 l 1
 225 509 272 535 331 535 c 0
 455 535 555 442 555 260 c 0
 555 78 450 -15 326 -15 c 0
 284 -15 235 -2 205 45 c 1
 205 -200 l 1xdc
194 260 m 0
 194 158 235 110 299 110 c 0
 363 110 405 158 405 260 c 0xec
 405 362 359 410 300 410 c 0
 241 410 194 362 194 260 c 0
EndSplineSet
Fore
SplineSet
55 519.754882812 m 5xcc
 195.25 519.754882812 l 5
 195.25 458.98046875 l 5
 253.219726562 522.559570312 l 5
 333.629882812 542.1953125 l 5
 495.384765625 472.0703125 l 5
 562.705078125 261.6953125 l 5
 492.580078125 51.3203125 l 5
 328.955078125 -18.8046875 l 5
 262.5703125 -6.650390625 l 5
 205.53515625 44.775390625 l 5
 205.53515625 -200.1953125 l 5
 55 -200.1953125 l 5
 55 519.754882812 l 5xcc
300.905273438 108.35546875 m 5
 379.4453125 145.754882812 l 5
 409.365234375 261.6953125 l 5
 378.509765625 377.634765625 l 5
 301.83984375 415.03515625 l 5
 225.169921875 377.634765625 l 5
 193.379882812 261.6953125 l 5
 223.299804688 145.754882812 l 5
 300.905273438 108.35546875 l 5
EndSplineSet
Colour: ffff00
EndChar

StartChar: afii10083
Encoding: 1089 1089 17
Width: 519
Flags: HMW
LayerCount: 4
Back
SplineSet
175 260 m 0
 175 163 208 110 273 110 c 0
 321 110 354 135 365 196 c 1
 513 175 l 1
 485 36 385 -15 273 -15 c 0
 139 -15 25 68 25 260 c 0
 25 452 139 535 273 535 c 0
 385 535 485 483 513 344 c 1
 366 322 l 1
 355 384 321 410 273 410 c 0
 211 410 175 357 175 260 c 0
EndSplineSet
Fore
SplineSet
273.384765625 106.66015625 m 5
 334.16015625 127.23046875 l 5
 366.884765625 194.549804688 l 5
 494.044921875 132.83984375 l 5
 427.66015625 23.4453125 l 5
 273.384765625 -20.5 l 5
 95.7353515625 45.884765625 l 5
 20 260 l 5
 94.7998046875 474.115234375 l 5
 273.384765625 540.5 l 5
 427.66015625 496.5546875 l 5
 494.98046875 384.35546875 l 5
 367.8203125 323.580078125 l 5
 335.095703125 391.834960938 l 5
 273.384765625 413.33984375 l 5
 199.520507812 373.134765625 l 5
 173.33984375 260 l 5
 198.584960938 145.9296875 l 5
 273.384765625 106.66015625 l 5
EndSplineSet
Colour: ffff00
EndChar

StartChar: afii10084
Encoding: 1090 1090 18
Width: 1000
Flags: HMW
LayerCount: 4
Back
SplineSet
20 395 m 5
 20 520 l 5
 484 520 l 5
 484 395 l 5
 327 395 l 5
 327 -1 l 5
 177 -1 l 5
 177 395 l 5
 20 395 l 5
EndSplineSet
Fore
SplineSet
20 395 m 5
 20 520 l 5
 484 520 l 5
 484 395 l 5
 327 395 l 5
 327 -1 l 5
 177 -1 l 5
 177 395 l 5
 20 395 l 5
EndSplineSet
Colour: ffff00
EndChar

StartChar: afii10085
Encoding: 1091 1091 19
Width: 536
Flags: HMW
LayerCount: 4
Back
SplineSet
71 -195 m 1
 61 -62 l 1
 78 -69 87 -76 122 -76 c 0
 161 -76 187 -62 207 -9 c 1
 212 5 l 1
 10 520 l 1
 163 520 l 1
 283 177 l 1
 402 520 l 1
 550 520 l 1
 347 -29 l 2
 303 -149 243 -210 148 -210 c 0
 111 -210 90 -202 71 -195 c 1
EndSplineSet
Fore
SplineSet
105.369140625 -81.294921875 m 5
 156.794921875 -67.26953125 l 5
 200.739257812 1.919921875 l 5
 10 488.120117188 l 5
 144.639648438 535.8046875 l 5
 269.9296875 177.700195312 l 5
 394.284179688 535.8046875 l 5
 526.119140625 489.990234375 l 5
 333.509765625 -32.6748046875 l 5
 253.099609375 -171.0546875 l 5
 132.484375 -217.8046875 l 5
 14.6748046875 -188.8203125 l 5
 43.6591796875 -66.3349609375 l 5
 105.369140625 -81.294921875 l 5
EndSplineSet
Colour: ffff00
EndChar

StartChar: afii10086
Encoding: 1092 1092 20
Width: 1000
Flags: HM
LayerCount: 4
Back
SplineSet
484 260 m 0
 484 143 523 110 569 110 c 0
 615 110 665 143 665 260 c 0
 665 372 616 410 570 410 c 0
 534 410 484 382 484 260 c 0
355 260 m 0
 355 382 305 410 269 410 c 0
 223 410 174 372 174 260 c 0
 174 143 224 110 270 110 c 0
 316 110 355 143 355 260 c 0
495 -200 m 1
 345 -200 l 1
 345 45 l 1
 326 13 296 -15 234 -15 c 0
 110 -15 25 103 25 260 c 0
 25 417 100 535 229 535 c 0
 298 535 331 501 345 479 c 1
 345 695 l 1
 495 735 l 1
 495 479 l 1
 509 501 542 535 611 535 c 0
 740 535 815 417 815 260 c 0
 815 103 730 -15 606 -15 c 0
 544 -15 514 13 495 45 c 1
 495 -200 l 1
EndSplineSet
Fore
SplineSet
345.032226562 -200 m 5
 345.032226562 44.916015625 l 5
 305.592773438 2.8330078125 l 5
 234.079101562 -15.185546875 l 5
 83.0595703125 63.451171875 l 5
 25.0087890625 259.822265625 l 5
 78.599609375 456.185546875 l 5
 228.911132812 534.830078125 l 5
 307.572265625 515.077148438 l 5
 345.032226562 478.806640625 l 5
 345.032226562 694.713867188 l 5
 495 734.728515625 l 5
 495 478.806640625 l 5
 532.325195312 515.077148438 l 5
 611.0390625 534.830078125 l 5
 761.349609375 456.185546875 l 5
 814.940429688 259.822265625 l 5
 756.900390625 63.451171875 l 5
 605.953125 -15.185546875 l 5
 534.346679688 2.8330078125 l 5
 495 44.916015625 l 5
 495 -200 l 5
 345.032226562 -200 l 5
269.090820312 409.783203125 m 5
 204.24609375 376.814453125 l 5
 173.975585938 259.822265625 l 5
 204.756835938 141.012695312 l 5
 269.924804688 109.852539062 l 5
 329.631835938 140.979492188 l 5
 354.952148438 259.822265625 l 5
 325.495117188 380.533203125 l 5
 269.090820312 409.783203125 l 5
568.94140625 109.852539062 m 5
 634.170898438 140.979492188 l 5
 664.889648438 259.822265625 l 5
 634.619140625 376.96484375 l 5
 569.775390625 409.950195312 l 5
 513.297851562 380.68359375 l 5
 483.829101562 259.822265625 l 5
 509.22265625 140.979492188 l 5
 568.94140625 109.852539062 l 5
EndSplineSet
EndChar

StartChar: afii10087
Encoding: 1093 1093 21
Width: 485
Flags: HMW
LayerCount: 4
Back
SplineSet
187 0 m 1
 15 0 l 1
 195 266 l 1
 27 520 l 1
 208 520 l 1
 292 372 l 1
 377 520 l 1
 546 520 l 1
 385 269 l 1
 560 0 l 1
 382 0 l 1
 284 160 l 1
 187 0 l 1
EndSplineSet
Fore
SplineSet
138.0546875 -8.1201171875 m 5
 15 64.912109375 l 5
 151.061523438 266.002929688 l 5
 27.005859375 453.086914062 l 5
 159.565429688 528.120117188 l 5
 248.104492188 372.049804688 l 5
 337.645507812 528.120117188 l 5
 462.201171875 458.08984375 l 5
 341.146484375 269.00390625 l 5
 470.205078125 69.9150390625 l 5
 343.147460938 -8.1201171875 l 5
 240.1015625 159.955078125 l 5
 138.0546875 -8.1201171875 l 5
EndSplineSet
Colour: ffff00
EndChar

StartChar: afii10088
Encoding: 1094 1094 22
Width: 1000
Flags: HMW
LayerCount: 4
Back
SplineSet
55 0 m 5xf4
 55 520 l 5
 205 520 l 5
 205 125 l 5
 375 125 l 5
 375 520 l 5
 525 520 l 5xf8
 525 125 l 5
 594 125 l 5
 594 -127 l 5
 449 -127 l 5
 449 0 l 5
 55 0 l 5xf4
EndSplineSet
Fore
SplineSet
55 0 m 5xf4
 55 520 l 5
 205 520 l 5
 205 125 l 5
 375 125 l 5
 375 520 l 5
 525 520 l 5xf8
 525 125 l 5
 594 125 l 5
 594 -127 l 5
 449 -127 l 5
 449 0 l 5
 55 0 l 5xf4
EndSplineSet
EndChar

StartChar: afii10089
Encoding: 1095 1095 23
Width: 1000
Flags: HM
LayerCount: 4
Back
SplineSet
35 353 m 2
 35 520 l 1
 185 520 l 1
 185 400 l 2
 185 312 198 272 261 272 c 0
 294 272 330 284 350 304 c 1
 350 520 l 1
 500 520 l 1
 500 0 l 1
 350 0 l 1
 350 189 l 1
 316 168 272 154 227 154 c 0
 92 154 35 233 35 353 c 2
EndSplineSet
Fore
SplineSet
35.0947265625 519.590820312 m 5
 185.060546875 519.590820312 l 5
 185.060546875 399.638671875 l 5
 199.430664062 302.673828125 l 5
 261.002929688 271.672851562 l 5
 310.373046875 280.219726562 l 5
 349.866210938 303.766601562 l 5
 349.866210938 519.673828125 l 5
 500 519.673828125 l 5
 500 0 l 5
 349.866210938 0 l 5
 349.866210938 188.900390625 l 5
 292.544921875 163.51953125 l 5
 226.908203125 153.888671875 l 5
 80.3076171875 208.428710938 l 5
 34.927734375 352.870117188 l 5
 35.0947265625 519.590820312 l 5
EndSplineSet
EndChar

StartChar: afii10090
Encoding: 1096 1096 24
Width: 1000
Flags: HMW
CounterMasks: 1 38
LayerCount: 4
Back
SplineSet
55 0 m 5
 55 520 l 5
 205 520 l 5
 205 125 l 5
 328 125 l 5
 328 520 l 5
 478 520 l 5
 478 125 l 5
 601 125 l 5
 601 520 l 5
 751 520 l 5
 751 0 l 5
 55 0 l 5
EndSplineSet
Fore
SplineSet
55 0 m 5
 55 520 l 5
 205 520 l 5
 205 125 l 5
 328 125 l 5
 328 520 l 5
 478 520 l 5
 478 125 l 5
 601 125 l 5
 601 520 l 5
 751 520 l 5
 751 0 l 5
 55 0 l 5
EndSplineSet
Colour: ffff00
EndChar

StartChar: afii10091
Encoding: 1097 1097 25
Width: 1000
Flags: HMW
LayerCount: 4
Back
SplineSet
751 520 m 5xfa
 751 125 l 5
 820 125 l 5
 820 -127 l 5
 675 -127 l 5
 675 0 l 5
 55 0 l 5
 55 520 l 5
 205 520 l 5
 205 125 l 5
 328 125 l 5
 328 520 l 5
 478 520 l 5xfc
 478 125 l 5
 601 125 l 5
 601 520 l 5
 751 520 l 5xfa
EndSplineSet
Fore
SplineSet
751 520 m 5xfa
 751 125 l 5
 820 125 l 5
 820 -127 l 5
 675 -127 l 5
 675 0 l 5
 55 0 l 5
 55 520 l 5
 205 520 l 5
 205 125 l 5
 328 125 l 5
 328 520 l 5
 478 520 l 5xfc
 478 125 l 5
 601 125 l 5
 601 520 l 5
 751 520 l 5xfa
EndSplineSet
Colour: ffff00
EndChar

StartChar: afii10092
Encoding: 1098 1098 26
Width: 1000
Flags: HM
LayerCount: 4
Back
SplineSet
10 397 m 1
 10 520 l 1
 270 520 l 1
 270 355 l 1
 332 355 l 2
 443 355 554 319 554 182 c 0
 554 57 448 0 362 0 c 2
 120 0 l 1
 120 397 l 1
 10 397 l 1
270 243 m 1
 270 122 l 1
 293 122 l 2
 366 122 402 135 402 182 c 0
 402 229 367 243 302 243 c 2
 270 243 l 1
EndSplineSet
Fore
SplineSet
10.046875 519.923828125 m 1
 269.966796875 519.923828125 l 1
 269.966796875 354.954101562 l 1
 331.904296875 354.954101562 l 1
 484.538085938 319.817382812 l 1
 553.895507812 181.896484375 l 1
 490.166015625 44.1171875 l 1
 361.9140625 0 l 1
 120 0 l 1
 120 396.961914062 l 1
 10.046875 396.961914062 l 1
 10.046875 519.923828125 l 1
269.966796875 121.953125 m 1
 292.974609375 121.953125 l 1
 374.803710938 134.34375 l 1
 401.927734375 182.063476562 l 1
 376.314453125 230.149414062 l 1
 302.061523438 242.915039062 l 1
 269.966796875 242.915039062 l 1
 269.966796875 121.953125 l 1
EndSplineSet
EndChar

StartChar: afii10093
Encoding: 1099 1099 27
Width: 1000
Flags: HM
LayerCount: 4
Back
SplineSet
545 0 m 1
 545 520 l 1
 695 520 l 1
 695 0 l 1
 545 0 l 1
55 0 m 1
 55 520 l 1
 205 520 l 1
 205 355 l 1
 267 355 l 2
 378 355 489 319 489 182 c 0
 489 57 383 0 297 0 c 2
 55 0 l 1
205 243 m 1
 205 122 l 1
 228 122 l 2
 301 122 337 135 337 182 c 0
 337 229 302 243 237 243 c 2
 205 243 l 1
EndSplineSet
Fore
SplineSet
55.119140625 519.83984375 m 5
 205.0859375 519.83984375 l 5
 205.0859375 354.870117188 l 5
 267.0234375 354.870117188 l 5
 419.625976562 319.733398438 l 5
 489.014648438 181.8125 l 5
 425.274414062 44.033203125 l 5
 296.950195312 -0.083984375 l 5
 55.119140625 -0.083984375 l 5
 55.119140625 519.83984375 l 5
205.0859375 121.869140625 m 5
 228.009765625 121.869140625 l 5
 309.880859375 134.259765625 l 5
 337.046875 181.979492188 l 5
 311.413085938 230.065429688 l 5
 237.013671875 242.831054688 l 5
 205.0859375 242.831054688 l 5
 205.0859375 121.869140625 l 5
545.033203125 519.83984375 m 5
 695 519.83984375 l 5
 695 0 l 5
 545.033203125 0 l 5
 545.033203125 519.83984375 l 5
EndSplineSet
EndChar

StartChar: afii10094
Encoding: 1100 1100 28
Width: 1000
Flags: HM
LayerCount: 4
Back
SplineSet
55 0 m 1
 55 520 l 1
 205 520 l 1
 205 355 l 1
 267 355 l 2
 378 355 489 319 489 182 c 0
 489 57 383 0 297 0 c 2
 55 0 l 1
205 243 m 1
 205 122 l 1
 228 122 l 2
 301 122 337 135 337 182 c 0
 337 229 302 243 237 243 c 2
 205 243 l 1
EndSplineSet
Fore
SplineSet
55 519.923828125 m 5
 204.966796875 519.923828125 l 5
 204.966796875 354.954101562 l 5
 266.904296875 354.954101562 l 5
 419.506835938 319.817382812 l 5
 488.895507812 181.896484375 l 5
 425.155273438 44.1171875 l 5
 296.830078125 0 l 5
 55 0 l 5
 55 519.923828125 l 5
204.966796875 121.953125 m 5
 227.890625 121.953125 l 5
 309.76171875 134.34375 l 5
 336.927734375 182.063476562 l 5
 311.293945312 230.149414062 l 5
 236.89453125 242.915039062 l 5
 204.966796875 242.915039062 l 5
 204.966796875 121.953125 l 5
EndSplineSet
EndChar

StartChar: afii10095
Encoding: 1101 1101 29
Width: 1000
Flags: HM
LayerCount: 4
Back
SplineSet
220 210 m 1
 220 315 l 1
 368 315 l 1
 363 377 321 410 275 410 c 0
 227 410 186 386 177 322 c 1
 30 344 l 1
 59 483 164 535 276 535 c 0
 415 535 523 447 523 260 c 0
 523 68 409 -15 270 -15 c 0
 158 -15 53 33 25 175 c 1
 173 196 l 1
 184 135 222 110 270 110 c 0
 320 110 365 134 369 210 c 1
 220 210 l 1
EndSplineSet
Fore
SplineSet
220.333007812 315.201171875 m 5
 368.1328125 315.201171875 l 5
 337.048828125 385.8671875 l 5
 275.268554688 410.147460938 l 5
 211.643554688 390.186523438 l 5
 177.151367188 322.206054688 l 5
 30.1865234375 344.209960938 l 5
 122.008789062 491.694335938 l 5
 276.1015625 535.01953125 l 5
 451.712890625 467.689453125 l 5
 523.1015625 260.178710938 l 5
 448.743164062 50.6826171875 l 5
 270.100585938 -14.8291015625 l 5
 116.163085938 26.8447265625 l 5
 25.1845703125 174.987304688 l 5
 172.984375 195.991210938 l 5
 207.610351562 130.287109375 l 5
 269.93359375 110.216796875 l 5
 336.767578125 131.663085938 l 5
 368.965820312 210 l 5
 220 210 l 5
 220.333007812 315.201171875 l 5
EndSplineSet
EndChar

StartChar: afii10096
Encoding: 1102 1102 30
Width: 1000
Flags: HM
LayerCount: 4
Back
SplineSet
55 0 m 1x6c
 55 520 l 1
 205 520 l 1x5c
 205 325 l 1
 265 325 l 1
 289 471 395 535 508 535 c 0
 637 535 756 452 756 260 c 0
 756 68 637 -15 508 -15 c 0xac
 394 -15 286 50 264 200 c 1
 205 200 l 1
 205 0 l 1
 55 0 l 1x6c
410 260 m 0
 410 163 446 110 508 110 c 0
 570 110 606 163 606 260 c 0
 606 357 570 410 508 410 c 0xac
 446 410 410 357 410 260 c 0
EndSplineSet
Fore
SplineSet
55 519.840820312 m 5
 204.966796875 519.840820312 l 5
 204.966796875 324.936523438 l 5
 265.0703125 324.936523438 l 5
 353.172851562 484.595703125 l 5
 507.985351562 534.840820312 l 5
 680.344726562 469.411132812 l 5
 755.984375 260 l 5
 680.344726562 50.50390625 l 5
 507.985351562 -15.0078125 l 5
 351.537109375 36.2041015625 l 5
 263.986328125 199.8984375 l 5
 204.966796875 199.8984375 l 5
 204.966796875 0 l 5
 55 0 l 5
 55 519.840820312 l 5
507.901367188 110.038085938 m 5
 580.17578125 148.635742188 l 5
 605.934570312 260 l 5
 580.17578125 371.305664062 l 5
 507.901367188 409.96875 l 5
 435.658203125 371.305664062 l 5
 409.869140625 260 l 5
 435.690429688 148.602539062 l 5
 507.901367188 110.038085938 l 5
EndSplineSet
EndChar

StartChar: afii10097
Encoding: 1103 1103 31
Width: 1000
Flags: HM
LayerCount: 4
Back
SplineSet
253 520 m 2
 478 520 l 1
 478 0 l 1
 338 0 l 1
 338 171 l 1
 320 171 l 2
 264 171 237 145 217 100 c 2
 173 0 l 1
 10 0 l 1
 70 124 l 2
 93 172 134 218 193 224 c 1
 115 222 44 278 44 355 c 0
 44 460 134 520 253 520 c 2
338 284 m 1
 338 405 l 1
 281 405 l 2
 218 405 198 377 198 347 c 0
 198 306 223 284 307 284 c 2
 338 284 l 1
EndSplineSet
Fore
SplineSet
338.037109375 170.97265625 m 1
 319.864257812 170.97265625 l 1
 254.967773438 152.370117188 l 1
 217.080078125 99.9482421875 l 1
 173.064453125 0 l 1
 10.1767578125 0 l 1
 70.197265625 124.037109375 l 1
 118.150390625 189.68359375 l 1
 193.237304688 223.8203125 l 1
 89.4638671875 259.740234375 l 1
 44.271484375 354.870117188 l 1
 104.125 476.681640625 l 1
 253.2578125 519.83984375 l 1
 478 519.83984375 l 1
 478 0 l 1
 338.037109375 0 l 1
 338.037109375 170.97265625 l 1
338.037109375 404.881835938 m 1
 280.93359375 404.881835938 l 1
 215.787109375 387.138671875 l 1
 197.90625 346.94921875 l 1
 220.956054688 300.055664062 l 1
 307.026367188 283.9296875 l 1
 338.037109375 283.9296875 l 1
 338.037109375 404.881835938 l 1
EndSplineSet
EndChar

StartChar: afii10017
Encoding: 1040 1040 32
Width: 692
Flags: MW
HStem: -8.24609 21G<100.705 158.305 531.85 590.233> 129.898 132.06<250.107 440.192> 700.163 20G<269.174 428.952>
LayerCount: 4
Back
SplineSet
296 720 m 1
 440 720 l 1
 720 0 l 1
 555 0 l 1
 507 130 l 1
 220 130 l 1
 173 0 l 1
 10 0 l 1
 296 720 l 1
364 521 m 1
 269 262 l 1
 459 262 l 1
 364 521 l 1
EndSplineSet
Fore
SplineSet
277.119140625 720.163085938 m 5
 421.184570312 720.163085938 l 5
 682.30078125 47.8623046875 l 5
 539.237304688 -8.24609375 l 5
 488.21484375 129.8984375 l 5
 201.084960938 129.8984375 l 5
 151.0625 -8.24609375 l 5
 10 47.7783203125 l 5
 277.119140625 720.163085938 l 5
  Spiro
    277.119 720.164 v
    421.184 720.164 v
    682.301 47.8614 v
    539.237 -8.24681 v
    488.214 129.898 v
    201.085 129.898 v
    151.062 -8.24681 v
    9.99919 47.7784 v
    0 0 z
  EndSpiro
345.149414062 521.07421875 m 5
 250.107421875 261.958007812 l 5
 440.192382812 261.958007812 l 5
 345.149414062 521.07421875 l 5
  Spiro
    345.15 521.074 v
    250.107 261.958 v
    440.192 261.958 v
    0 0 z
  EndSpiro
EndSplineSet
Colour: ffff00
EndChar

StartChar: afii10018
Encoding: 1041 1041 33
Width: 1000
Flags: HM
LayerCount: 4
Back
SplineSet
70 720 m 1
 593 720 l 1
 593 575 l 1
 230 575 l 1
 230 460 l 1
 383 460 l 2
 542 460 642 376 642 231 c 0
 642 56 520 0 385 0 c 2
 70 0 l 1
 70 720 l 1
230 320 m 1
 230 140 l 1
 378 140 l 2
 453 140 479 176 479 234 c 0
 479 281 453 320 370 320 c 2
 230 320 l 1
EndSplineSet
Fore
SplineSet
593 719.875 m 5
 593 575 l 5
 230.043945312 575 l 5
 230.043945312 459.875976562 l 5
 383.012695312 459.875976562 l 5
 572.013671875 399.81640625 l 5
 641.849609375 230.96875 l 5
 564 49.923828125 l 5
 384.9296875 0.0537109375 l 5
 70.07421875 0.0537109375 l 5
 70.07421875 719.875 l 5
 593 719.875 l 5
230.044921875 139.93359375 m 5
 377.927734375 139.93359375 l 5
 456.505859375 165.264648438 l 5
 478.877929688 234.045898438 l 5
 455.505859375 294.588867188 l 5
 369.924804688 319.995117188 l 5
 229.877929688 319.995117188 l 5
 230.044921875 139.93359375 l 5
EndSplineSet
EndChar

StartChar: afii10019
Encoding: 1042 1042 34
Width: 711
Flags: HMW
LayerCount: 4
Back
SplineSet
373 0 m 2xf4
 70 0 l 1
 70 720 l 1
 363 720 l 2
 509 720 615 661 615 533 c 0
 615 465 580 402 501 376 c 1
 587 355 644 293 644 208 c 0
 644 56 536 0 373 0 c 2xf4
225 595 m 1xf8
 225 430 l 1xf4
 344 430 l 2
 417 430 457 463 457 521 c 0
 457 579 406 595 332 595 c 2
 225 595 l 1xf8
225 305 m 1
 225 125 l 1
 363 125 l 2xf8
 441 125 483 150 483 208 c 0
 483 275 433 305 350 305 c 2
 225 305 l 1
EndSplineSet
Fore
SplineSet
70 0.025390625 m 5xf0
 70 719.974609375 l 5
 372.939453125 719.974609375 l 5
 560.875 680.705078125 l 5
 633.8046875 536.71484375 l 5
 605.754882812 440.41015625 l 5
 511.319335938 375.89453125 l 5
 622.584960938 315.120117188 l 5
 662.7890625 204.790039062 l 5
 587.0546875 40.23046875 l 5
 383.224609375 0.025390625 l 5
 70 0.025390625 l 5xf0
225.209960938 430.125 m 5
 354.239257812 430.125 l 5
 442.129882812 455.370117188 l 5
 472.049804688 524.559570312 l 5
 436.51953125 584.400390625 l 5
 342.084960938 594.684570312 l 5
 225.209960938 594.684570312 l 5
 225.209960938 430.125 l 5
225.209960938 124.379882812 m 5
 372.939453125 125.315429688 l 5
 464.569335938 140.275390625 l 5
 498.229492188 204.790039062 l 5
 462.69921875 279.58984375 l 5
 360.784179688 304.834960938 l 5
 225.209960938 304.834960938 l 5
 225.209960938 124.379882812 l 5
EndSplineSet
Colour: ffff00
EndChar

StartChar: afii10020
Encoding: 1043 1043 35
Width: 1000
Flags: HMW
LayerCount: 4
Back
SplineSet
70 0 m 5
 70 720 l 5
 553 720 l 5
 553 575 l 5
 230 575 l 5
 230 0 l 5
 70 0 l 5
EndSplineSet
Fore
SplineSet
70 0 m 5
 70 720 l 5
 553 720 l 5
 553 575 l 5
 230 575 l 5
 230 0 l 5
 70 0 l 5
EndSplineSet
Colour: ffff00
EndChar

StartChar: afii10021
Encoding: 1044 1044 36
Width: 1000
Flags: HM
LayerCount: 4
Back
SplineSet
162 512 m 2xec
 162 720 l 1
 681 720 l 1
 681 144 l 1
 767 144 l 1
 767 -169 l 1
 607 -169 l 1
 607 0 l 1
 170 0 l 1xf2
 170 -169 l 1
 10 -169 l 1
 10 144 l 1
 48 144 l 2
 163 144 162 349 162 512 c 2xec
521 144 m 1
 521 575 l 1
 317 575 l 1
 317 563 l 2xec
 317 382 321 188 229 144 c 1
 521 144 l 1
EndSplineSet
Fore
SplineSet
162.131835938 719.793945312 m 5
 421.59375 719.793945312 l 5
 681.0546875 719.793945312 l 5
 681.0546875 431.870117188 l 5
 681.0546875 143.938476562 l 5
 724.028320312 143.938476562 l 5
 767 143.938476562 l 5
 767 -12.5263671875 l 5
 767 -169 l 5
 687.056640625 -169 l 5
 607.11328125 -169 l 5
 607.11328125 -84.509765625 l 5
 607.11328125 -0.02734375 l 5
 388.665039062 -0.02734375 l 5
 170.216796875 -0.02734375 l 5
 170.216796875 -84.509765625 l 5
 170.216796875 -169 l 5
 90.232421875 -169 l 5
 10.2470703125 -169 l 5
 10.2470703125 -12.5263671875 l 5
 10.2470703125 143.938476562 l 5
 29.2109375 143.938476562 l 5
 48.1767578125 143.938476562 l 5
 148.293945312 266.80078125 l 5
 162.131835938 511.891601562 l 5
 162.131835938 615.842773438 l 5
 162.131835938 719.793945312 l 5
 162.131835938 719.793945312 l 5
521.084960938 574.918945312 m 5
 419.134765625 574.918945312 l 5
 317.18359375 574.918945312 l 5
 317.18359375 568.83203125 l 5
 317.18359375 562.829101562 l 5
 307.711914062 301.961914062 l 5
 229.153320312 143.938476562 l 5
 375.119140625 143.938476562 l 5
 521.084960938 143.938476562 l 5
 521.084960938 359.428710938 l 5
 521.084960938 574.918945312 l 5
EndSplineSet
EndChar

StartChar: afii10022
Encoding: 1045 1045 37
Width: 667
Flags: HMW
LayerCount: 4
Back
SplineSet
607 0 m 1
 70 0 l 1
 70 720 l 1
 597 720 l 1
 597 575 l 1
 230 575 l 1
 230 440 l 1
 547 440 l 1
 547 295 l 1
 230 295 l 1
 230 145 l 1
 607 145 l 1
 607 0 l 1
EndSplineSet
Fore
SplineSet
607.12109375 0 m 5
 70.12109375 0 l 5
 70.12109375 720 l 5
 597.12109375 720 l 5
 597.12109375 575 l 5
 230.12109375 575 l 5
 230.12109375 440 l 5
 547.12109375 440 l 5
 547.12109375 295 l 5
 230.12109375 295 l 5
 230.12109375 145 l 5
 607.12109375 145 l 5
 607.12109375 0 l 5
EndSplineSet
Colour: ffff00
EndChar

StartChar: afii10024
Encoding: 1046 1046 38
Width: 1000
Flags: HM
LayerCount: 4
Back
SplineSet
600 295 m 1
 600 0 l 1
 440 0 l 1
 440 295 l 1
 424 295 l 2
 367 295 330 272 298 194 c 2
 217 0 l 1
 30 0 l 1
 144 238 l 2
 181 315 248 361 299 368 c 1
 256 374 231 405 215 433 c 2
 169 512 l 2
 139 563 118 573 85 573 c 2
 59 573 l 1
 59 720 l 1
 106 720 l 2
 168 720 210 719 264 628 c 2
 340 499 l 2
 362 462 380 430 426 430 c 2
 440 430 l 1
 440 720 l 1
 600 720 l 1
 600 430 l 1
 614 430 l 2
 660 430 678 462 700 499 c 2
 776 628 l 2
 830 719 872 720 934 720 c 2
 981 720 l 1
 981 573 l 1
 955 573 l 2
 922 573 901 563 871 512 c 2
 825 433 l 2
 809 405 784 374 741 368 c 1
 792 361 859 315 896 238 c 2
 1010 0 l 1
 823 0 l 1
 742 194 l 2
 710 272 673 295 616 295 c 2
 600 295 l 1
EndSplineSet
Fore
SplineSet
613.942382812 294.852539062 m 1
 598.100585938 294.852539062 l 1
 598.100585938 0 l 1
 598.43359375 0 l 2
 438.881835938 0 l 1
 438.881835938 294.852539062 l 1
 422.872070312 294.852539062 l 1
 350.514648438 273.6328125 l 1
 296.913085938 193.903320312 l 1
 215.803710938 0 l 1
 28.990234375 0 l 1
 142.862304688 237.912109375 l 1
 215.052734375 329.239257812 l 1
 297.747070312 368.044921875 l 1
 245.677734375 392.1171875 l 1
 213.801757812 432.815429688 l 1
 167.703125 511.752929688 l 1
 126.876953125 561.364257812 l 1
 83.67578125 572.779296875 l 1
 57.6669921875 572.779296875 l 1
 57.6669921875 719.655273438 l 1
 104.515625 719.655273438 l 1
 186.48046875 707.7734375 l 1
 262.568359375 627.626953125 l 1
 338.510742188 498.669921875 l 1
 372.522460938 450.30859375 l 1
 424.5390625 429.647460938 l 1
 438.546875 429.647460938 l 1
 438.546875 719.655273438 l 1
 598.517578125 719.655273438 l 1
 598.517578125 429.647460938 l 1
 612.525390625 429.647460938 l 1
 664.491210938 450.30859375 l 1
 698.387695312 498.669921875 l 1
 774.330078125 627.626953125 l 1
 850.29296875 707.7734375 l 1
 932.3828125 719.655273438 l 1
 979.231445312 719.655273438 l 1
 979.231445312 572.779296875 l 1
 953.22265625 572.779296875 l 1
 910.083984375 561.364257812 l 1
 869.194335938 511.752929688 l 1
 823.096679688 432.815429688 l 1
 791.314453125 392.1171875 l 1
 739.151367188 368.044921875 l 1
 821.814453125 329.239257812 l 1
 894.036132812 237.912109375 l 1
 1007.99121094 0 l 1
 821.01171875 0 l 1
 740.068359375 193.903320312 l 1
 686.352539062 273.6328125 l 1
 613.942382812 294.852539062 l 1
EndSplineSet
EndChar

StartChar: afii10025
Encoding: 1047 1047 39
Width: 1000
Flags: HM
LayerCount: 4
Back
SplineSet
245 305 m 1xe8
 245 435 l 1
 310 435 l 2
 382 435 403 467 403 514 c 0
 403 566 365 595 306 595 c 0
 241 595 204 566 195 507 c 1
 50 535 l 1
 71 664 169 735 307 735 c 0
 434 735 557 666 557 533 c 0
 557 456 515 400 452 376 c 1
 542 360 590 290 590 209 c 0xf0
 590 49 450 -15 316 -15 c 0
 181 -15 56 39 30 202 c 1
 177 226 l 1
 194 161 227 122 312 122 c 0
 391 122 433 154 433 216 c 0
 433 278 385 305 320 305 c 2
 245 305 l 1xe8
EndSplineSet
Fore
SplineSet
245 435.215820312 m 5
 309.938476562 435.215820312 l 5
 383.389648438 457.053710938 l 5
 402.885742188 514.153320312 l 5
 376.543945312 574.104492188 l 5
 305.9375 595.099609375 l 5
 229.421875 573.228515625 l 5
 194.983398438 507.157226562 l 5
 50.0185546875 535.165039062 l 5
 134.629882812 683.475585938 l 5
 307.021484375 735.063476562 l 5
 479.557617188 683.92578125 l 5
 556.9375 532.997070312 l 5
 528.052734375 434.599609375 l 5
 451.90234375 376.024414062 l 5
 554.64453125 316.96484375 l 5
 589.865234375 209.13671875 l 5
 503.107421875 37.0791015625 l 5
 315.940429688 -14.93359375 l 5
 132.108398438 32.3935546875 l 5
 29.927734375 202.1328125 l 5
 176.977539062 226.0625 l 5
 218.98046875 149.694335938 l 5
 311.938476562 122.028320312 l 5
 401.948242188 145.825195312 l 5
 432.8125 216.140625 l 5
 400.759765625 283.762695312 l 5
 319.94140625 305 l 5
 245 305 l 5
 245 435.215820312 l 5
EndSplineSet
EndChar

StartChar: afii10026
Encoding: 1048 1048 40
Width: 769
Flags: HMW
LayerCount: 4
Back
SplineSet
240 0 m 1
 70 0 l 1
 70 720 l 1
 230 720 l 1
 230 235 l 1
 527 720 l 1
 697 720 l 1
 697 0 l 1
 537 0 l 1
 537 490 l 1
 240 0 l 1
EndSplineSet
Fore
SplineSet
543.212890625 -0.162109375 m 5
 699.283203125 -0.162109375 l 5
 699.283203125 720.162109375 l 5
 537.209960938 720.162109375 l 5
 226.0703125 263.95703125 l 5
 226.0703125 720.162109375 l 5
 70 720.162109375 l 5
 70 -0.162109375 l 5
 232.073242188 -0.162109375 l 5
 543.212890625 456.04296875 l 5
 543.212890625 -0.162109375 l 5
EndSplineSet
Colour: ffff00
EndChar

StartChar: afii10027
Encoding: 1049 1049 41
Width: 769
Flags: HMW
LayerCount: 4
Back
SplineSet
448 920 m 1xd9
 568 920 l 1
 568 825 512 753 382 753 c 0
 252 753 200 826 200 920 c 1
 320 920 l 1
 320 870 344 847 382 847 c 0
 420 847 448 870 448 920 c 1xd9
240 0 m 1
 70 0 l 1
 70 720 l 1
 230 720 l 1
 230 235 l 1xd6
 527 720 l 1xea
 697 720 l 1xda
 697 0 l 1
 537 0 l 1
 537 490 l 1
 240 0 l 1
EndSplineSet
Fore
SplineSet
543.212890625 -0.162109375 m 5
 699.283203125 -0.162109375 l 5
 699.283203125 720.162109375 l 5
 537.209960938 720.162109375 l 5
 226.0703125 263.95703125 l 5
 226.0703125 720.162109375 l 5
 70 720.162109375 l 5
 70 -0.162109375 l 5
 232.073242188 -0.162109375 l 5
 543.212890625 456.04296875 l 5
 543.212890625 -0.162109375 l 5
568.040039062 919.728515625 m 5
 523.827148438 800.676757812 l 5
 382.143554688 752.833007812 l 5
 242.419921875 801.051757812 l 5
 200.166992188 919.728515625 l 5
 260.103515625 919.728515625 l 5
 320.040039062 919.728515625 l 5
 336.75390625 864.497070312 l 5
 381.977539062 846.787109375 l 5
 429.2421875 864.497070312 l 5
 447.999023438 919.728515625 l 5
 508.01953125 919.728515625 l 5
 568.040039062 919.728515625 l 5
EndSplineSet
EndChar

StartChar: afii10028
Encoding: 1050 1050 42
Width: 674
Flags: HMW
LayerCount: 4
Back
SplineSet
70 0 m 1
 70 720 l 1
 230 720 l 1
 230 430 l 1
 264 430 l 2
 310 430 328 462 350 499 c 2
 426 628 l 2
 480 719 552 720 614 720 c 2
 651 720 l 1
 641 573 l 1
 605 573 l 2
 572 573 551 563 521 512 c 2
 475 433 l 2
 459 405 434 374 391 368 c 1
 442 361 501 311 546 238 c 2
 690 0 l 1
 503 0 l 1
 392 194 l 2
 350 267 313 295 246 295 c 2
 230 295 l 1
 230 0 l 1
 70 0 l 1
EndSplineSet
Fore
SplineSet
230.072265625 -0.162109375 m 5
 70 -0.162109375 l 5
 70 720.162109375 l 5
 230.072265625 720.162109375 l 5
 230.072265625 404.01953125 l 5
 505.196289062 728.103515625 l 5
 613.244140625 636.124023438 l 5
 411.153320312 415.025390625 l 5
 644.2578125 79.8740234375 l 5
 510.197265625 -8.2490234375 l 5
 308.107421875 303.974609375 l 5
 230.072265625 217.936523438 l 5
 230.072265625 -0.162109375 l 5
EndSplineSet
Colour: ffff00
EndChar

StartChar: afii10029
Encoding: 1051 1051 43
Width: 1000
Flags: HMW
LayerCount: 4
Back
SplineSet
147 412 m 2xb8
 147 720 l 1
 686 720 l 1
 686 0 l 1
 526 0 l 1
 526 575 l 1
 302 575 l 1
 302 373 l 2
 302 161 278 -15 105 -15 c 0
 74 -15 32 -7 15 5 c 1x78
 10 152 l 1
 22 145 38 135 63 135 c 0
 148 135 147 249 147 412 c 2xb8
EndSplineSet
Fore
SplineSet
416.505859375 719.821289062 m 1
 685.970703125 719.821289062 l 1
 685.970703125 0 l 1
 526 0 l 1
 526 574.780273438 l 1
 301.92578125 574.780273438 l 1
 301.92578125 372.872070312 l 1
 268.341796875 99.3984375 l 1
 105.026367188 -15.083984375 l 1
 54.83203125 -9.4970703125 l 1
 15.0791015625 4.9443359375 l 1
 9.9931640625 151.995117188 l 1
 31.65625 140.822265625 l 1
 63.0107421875 134.90234375 l 1
 136.91015625 212.254882812 l 1
 147.038085938 411.828125 l 1
 147.038085938 719.846679688 l 2
 147.0390625 719.846679688 l 0
 416.505859375 719.821289062 l 1
EndSplineSet
EndChar

StartChar: afii10030
Encoding: 1052 1052 44
Width: 923
Flags: HMW
LayerCount: 4
Back
SplineSet
230 0 m 1
 70 0 l 1
 70 720 l 1
 270 720 l 1
 462 193 l 1
 653 720 l 1
 853 720 l 1
 853 0 l 1
 693 0 l 1
 693 443 l 1
 529 0 l 1
 394 0 l 1
 230 443 l 1
 230 0 l 1
EndSplineSet
Fore
SplineSet
230.072265625 -0.162109375 m 5
 70 -0.162109375 l 5
 70 720.162109375 l 5
 270.08984375 720.162109375 l 5
 462.176757812 192.924804688 l 5
 653.263671875 720.162109375 l 5
 853.353515625 720.162109375 l 5
 853.353515625 -0.162109375 l 5
 693.28125 -0.162109375 l 5
 693.28125 443.037109375 l 5
 529.20703125 -0.162109375 l 5
 394.146484375 -0.162109375 l 5
 230.072265625 443.037109375 l 5
 230.072265625 -0.162109375 l 5
EndSplineSet
Colour: ffff00
EndChar

StartChar: afii10031
Encoding: 1053 1053 45
Width: 800
Flags: HMW
LayerCount: 4
Back
SplineSet
230 0 m 1
 70 0 l 1
 70 720 l 1
 230 720 l 1
 230 440 l 1
 517 440 l 1
 517 720 l 1
 677 720 l 1
 677 0 l 1
 517 0 l 1
 517 295 l 1
 230 295 l 1
 230 0 l 1
EndSplineSet
Fore
SplineSet
241.200195312 -25.2001953125 m 5
 70 -25.2001953125 l 5
 70 745.200195312 l 5
 241.200195312 745.200195312 l 5
 241.200195312 445.599609375 l 5
 558.989257812 445.599609375 l 5
 558.989257812 745.200195312 l 5
 730.189453125 745.200195312 l 5
 730.189453125 -25.2001953125 l 5
 558.989257812 -25.2001953125 l 5
 558.989257812 290.450195312 l 5
 241.200195312 290.450195312 l 5
 241.200195312 -25.2001953125 l 5
EndSplineSet
Colour: ffff00
EndChar

StartChar: afii10032
Encoding: 1054 1054 46
Width: 764
Flags: HMW
LayerCount: 4
Back
SplineSet
40 360 m 0
 40 577 163 735 383 735 c 0
 602 735 725 577 725 360 c 0
 725 143 602 -15 383 -15 c 0
 163 -15 40 143 40 360 c 0
205 360 m 0
 205 213 273 125 383 125 c 0
 492 125 560 213 560 360 c 0
 560 507 492 595 383 595 c 0
 273 595 205 507 205 360 c 0
EndSplineSet
Fore
SplineSet
382.690429688 742.415039062 m 5
 640.75 633.955078125 l 5
 731.4453125 360 l 5
 640.75 86.044921875 l 5
 382.690429688 -22.4150390625 l 5
 123.6953125 86.044921875 l 5
 33 360 l 5
 123.6953125 633.955078125 l 5
 382.690429688 742.415039062 l 5
382.690429688 120.639648438 m 5
 514.525390625 184.219726562 l 5
 563.145507812 360 l 5
 514.525390625 535.780273438 l 5
 382.690429688 599.360351562 l 5
 249.919921875 535.780273438 l 5
 201.299804688 360 l 5
 249.919921875 184.219726562 l 5
 382.690429688 120.639648438 l 5
EndSplineSet
Colour: ffff00
EndChar

StartChar: afii10033
Encoding: 1055 1055 47
Width: 1000
Flags: HMW
LayerCount: 4
Back
SplineSet
230 0 m 5
 70 0 l 5
 70 720 l 5
 677 720 l 5
 677 0 l 5
 517 0 l 5
 517 575 l 5
 230 575 l 5
 230 0 l 5
EndSplineSet
Fore
SplineSet
230 0 m 5
 70 0 l 5
 70 720 l 5
 677 720 l 5
 677 0 l 5
 517 0 l 5
 517 575 l 5
 230 575 l 5
 230 0 l 5
EndSplineSet
Colour: ffff00
EndChar

StartChar: afii10034
Encoding: 1056 1056 48
Width: 672
Flags: HMW
LayerCount: 4
Back
SplineSet
230 0 m 1
 70 0 l 1
 70 720 l 1
 345 720 l 2
 490 720 632 654 632 479 c 0
 632 334 532 230 353 230 c 2
 230 230 l 1
 230 0 l 1
230 580 m 1
 230 370 l 1
 340 370 l 2
 443 370 469 429 469 476 c 0
 469 534 433 580 338 580 c 2
 230 580 l 1
EndSplineSet
Fore
SplineSet
70 0.025390625 m 5
 70 719.974609375 l 5
 355.17578125 719.974609375 l 5
 553.395507812 664.809570312 l 5
 642.220703125 478.745117188 l 5
 570.225585938 300.16015625 l 5
 362.655273438 230.03515625 l 5
 229.885742188 230.03515625 l 5
 229.885742188 0.025390625 l 5
 70 0.025390625 l 5
229.885742188 370.28515625 m 5
 350.5 370.28515625 l 5
 453.350585938 405.815429688 l 5
 479.530273438 475.940429688 l 5
 449.610351562 549.8046875 l 5
 348.629882812 579.724609375 l 5
 229.885742188 579.724609375 l 5
 229.885742188 370.28515625 l 5
EndSplineSet
Colour: ffff00
EndChar

StartChar: afii10035
Encoding: 1057 1057 49
Width: 720
Flags: HMW
LayerCount: 4
Back
SplineSet
205 360 m 0
 205 213 278 125 388 125 c 0
 466 125 519 165 544 250 c 1
 701 206 l 1
 657 68 561 -15 388 -15 c 0
 168 -15 40 143 40 360 c 0
 40 577 163 735 383 735 c 0
 546 735 665 657 701 513 c 1
 544 469 l 1
 523 559 461 595 383 595 c 0
 273 595 205 507 205 360 c 0
EndSplineSet
Fore
SplineSet
387.799804688 120.639648438 m 5
 487.844726562 151.495117188 l 5
 546.75 247.799804688 l 5
 680.455078125 162.71484375 l 5
 596.3046875 37.4248046875 l 5
 387.799804688 -22.4150390625 l 5
 126 86.044921875 l 5
 32.5 360 l 5
 123.1953125 633.955078125 l 5
 382.190429688 742.415039062 l 5
 593.5 684.4453125 l 5
 680.455078125 554.48046875 l 5
 546.75 471.264648438 l 5
 485.974609375 570.375 l 5
 404.629882812 597.490234375 l 5
 256.5 545 l 5
 200.799804688 360 l 5
 252.224609375 184.219726562 l 5
 387.799804688 120.639648438 l 5
EndSplineSet
Colour: ffff00
EndChar

StartChar: afii10036
Encoding: 1058 1058 50
Width: 664
Flags: HMW
LayerCount: 4
Back
SplineSet
412 0 m 1
 252 0 l 1
 252 575 l 1
 30 575 l 1
 30 720 l 1
 634 720 l 1
 634 575 l 1
 412 575 l 1
 412 0 l 1
EndSplineSet
Fore
SplineSet
412.170898438 -0.162109375 m 5
 252.100585938 -0.162109375 l 5
 252.100585938 575.096679688 l 5
 30 575.096679688 l 5
 30 720.162109375 l 5
 634.271484375 720.162109375 l 5
 634.271484375 575.096679688 l 5
 412.170898438 575.096679688 l 5
 412.170898438 -0.162109375 l 5
EndSplineSet
Colour: ffff00
EndChar

StartChar: afii10037
Encoding: 1059 1059 51
Width: 1000
Flags: HMW
LayerCount: 4
Back
SplineSet
298 196 m 1
 10 720 l 1
 177 720 l 1
 374 349 l 1
 534 720 l 1
 695 720 l 1
 442 159 l 2
 387 35 318 -15 227 -15 c 0
 172 -15 110 1 86 26 c 1
 120 157 l 1
 137 144 177 123 209 123 c 0
 242 123 272 135 288 173 c 2
 298 196 l 1
EndSplineSet
Fore
SplineSet
10.1875 720 m 1
 177.16015625 720 l 1
 373.975585938 349.12890625 l 1
 533.946289062 720 l 1
 695 720 l 1
 442.08203125 159.069335938 l 1
 348.133789062 25.5849609375 l 1
 227.176757812 -14.9892578125 l 1
 145.076171875 -3.890625 l 1
 86.2958984375 26.0185546875 l 1
 120.224609375 156.901367188 l 1
 159.1328125 135.09765625 l 1
 209.170898438 123.057617188 l 1
 255.01953125 133.780273438 l 1
 288.11328125 173.069335938 l 1
 298.118164062 195.999023438 l 1
 10.1875 720 l 1
EndSplineSet
EndChar

StartChar: afii10038
Encoding: 1060 1060 52
Width: 1000
Flags: HM
CounterMasks: 1 0e
LayerCount: 4
Back
SplineSet
503 -15 m 1
 343 -15 l 1
 343 75 l 1
 168 77 30 166 30 360 c 0
 30 553 168 642 343 645 c 1
 343 735 l 1
 503 735 l 1
 503 645 l 1
 678 642 816 553 816 360 c 0
 816 166 678 77 503 75 c 1
 503 -15 l 1
651 360 m 0
 651 462 589 498 503 500 c 1
 503 220 l 1
 580 222 651 257 651 360 c 0
195 360 m 0
 195 257 257 222 343 220 c 1
 343 500 l 1
 265 498 195 462 195 360 c 0
EndSplineSet
Fore
SplineSet
343.029296875 -15 m 5
 343.029296875 74.859375 l 5
 120.9453125 145.391601562 l 5
 30.091796875 359.790039062 l 5
 120.9453125 573.5546875 l 5
 343.029296875 644.720703125 l 5
 343.029296875 734.747070312 l 5
 503 734.747070312 l 5
 503 644.720703125 l 5
 725.115234375 573.5546875 l 5
 815.9375 359.790039062 l 5
 725.115234375 145.391601562 l 5
 503 74.859375 l 5
 503 -15 l 5
 343.029296875 -15 l 5
343.029296875 219.91015625 m 5
 343.029296875 499.75390625 l 5
 239.859375 467.301757812 l 5
 195.146484375 359.70703125 l 5
 236.764648438 252.01171875 l 5
 343.029296875 219.91015625 l 5
503 500.00390625 m 5
 503 219.993164062 l 5
 605.8671875 252.0703125 l 5
 650.965820312 360.040039062 l 5
 609.244140625 467.41015625 l 5
 503 500.00390625 l 5
EndSplineSet
EndChar

StartChar: afii10039
Encoding: 1061 1061 53
Width: 629
Flags: HMW
LayerCount: 4
Back
SplineSet
204 0 m 1
 20 0 l 1
 279 373 l 1
 38 720 l 1
 236 720 l 1
 377 492 l 1
 524 720 l 1
 707 720 l 1
 466 368 l 1
 712 0 l 1
 524 0 l 1
 369 250 l 1
 204 0 l 1
EndSplineSet
Fore
SplineSet
146.056640625 -8.2490234375 m 5
 20 75.2890625 l 5
 226.092773438 373.005859375 l 5
 45.01171875 633.810546875 l 5
 178.071289062 728.103515625 l 5
 324.13671875 492.059570312 l 5
 476.205078125 728.103515625 l 5
 605.263671875 647.817382812 l 5
 413.176757812 368.00390625 l 5
 609.265625 74.2890625 l 5
 476.205078125 -8.2490234375 l 5
 316.133789062 249.950195312 l 5
 146.056640625 -8.2490234375 l 5
EndSplineSet
Colour: ffff00
EndChar

StartChar: afii10040
Encoding: 1062 1062 54
Width: 1000
Flags: HMW
LayerCount: 4
Back
SplineSet
517 720 m 5xf8
 677 720 l 5
 677 144 l 5
 763 144 l 5
 763 -169 l 5
 603 -169 l 5
 603 0 l 5
 70 0 l 5xf8
 70 720 l 5
 230 720 l 5
 230 145 l 5
 517 145 l 5xf4
 517 720 l 5xf8
EndSplineSet
Fore
SplineSet
517 720 m 5xf8
 677 720 l 5
 677 144 l 5
 763 144 l 5
 763 -169 l 5
 603 -169 l 5
 603 0 l 5
 70 0 l 5xf8
 70 720 l 5
 230 720 l 5
 230 145 l 5
 517 145 l 5xf4
 517 720 l 5xf8
EndSplineSet
Colour: ffff00
EndChar

StartChar: afii10041
Encoding: 1063 1063 55
Width: 1000
Flags: HM
LayerCount: 4
Back
SplineSet
611 720 m 1
 611 0 l 1
 451 0 l 1
 451 276 l 1
 414 256 362 241 288 241 c 0
 94 241 40 363 40 535 c 2
 40 720 l 1
 200 720 l 1
 200 544 l 2
 200 425 227 378 321 378 c 0
 378 378 424 389 451 410 c 1
 451 720 l 1
 611 720 l 1
EndSplineSet
Fore
SplineSet
611 0 m 5
 451.030273438 0 l 5
 451.030273438 276.008789062 l 5
 383.424804688 251.002929688 l 5
 288.059570312 240.997070312 l 5
 91.31640625 323.4609375 l 5
 40.0595703125 534.848632812 l 5
 40.0595703125 719.822265625 l 5
 200.029296875 719.822265625 l 5
 200.029296875 543.854492188 l 5
 225.236328125 416.331054688 l 5
 320.903320312 377.958984375 l 5
 397.189453125 386.129882812 l 5
 451.030273438 410.052734375 l 5
 451.030273438 719.905273438 l 5
 611 719.905273438 l 5
 611 0 l 5
EndSplineSet
EndChar

StartChar: afii10042
Encoding: 1064 1064 56
Width: 1000
Flags: HMW
CounterMasks: 1 38
LayerCount: 4
Back
SplineSet
744 720 m 5
 904 720 l 5
 904 0 l 5
 70 0 l 5
 70 720 l 5
 230 720 l 5
 230 145 l 5
 407 145 l 5
 407 720 l 5
 567 720 l 5
 567 145 l 5
 744 145 l 5
 744 720 l 5
EndSplineSet
Fore
SplineSet
744 720 m 5
 904 720 l 5
 904 0 l 5
 70 0 l 5
 70 720 l 5
 230 720 l 5
 230 145 l 5
 407 145 l 5
 407 720 l 5
 567 720 l 5
 567 145 l 5
 744 145 l 5
 744 720 l 5
EndSplineSet
Colour: ffff00
EndChar

StartChar: afii10043
Encoding: 1065 1065 57
Width: 1000
Flags: HMW
LayerCount: 4
Back
SplineSet
904 720 m 5xfa
 904 144 l 5
 990 144 l 5
 990 -169 l 5
 830 -169 l 5
 830 0 l 5
 70 0 l 5
 70 720 l 5
 230 720 l 5
 230 145 l 5
 407 145 l 5
 407 720 l 5
 567 720 l 5xfc
 567 145 l 5
 744 145 l 5
 744 720 l 5
 904 720 l 5xfa
EndSplineSet
Fore
SplineSet
904 720 m 5xfa
 904 144 l 5
 990 144 l 5
 990 -169 l 5
 830 -169 l 5
 830 0 l 5
 70 0 l 5
 70 720 l 5
 230 720 l 5
 230 145 l 5
 407 145 l 5
 407 720 l 5
 567 720 l 5xfc
 567 145 l 5
 744 145 l 5
 744 720 l 5
 904 720 l 5xfa
EndSplineSet
Colour: ffff00
EndChar

StartChar: afii10044
Encoding: 1066 1066 58
Width: 1000
Flags: HM
LayerCount: 4
Back
SplineSet
335 720 m 1
 335 480 l 1
 458 480 l 2
 637 480 737 386 737 241 c 0
 737 66 595 0 450 0 c 2
 175 0 l 1
 175 575 l 1
 20 575 l 1
 20 720 l 1
 335 720 l 1
335 350 m 1
 335 140 l 1
 443 140 l 2
 538 140 574 186 574 244 c 0
 574 291 548 350 445 350 c 2
 335 350 l 1
EndSplineSet
Fore
SplineSet
334.803710938 479.826171875 m 1
 457.927734375 479.826171875 l 1
 664.475585938 414.747070312 l 1
 736.854492188 240.997070312 l 1
 647.76171875 54.8486328125 l 1
 450.008789062 0 l 1
 175 0 l 1
 175 574.780273438 l 1
 20.1982421875 574.780273438 l 1
 20.1982421875 719.655273438 l 1
 334.969726562 719.655273438 l 1
 334.803710938 479.826171875 l 1
334.803710938 139.880859375 m 1
 442.83984375 139.880859375 l 1
 543.915039062 170.172851562 l 1
 573.716796875 243.915039062 l 1
 547.84375 314.463867188 l 1
 444.756835938 349.868164062 l 1
 334.803710938 349.868164062 l 1
 334.803710938 139.880859375 l 1
EndSplineSet
EndChar

StartChar: afii10045
Encoding: 1067 1067 59
Width: 1000
Flags: HM
LayerCount: 4
Back
SplineSet
870 0 m 1xe2
 710 0 l 1
 710 720 l 1
 870 720 l 1
 870 0 l 1xe2
70 720 m 1xf6
 230 720 l 1
 230 480 l 1
 353 480 l 2
 532 480 632 386 632 241 c 0
 632 66 490 0 345 0 c 2
 70 0 l 1
 70 720 l 1xf6
230 350 m 1
 230 140 l 1xf2
 338 140 l 2
 433 140 469 186 469 244 c 0xea
 469 291 443 350 340 350 c 2
 230 350 l 1
EndSplineSet
Fore
SplineSet
229.803710938 719.822265625 m 5
 229.803710938 479.826171875 l 5
 352.844726562 479.826171875 l 5
 559.434570312 414.747070312 l 5
 631.854492188 240.997070312 l 5
 542.751953125 54.8486328125 l 5
 344.924804688 0 l 5
 70 0 l 5
 70 719.822265625 l 5
 229.803710938 719.822265625 l 5
229.803710938 139.880859375 m 5
 337.755859375 139.880859375 l 5
 438.904296875 170.172851562 l 5
 468.716796875 243.915039062 l 5
 442.84375 314.463867188 l 5
 339.756835938 349.868164062 l 5
 229.803710938 349.868164062 l 5
 229.803710938 139.880859375 l 5
709.713867188 0.083984375 m 5
 709.713867188 719.905273438 l 5
 869.767578125 719.905273438 l 5
 869.767578125 0.083984375 l 5
 709.713867188 0.083984375 l 5
EndSplineSet
EndChar

StartChar: afii10046
Encoding: 1068 1068 60
Width: 1000
Flags: HMW
LayerCount: 4
Back
SplineSet
70 720 m 1
 230 720 l 1
 230 480 l 1
 353 480 l 2
 532 480 632 386 632 241 c 0
 632 66 490 0 345 0 c 2
 70 0 l 1
 70 720 l 1
230 350 m 1
 230 140 l 1
 338 140 l 2
 433 140 469 186 469 244 c 0
 469 291 443 350 340 350 c 2
 230 350 l 1
EndSplineSet
Fore
SplineSet
229.803710938 719.821289062 m 5
 229.803710938 479.825195312 l 5
 352.760742188 479.825195312 l 5
 559.423828125 414.74609375 l 5
 631.854492188 240.99609375 l 5
 542.751953125 54.84765625 l 5
 344.924804688 0 l 5
 70 0 l 5
 70 719.821289062 l 5
 229.803710938 719.821289062 l 5
229.803710938 139.879882812 m 5
 337.755859375 139.879882812 l 5
 438.873046875 170.171875 l 5
 468.716796875 243.915039062 l 5
 442.84375 314.463867188 l 5
 339.756835938 349.8671875 l 5
 229.803710938 349.8671875 l 5
 229.803710938 139.879882812 l 5
EndSplineSet
EndChar

StartChar: afii10047
Encoding: 1069 1069 61
Width: 1000
Flags: HM
LayerCount: 4
Back
SplineSet
285 305 m 1
 285 430 l 1
 530 430 l 1
 523 534 454 595 363 595 c 0
 285 595 218 559 197 469 c 1
 45 513 l 1
 84 657 200 735 363 735 c 0
 593 735 701 577 701 360 c 0
 701 143 598 -15 358 -15 c 0
 185 -15 84 68 40 206 c 1
 197 250 l 1
 222 165 280 125 358 125 c 0
 453 125 528 186 530 305 c 1
 285 305 l 1
EndSplineSet
Fore
SplineSet
284.75 430.213867188 m 5
 529.665039062 430.213867188 l 5
 477.720703125 551.75 l 5
 362.692382812 595.266601562 l 5
 258.366210938 566.0078125 l 5
 196.803710938 469.227539062 l 5
 44.919921875 513.15234375 l 5
 157.322265625 678.15625 l 5
 362.692382812 735.063476562 l 5
 617.986328125 628.9609375 l 5
 700.721679688 360.106445312 l 5
 619.2578125 91.369140625 l 5
 357.857421875 -14.68359375 l 5
 150.52734375 44 l 5
 39.91796875 206.217773438 l 5
 196.970703125 250.151367188 l 5
 257.616210938 155.713867188 l 5
 358.024414062 125.11328125 l 5
 478.856445312 170.4140625 l 5
 529.915039062 305 l 5
 285 305 l 5
 284.75 430.213867188 l 5
EndSplineSet
EndChar

StartChar: afii10048
Encoding: 1070 1070 62
Width: 1000
Flags: HM
LayerCount: 4
Back
SplineSet
230 0 m 1xb6
 70 0 l 1
 70 720 l 1
 230 720 l 1
 230 440 l 1
 335 440 l 1
 360 615 471 735 663 735 c 0xb6
 882 735 995 577 995 360 c 0
 995 143 882 -15 663 -15 c 0
 465 -15 355 112 334 295 c 1x76
 230 295 l 1
 230 0 l 1xb6
495 360 m 0
 495 213 553 125 663 125 c 0
 772 125 830 213 830 360 c 0x6e
 830 507 772 595 663 595 c 0
 553 595 495 507 495 360 c 0
EndSplineSet
Fore
SplineSet
69.7802734375 0 m 5
 69.7802734375 719.73828125 l 5
 229.833984375 719.73828125 l 5
 229.833984375 439.90234375 l 5
 334.78515625 439.90234375 l 5
 436.142578125 652.966796875 l 5
 662.728515625 734.747070312 l 5
 910.821289062 628.64453125 l 5
 994.672851562 359.790039062 l 5
 910.821289062 91.052734375 l 5
 662.728515625 -15 l 5
 431.995117188 71.357421875 l 5
 333.868164062 295.01953125 l 5
 230 295.01953125 l 5
 230 0 l 5
 69.7802734375 0 l 5
662.645507812 124.796875 m 5
 787.05078125 187.19921875 l 5
 829.6171875 359.70703125 l 5
 787.01953125 532.305664062 l 5
 662.645507812 594.616210938 l 5
 537.48828125 532.213867188 l 5
 494.671875 359.70703125 l 5
 537.48828125 187.173828125 l 5
 662.645507812 124.796875 l 5
EndSplineSet
EndChar

StartChar: afii10049
Encoding: 1071 1071 63
Width: 669
Flags: HMW
LayerCount: 4
Back
SplineSet
625 720 m 1
 625 0 l 1
 465 0 l 1
 465 250 l 1
 422 250 l 2
 341 250 291 227 252 121 c 2
 208 0 l 1
 20 0 l 1
 90 167 l 2
 118 233 170 298 245 307 c 1
 142 319 63 389 63 499 c 0
 63 659 185 720 340 720 c 2
 625 720 l 1
465 385 m 1
 465 575 l 1
 397 575 l 2
 302 575 226 569 226 481 c 0
 226 412 282 385 395 385 c 2
 465 385 l 1
EndSplineSet
Fore
SplineSet
465.564453125 369.9921875 m 1
 345.884765625 369.9921875 l 1
 242.099609375 405.522460938 l 1
 216.854492188 475.647460938 l 1
 246.774414062 549.512695312 l 1
 347.754882812 580.3671875 l 1
 465.564453125 580.3671875 l 1
 465.564453125 369.9921875 l 1
625.44921875 -0.267578125 m 1
 625.44921875 634 l 0
 625.44921875 719.682617188 l 1
 340.274414062 719.682617188 l 1
 142.989257812 665.452148438 l 1
 53.2294921875 479.387695312 l 1
 126.159179688 299.8671875 l 1
 187.869140625 279.297851562 l 1
 45.75 80.142578125 l 1
 179.455078125 -8.6826171875 l 1
 333.729492188 229.7421875 l 1
 465.564453125 229.7421875 l 1
 465.564453125 -0.267578125 l 1
 625.44921875 -0.267578125 l 1
EndSplineSet
Colour: ffff00
EndChar

StartChar: a
Encoding: 97 97 64
Width: 550
VWidth: 964
Flags: HMW
HStem: -2.37933 106.862<217.307 234.004> 11.9327 20.0367G<368.535 512.61 368.535 368.535> 405.988 116.404<234.958 292.683>
VStem: 39.3615 143.12 340.866 143.12<169.364 236.153 236.153 236.153>
LayerCount: 4
Back
SplineSet
352.337890625 54 m 5xb8
 309.337890625 2 265.337890625 -15 203.337890625 -15 c 4
 109.337890625 -15 30.337890625 36 30.337890625 132 c 4
 30.337890625 244 108.337890625 286 234.337890625 301 c 4
 288.337890625 307 320.337890625 313 346.337890625 325 c 5
 346.337890625 337 l 6
 346.337890625 371 327.337890625 413 264.337890625 413 c 4x78
 206.337890625 413 183.337890625 374 173.337890625 336 c 5
 46.337890625 378 l 5
 72.337890625 498 174.337890625 535 271.337890625 535 c 4
 404.337890625 535 496.337890625 475 496.337890625 314 c 6
 496.337890625 106 l 6
 496.337890625 53 508.337890625 19 526.337890625 0 c 5
 375.337890625 0 l 5
 360.337890625 13 354.337890625 37 352.337890625 54 c 5xb8
346.337890625 165 m 5
 346.337890625 235 l 5
 328.337890625 228 304.337890625 219 254.337890625 209 c 4
 208.337890625 200 178.337890625 183 180.337890625 142 c 4
 181.337890625 119 195.337890625 97 238.337890625 97 c 4xb8
 285.337890625 97 329.337890625 130 346.337890625 165 c 5
EndSplineSet
Fore
SplineSet
346.075195312 326.384765625 m 1x38
 346.075195312 338.540039062 l 1
 328.310546875 389.96484375 l 1
 261.92578125 416.14453125 l 1
 197.41015625 390.900390625 l 1
 169.360351562 337.60546875 l 1
 52.4853515625 398.379882812 l 1
 127.28515625 505.905273438 l 1
 269.405273438 540.5 l 1
 434.900390625 489.075195312 l 1
 495.67578125 324.514648438 l 1
 495.67578125 0.0703125 l 1
 351.685546875 0.0703125 l 1
 351.685546875 54.2998046875 l 1
 283.430664062 -5.5400390625 l 1
 200.215820312 -20.5 l 1
 75.8603515625 17.8349609375 l 1
 23.5 129.099609375 l 1
 79.6005859375 252.51953125 l 1
 346.075195312 326.384765625 l 1x38
195.540039062 186.134765625 m 1
 175.905273438 139.384765625 l 1
 189.930664062 107.594726562 l 1
 235.745117188 93.5703125 l 1
 302.130859375 114.139648438 l 1
 345.140625 162.759765625 l 1
 346.075195312 233.8203125 l 1
 195.540039062 186.134765625 l 1
EndSplineSet
Validated: 1
Colour: ffff
EndChar

StartChar: b
Encoding: 98 98 65
Width: 580
Flags: HMW
HStem: 1.69949 119.266<302.174 328.889 272.595 389.477> 16.0114 104.954<66.9808 328.889> 407.205 119.266<305.513 330.32> 683.902 19.0826G<66.9808 210.1 210.1 210.1>
VStem: 66.9808 143.12<469.223 702.984 469.223 702.984 469.223 702.984> 400.926 143.12<215.424 312.745>
LayerCount: 4
Back
SplineSet
55.3525390625 720 m 5x7c
 205.352539062 720 l 5
 205.352539062 475 l 5
 235.352539062 522 284.352539062 535 326.352539062 535 c 4
 450.352539062 535 555.352539062 442 555.352539062 260 c 4
 555.352539062 78 455.352539062 -15 331.352539062 -15 c 4xbc
 272.352539062 -15 225.352539062 11 195.352539062 61 c 5
 195.352539062 0 l 5
 55.3525390625 0 l 5
 55.3525390625 720 l 5x7c
194.352539062 260 m 4
 194.352539062 158 241.352539062 110 300.352539062 110 c 4
 359.352539062 110 405.352539062 158 405.352539062 260 c 4
 405.352539062 362 363.352539062 410 299.352539062 410 c 4
 235.352539062 410 194.352539062 362 194.352539062 260 c 4
EndSplineSet
Fore
SplineSet
205.53515625 720.1953125 m 5x3c
 205.53515625 477.094726562 l 5
 262.5703125 525.71484375 l 5
 328.955078125 538.8046875 l 5
 493.514648438 467.745117188 l 5
 562.705078125 258.3046875 l 5
 495.384765625 47.9296875 l 5
 333.629882812 -22.1953125 l 5
 253.219726562 -2.5595703125 l 5
 195.25 61.01953125 l 5
 195.25 0.2451171875 l 5
 55 0.2451171875 l 5
 55 720.1953125 l 5
 205.53515625 720.1953125 l 5x3c
302.775390625 104.96484375 m 5
 378.509765625 142.365234375 l 5
 409.365234375 258.3046875 l 5
 379.4453125 373.309570312 l 5
 300.905273438 410.709960938 l 5
 223.299804688 373.309570312 l 5
 194.315429688 258.3046875 l 5
 226.10546875 142.365234375 l 5
 302.775390625 104.96484375 l 5
EndSplineSet
Validated: 1
Colour: ffff
EndChar

StartChar: c
Encoding: 99 99 66
Width: 519
Flags: HMW
HStem: -2346.04 1184.91<81.0144 616.594 81.0144 919.93> 1682.65 1184.91<95.2339 616.594>
VStem: -1961.77 1421.89<-198.986 720.503 -198.986 1170.76>
LayerCount: 4
Back
SplineSet
176.240234375 260 m 0
 176.240234375 163 209.240234375 110 274.240234375 110 c 0
 322.240234375 110 355.240234375 135 366.240234375 196 c 1
 514.240234375 175 l 1
 486.240234375 36 386.240234375 -15 274.240234375 -15 c 0
 140.240234375 -15 26.240234375 68 26.240234375 260 c 0
 26.240234375 452 140.240234375 535 274.240234375 535 c 0
 386.240234375 535 486.240234375 483 514.240234375 344 c 1
 367.240234375 322 l 1
 356.240234375 384 322.240234375 410 274.240234375 410 c 0
 212.240234375 410 176.240234375 357 176.240234375 260 c 0
EndSplineSet
Fore
SplineSet
273.384765625 106.66015625 m 5
 334.16015625 127.23046875 l 5
 366.884765625 194.549804688 l 5
 494.044921875 132.83984375 l 5
 427.66015625 23.4453125 l 5
 273.384765625 -20.5 l 5
 95.7353515625 45.884765625 l 5
 20 260 l 5
 94.7998046875 474.115234375 l 5
 273.384765625 540.5 l 5
 427.66015625 496.5546875 l 5
 494.98046875 384.35546875 l 5
 367.8203125 323.580078125 l 5
 335.095703125 391.834960938 l 5
 273.384765625 413.33984375 l 5
 199.520507812 373.134765625 l 5
 173.33984375 260 l 5
 198.584960938 145.9296875 l 5
 273.384765625 106.66015625 l 5
EndSplineSet
Validated: 1
Colour: ffff
EndChar

StartChar: d
Encoding: 100 100 67
Width: 580
Flags: HMW
HStem: 1.69949 119.266<251.815 278.531> 16.0114 104.954<251.815 513.724 251.815 380.146> 407.205 119.266<250.384 275.191 195.999 311.449> 683.902 19.0826G<370.604 513.724 513.724 513.724>
VStem: 36.6597 143.12<215.424 312.745 215.424 350.911> 381.1 132.624<215.424 312.745>
LayerCount: 4
Back
SplineSet
525.352539062 359.999023438 m 5xbc
 525.352539062 0 l 5
 478.725585938 0 432.098632812 0 385.471679688 0 c 5x7c
 385.471679688 60.8603515625 l 5
 328.328125 4.1689453125 l 5
 249.426757812 -15 l 5
 90.9052734375 54.2060546875 l 5
 25.3515625 259.840820312 l 5
 93.353515625 465.6171875 l 5
 254.26171875 534.848632812 l 5
 319.272460938 522.541992188 l 5
 375.21875 474.915039062 l 5
 375.21875 719.830078125 l 5
 425.235351562 719.830078125 475.251953125 719.830078125 525.268554688 719.830078125 c 5
 525.352539062 359.999023438 l 5xbc
281.436523438 409.977539062 m 5
 204.421875 373.290039062 l 5
 175.485351562 260.0078125 l 5
 205.912109375 146.7265625 l 5
 280.603515625 110.038085938 l 5
 355.649414062 146.7265625 l 5
 386.555664062 260.0078125 l 5
 358.00390625 373.290039062 l 5
 281.436523438 409.977539062 l 5
375.352539062 720 m 1xbc
 525.352539062 720 l 1
 525.352539062 0 l 1
 385.352539062 0 l 1
 385.352539062 61 l 1
 355.352539062 11 308.352539062 -15 249.352539062 -15 c 0
 125.352539062 -15 25.3525390625 78 25.3525390625 260 c 0
 25.3525390625 442 130.352539062 535 254.352539062 535 c 0
 296.352539062 535 345.352539062 522 375.352539062 475 c 1
 375.352539062 720 l 1xbc
386.352539062 260 m 0
 386.352539062 362 345.352539062 410 281.352539062 410 c 0
 217.352539062 410 175.352539062 362 175.352539062 260 c 0x7c
 175.352539062 158 221.352539062 110 280.352539062 110 c 0
 339.352539062 110 386.352539062 158 386.352539062 260 c 0
EndSplineSet
Fore
SplineSet
375.169921875 720.1953125 m 5x3c
 525.705078125 720.1953125 l 5
 525.705078125 0.2451171875 l 5
 385.455078125 0.2451171875 l 5
 385.455078125 61.01953125 l 5
 327.485351562 -2.5595703125 l 5
 247.075195312 -22.1953125 l 5
 85.3203125 47.9296875 l 5
 18 258.3046875 l 5
 87.1904296875 467.745117188 l 5
 251.75 538.8046875 l 5
 318.134765625 525.71484375 l 5
 375.169921875 477.094726562 l 5
 375.169921875 720.1953125 l 5x3c
277.9296875 104.96484375 m 5
 354.599609375 142.365234375 l 5
 386.389648438 258.3046875 l 5
 357.405273438 373.309570312 l 5
 279.799804688 410.709960938 l 5
 201.259765625 373.309570312 l 5
 171.33984375 258.3046875 l 5
 202.1953125 142.365234375 l 5
 277.9296875 104.96484375 l 5
EndSplineSet
Validated: 1
Colour: ffff
EndChar

StartChar: e
Encoding: 101 101 68
Width: 557
Flags: HMW
HStem: -2.38475 119.266<254.946 309.808 254.946 337.002> 218.973 97.3213<176.231 370.873 176.231 514.946 174.322 370.873> 403.12 119.266<249.699 301.221>
VStem: 31.2028 143.12<218.973 218.973 218.973 351.597> 370.873 145.028<316.294 316.294>
LayerCount: 4
Back
SplineSet
532.495117188 217 m 2
 175.495117188 217 l 1
 179.495117188 145 226.495117188 110 293.495117188 110 c 0
 341.495117188 110 372.495117188 137 384.495117188 170 c 1
 524.495117188 141 l 1
 485.495117188 38 408.495117188 -15 283.495117188 -15 c 0
 149.495117188 -15 25.4951171875 68 25.4951171875 260 c 0
 25.4951171875 452 150.495117188 535 283.495117188 535 c 0
 414.495117188 535 533.495117188 455 533.495117188 281 c 0
 533.495117188 250 532.495117188 219 532.495117188 217 c 2
279.495117188 410 m 0
 229.495117188 410 183.495117188 376 177.495117188 319 c 1
 381.495117188 319 l 1
 377.495117188 374 337.495117188 410 279.495117188 410 c 0
EndSplineSet
Fore
SplineSet
204.370117188 133.775390625 m 5
 288.520507812 106.66015625 l 5
 348.360351562 125.360351562 l 5
 381.084960938 168.370117188 l 5
 486.740234375 88.89453125 l 5
 434.379882812 19.705078125 l 5
 278.235351562 -20.5 l 5
 95.91015625 45.884765625 l 5
 15.5 260 l 5
 95.91015625 474.115234375 l 5
 278.235351562 540.5 l 5
 455.884765625 477.85546875 l 5
 533.490234375 281.504882812 l 5
 532.5546875 216.990234375 l 5
 167.905273438 216.990234375 l 5
 204.370117188 133.775390625 l 5
170.709960938 318.905273438 m 5
 378.280273438 318.905273438 l 5
 347.424804688 388.094726562 l 5
 274.495117188 413.33984375 l 5
 205.3046875 388.094726562 l 5
 170.709960938 318.905273438 l 5
EndSplineSet
Validated: 1
Colour: ffff
EndChar

StartChar: f
Encoding: 102 102 69
Width: 385
Flags: HMW
HStem: 16.9226 20.0367G<102.239 242.497 102.239 102.239> 399.528 113.542<27.8173 102.239 27.8173 102.239 242.497 348.405> 592.262 122.129<202.423 301.652>
VStem: 102.239 140.257<16.9226 399.528 513.069 533.107 533.107 535.015>
LayerCount: 4
Back
SplineSet
97.6328125 0 m 5
 97.6328125 401.024414062 l 5
 19.7109375 401.024414062 l 5
 19.7109375 519.939453125 l 5
 97.6328125 519.939453125 l 5
 97.6328125 544.623046875 l 5
 134.41015625 683.533203125 l 5
 258.051757812 738.397460938 l 5
 375.391601562 721.983398438 l 5
 353.650390625 598 l 5
 299.80078125 607.874023438 l 5
 259.709960938 594.061523438 l 5
 244.872070312 546.5703125 l 5
 244.872070312 519.931640625 l 5
 355.7109375 519.931640625 l 5
 355.7109375 401.015625 l 5
 244.872070312 401.015625 l 5
 244.872070312 -0.0087890625 l 5
 169.877929688 -0.0087890625 l 5
 97.6328125 0 l 5
EndSplineSet
Fore
SplineSet
97.60546875 -0.3251953125 m 1
 97.60546875 400.790039062 l 1
 20 400.790039062 l 1
 20 519.53515625 l 1
 97.60546875 519.53515625 l 1
 97.60546875 544.780273438 l 1
 134.0703125 684.094726562 l 1
 258.42578125 738.325195312 l 1
 375.30078125 722.4296875 l 1
 353.794921875 598.075195312 l 1
 299.565429688 608.360351562 l 1
 259.360351562 594.334960938 l 1
 245.334960938 546.650390625 l 1
 245.334960938 519.53515625 l 1
 355.665039062 519.53515625 l 1
 355.665039062 400.790039062 l 1
 245.334960938 400.790039062 l 1
 245.334960938 -0.3251953125 l 1
 169.600585938 -0.3251953125 l 1
 97.60546875 -0.3251953125 l 1
EndSplineSet
Validated: 1
Colour: ffff
EndChar

StartChar: g
Encoding: 103 103 70
Width: 580
Flags: HMW
HStem: -210.158 116.052<243.618 307.147 243.618 361.171> -5.06584 125.056<249.621 275.633> 410.121 110.05<251.122 525.745> 410.121 125.056<251.122 279.134 187.593 310.148>
VStem: 25.5199 150.067<214.033 316.078 214.033 356.096> 385.682 140.063<459.143 520.17>
LayerCount: 4
Back
SplineSet
525.102539062 20 m 2xec
 525.102539062 -109 452.102539062 -210 269.102539062 -210 c 0
 161.102539062 -210 35.1025390625 -157 35.1025390625 -33 c 1
 180.102539062 -46 l 1
 188.102539062 -79 217.102539062 -94 269.102539062 -94 c 0
 344.102539062 -94 375.102539062 -49 375.102539062 18 c 2
 375.102539062 45 l 1
 345.102539062 6 296.102539062 -5 254.102539062 -5 c 0
 130.102539062 -5 25.1025390625 83 25.1025390625 265 c 0
 25.1025390625 447 125.102539062 535 249.102539062 535 c 0xdc
 308.102539062 535 355.102539062 509 385.102539062 459 c 1
 385.102539062 520 l 1
 525.102539062 520 l 1
 525.102539062 20 l 2xec
386.102539062 265 m 0
 386.102539062 367 339.102539062 410 280.102539062 410 c 0
 221.102539062 410 175.102539062 367 175.102539062 265 c 0
 175.102539062 163 217.102539062 120 281.102539062 120 c 0
 345.102539062 120 386.102539062 163 386.102539062 265 c 0
EndSplineSet
Fore
SplineSet
266.709960938 -217.577148438 m 1xcc
 106.825195312 -174.567382812 l 1
 56.3349609375 -96.962890625 l 1
 154.509765625 -22.162109375 l 1
 205 -87.6123046875 l 1
 266.709960938 -98.83203125 l 1
 349.924804688 -67.9775390625 l 1
 375.169921875 15.2373046875 l 1
 375.169921875 45.1572265625 l 1
 318.134765625 2.1474609375 l 1
 251.75 -8.1376953125 l 1
 87.1904296875 60.1171875 l 1
 18 266.752929688 l 1
 84.384765625 474.322265625 l 1
 247.075195312 542.577148438 l 1
 327.485351562 522.942382812 l 1
 385.455078125 459.362304688 l 1
 385.455078125 520 l 5
 525.705078125 520 l 5
 525.705078125 17.107421875 l 1
 467.735351562 -149.322265625 l 1
 266.709960938 -217.577148438 l 1xcc
277.9296875 415.41796875 m 1
 202.1953125 379.887695312 l 1
 171.33984375 266.752929688 l 1
 200.325195312 154.552734375 l 1
 278.865234375 119.022460938 l 1
 357.405273438 154.552734375 l 1
 386.389648438 266.752929688 l 1
 354.599609375 379.887695312 l 1
 277.9296875 415.41796875 l 1
EndSplineSet
Validated: 1
Colour: ffff
EndChar

StartChar: h
Encoding: 104 104 71
Width: 583
Flags: HMW
HStem: 23.2485 19.6439G<70.5449 210.858 70.5449 70.5449 374.557 374.557 374.557 514.869> 405.836 117.863<309.077 326.85> 678.043 18.7084G<70.5449 210.858 210.858 210.858>
VStem: 70.5449 140.313<23.2485 287.972 448.865 696.751> 374.557 140.313<23.2485 317.906 317.906 321.647 23.2485 345.968>
LayerCount: 4
Back
SplineSet
206.110351562 0 m 1
 56.1103515625 0 l 1
 56.1103515625 720 l 1
 206.110351562 720 l 1
 206.110351562 455 l 1
 241.110351562 512 280.110351562 535 342.110351562 535 c 0
 486.110351562 535 531.110351562 443 531.110351562 319 c 2
 531.110351562 0 l 1
 381.110351562 0 l 1
 381.110351562 315 l 2
 381.110351562 375 359.110351562 409 301.110351562 409 c 0
 249.110351562 409 206.110351562 367 206.110351562 283 c 2
 206.110351562 0 l 1
EndSplineSet
Fore
SplineSet
55 0.025390625 m 1
 55 719.974609375 l 1
 204.600585938 719.974609375 l 1
 204.600585938 455.370117188 l 1
 263.504882812 519.884765625 l 1
 342.98046875 538.584960938 l 1
 495.385742188 475.940429688 l 1
 533.720703125 317.924804688 l 1
 533.720703125 0.025390625 l 1
 383.185546875 0.025390625 l 1
 383.185546875 314.184570312 l 1
 364.485351562 385.245117188 l 1
 301.840820312 410.490234375 l 1
 233.584960938 377.764648438 l 1
 204.600585938 281.459960938 l 1
 204.600585938 0.025390625 l 1
 55 0.025390625 l 1
EndSplineSet
Validated: 1
Colour: ffff
EndChar

StartChar: i
Encoding: 105 105 72
Width: 261
Flags: HMW
HStem: -0.164825 21.0095G<55.3049 205.372 55.3049 55.3049> 500.06 20.009G<55.3049 205.372 205.372 205.372> 584.098 136.061<55.3049 205.372 55.3049 205.372>
VStem: 55.3049 150.067<-0.164825 520.069 584.098 720.159>
LayerCount: 4
Back
SplineSet
205.338867188 584 m 1
 55.3388671875 584 l 1
 55.3388671875 720 l 1
 205.338867188 720 l 1
 205.338867188 584 l 1
205.338867188 0 m 1
 55.3388671875 0 l 1
 55.3388671875 520 l 1
 205.338867188 520 l 1
 205.338867188 0 l 1
EndSplineSet
Fore
SplineSet
50.076171875 619.098632812 m 1029,3,-1
164.559570312 572.095703125 m 5,11,-1
 97.0732421875 572.095703125 l 5,12,-1
 50.076171875 619.098632812 l 5,13,-1
 50 685.595703125 l 5,14,-1
 97.0048828125 732.58984375 l 5,15,-1
 164.5703125 732.58984375 l 5,17,-1
 211.567382812 685.586914062 l 5,18,-1
 211.643554688 619.098632812 l 5,19,-1
 164.559570312 572.095703125 l 5,11,-1
205.372070312 -0.1650390625 m 5,4,-1
 55.3046875 -0.1650390625 l 5,5,-1
 55.3046875 520.068359375 l 5,6,-1
 205.372070312 520.068359375 l 5,7,-1
 205.372070312 -0.1650390625 l 5,4,-1
EndSplineSet
Validated: 1
Colour: ffff
EndChar

StartChar: j
Encoding: 106 106 73
Width: 247
Flags: HMW
HStem: -208.713 131.636<16.1549 21.1411 -12.7651 83.9672> 499.328 19.9448G<55.0473 204.634 204.634 204.634> 583.096 135.625<55.0473 204.634 55.0473 204.634>
VStem: 55.0473 149.586<27.6338 519.273 583.096 718.721>
LayerCount: 4
Back
SplineSet
-61 -196 m 1
 -43 -72 l 1
 -26 -77 -18 -78 -8 -78 c 0
 50 -78 55 -26 55 27 c 2
 55 520 l 1
 205 520 l 1
 205 -28 l 2
 205 -134 140 -210 28 -210 c 0
 4 -210 -39 -205 -61 -196 c 1
205 584 m 1
 55 584 l 1
 55 720 l 1
 205 720 l 1
 205 584 l 1
EndSplineSet
Fore
SplineSet
-9.322265625 -78.59765625 m 5
 44.9072265625 -44.9375 l 5
 55.1923828125 28.927734375 l 5
 55.1923828125 519.802734375 l 5
 204.79296875 519.802734375 l 5
 204.79296875 -27.1728515625 l 5
 160.84765625 -160.877929688 l 5
 27.142578125 -212.302734375 l 5
 -18.6728515625 -209.497070312 l 5
 -67.29296875 -198.27734375 l 5
 -44.8525390625 -72.052734375 l 5
 -9.322265625 -78.59765625 l 5
49.388671875 632.961914062 m 1029
165.788085938 585.172851562 m 5
 97.1728515625 585.172851562 l 5
 49.388671875 632.961914062 l 5
 49.3134765625 700.571289062 l 5
 97.103515625 748.352539062 l 5
 165.797851562 748.352539062 l 5
 213.58203125 700.5625 l 5
 213.659179688 632.961914062 l 5
 165.788085938 585.172851562 l 5
EndSplineSet
Validated: 1
Colour: ffff
EndChar

StartChar: k
Encoding: 107 107 74
Width: 550
Flags: HMW
HStem: -0.163847 21.0095G<55.3298 55.3298 55.3298 205.397 381.476 381.476 381.476 546.551> 199.926 125.056<205.397 227.407 205.397 227.407> 387.01 133.06<476.019 524.541 493.527 509.534> 700.151 20.009G<55.3298 205.397 205.397 205.397>
VStem: 55.3298 150.067<-0.163847 199.926 324.982 720.16>
LayerCount: 4
Back
SplineSet
55.45703125 0 m 1
 55.45703125 720 l 1
 205.45703125 720 l 1
 205.45703125 325 l 1
 227.45703125 325 l 2
 257.45703125 325 277.45703125 328 303.45703125 359 c 0
 323.45703125 383 341.45703125 437 350.45703125 453 c 0
 382.45703125 512 422.45703125 520 493.45703125 520 c 2
 524.45703125 520 l 1
 509.45703125 387 l 1
 493.45703125 387 l 2
 458.45703125 387 450.45703125 376 434.45703125 342 c 0
 418.45703125 308 401.45703125 284 362.45703125 274 c 1
 362.45703125 270 l 1
 397.45703125 262 429.45703125 224 460.45703125 173 c 1
 546.45703125 0 l 1
 381.45703125 0 l 1
 312.45703125 149 l 2
 293.45703125 185 267.45703125 200 227.45703125 200 c 2
 205.45703125 200 l 1
 205.45703125 0 l 1
 55.45703125 0 l 1
EndSplineSet
Fore
SplineSet
362.614257812 271.849609375 m 1
 362.614257812 268.110351562 l 1
 417.779296875 235.384765625 l 1
 465.46484375 169 l 1
 521.564453125 55.865234375 l 1
 385.0546875 -8.650390625 l 1
 314.9296875 144.690429688 l 1
 279.399414062 183.959960938 l 1
 227.974609375 199.85546875 l 1
 205.534179688 199.85546875 l 1
 205.534179688 -0.2353515625 l 1
 55 -0.2353515625 l 1
 55.9345703125 720.650390625 l 1
 205.534179688 720.650390625 l 1
 205.534179688 325.14453125 l 1
 268.1796875 329.8203125 l 1
 305.579101562 358.8046875 l 1
 353.264648438 454.174804688 l 1
 411.234375 511.209960938 l 1
 530.9140625 522.4296875 l 1
 530.9140625 386.85546875 l 1
 461.724609375 377.504882812 l 1
 411.234375 297.094726562 l 1
 362.614257812 271.849609375 l 1
EndSplineSet
Validated: 1
Colour: ffff
EndChar

StartChar: l
Encoding: 108 108 75
Width: 261
Flags: HMW
HStem: -25.2 22.47G<50.8192 211.319 50.8192 50.8192> 739.85 21.4G<211.319 211.319>
VStem: 50.8192 160.5<-25.2 718.45 718.45 718.45>
LayerCount: 4
Back
SplineSet
206.034179688 0 m 1
 56.0341796875 0 l 1
 56.0341796875 695 l 1
 206.034179688 735 l 5
 206.034179688 0 l 1
EndSplineSet
Fore
SplineSet
206.068359375 -0.162109375 m 5
 55 -0.162109375 l 5
 55 720.162109375 l 5
 206.068359375 720.162109375 l 5
 206.068359375 -0.162109375 l 5
EndSplineSet
Colour: ffff
EndChar

StartChar: m
Encoding: 109 109 76
Width: 869
Flags: HMW
HStem: 17.4364 19.6439G<81.9568 222.27 81.9568 81.9568 362.584 362.584 362.584 502.896 642.274 642.274 642.274 782.587> 400.024 103.832<81.9568 321.425> 400.024 117.863<319.086 321.425 599.713 606.26>
VStem: 81.9568 140.313<17.4364 269.065> 362.584 140.313<17.4364 289.644 17.4364 313.965 17.4364 345.77> 642.274 140.313<17.4364 313.965 313.965 339.222>
LayerCount: 4
Back
SplineSet
208.610351562 0 m 1xdc
 58.6103515625 0 l 1
 58.6103515625 520 l 1
 199.610351562 520 l 1
 199.610351562 446 l 1
 235.610351562 510 277.610351562 535 346.610351562 535 c 0
 422.610351562 535 473.610351562 500 494.610351562 439 c 1
 527.610351562 508 579.610351562 535 644.610351562 535 c 0
 741.610351562 535 807.610351562 472 807.610351562 356 c 2
 807.610351562 0 l 1
 657.610351562 0 l 1
 657.610351562 317 l 2
 657.610351562 371 642.610351562 409 595.610351562 409 c 0
 544.610351562 409 508.610351562 366 508.610351562 291 c 2xdc
 508.610351562 0 l 1
 358.610351562 0 l 1
 358.610351562 317 l 2
 358.610351562 385 332.610351562 409 296.610351562 409 c 0xbc
 239.610351562 409 208.610351562 354 208.610351562 269 c 2
 208.610351562 0 l 1xdc
EndSplineSet
Fore
SplineSet
55 -0.21484375 m 1x9c
 55 520.580078125 l 1
 196.185546875 520.580078125 l 1
 196.185546875 445.780273438 l 1
 258.830078125 519.64453125 l 1
 346.720703125 540.21484375 l 1
 443.025390625 514.969726562 l 1
 494.450195312 439.235351562 l 1
 561.770507812 517.775390625 l 1
 650.595703125 540.21484375 l 1
 771.209960938 493.46484375 l 1
 814.220703125 357.889648438 l 1
 814.220703125 -0.21484375 l 1
 663.685546875 -0.21484375 l 1
 663.685546875 317.684570312 l 1
 649.66015625 385.940429688 l 1
 600.10546875 412.120117188 l 1
 536.525390625 380.330078125 l 1
 508.475585938 291.504882812 l 1
 508.475585938 -0.21484375 l 1
 358.875 -0.21484375 l 1
 358.875 317.684570312 l 1
 341.110351562 390.615234375 l 1
 295.294921875 412.120117188 l 1
 228.91015625 372.849609375 l 1
 205.53515625 269.065429688 l 1
 205.53515625 -0.21484375 l 1
 55 -0.21484375 l 1x9c
EndSplineSet
Validated: 1
Colour: ffff
EndChar

StartChar: n
Encoding: 110 110 77
Width: 588
Flags: HMW
HStem: -0.127484 21.0095G<56.2813 206.349 56.2813 56.2813 381.428 381.428 381.428 531.495> 409.057 111.05<56.2813 330.405> 409.057 126.057<311.396 330.405>
VStem: 56.2813 150.067<-0.127484 283> 381.428 150.067<-0.127484 315.015 315.015 319.016 -0.127484 345.028>
LayerCount: 4
Back
SplineSet
206.360351562 0 m 1xb8
 56.3603515625 0 l 1
 56.3603515625 520 l 1
 197.360351562 520 l 1
 197.360351562 445 l 1
 235.360351562 509 280.360351562 535 342.360351562 535 c 0
 486.360351562 535 531.360351562 443 531.360351562 319 c 2
 531.360351562 0 l 1
 381.360351562 0 l 1
 381.360351562 315 l 2
 381.360351562 375 359.360351562 409 301.360351562 409 c 0xd8
 249.360351562 409 206.360351562 367 206.360351562 283 c 2
 206.360351562 0 l 1xb8
EndSplineSet
Fore
SplineSet
55 -0.21484375 m 1x98
 55 519.64453125 l 1
 195.25 519.64453125 l 1
 195.25 444.844726562 l 1
 259.765625 518.709960938 l 1
 342.98046875 540.21484375 l 1
 495.385742188 477.5703125 l 1
 533.720703125 320.490234375 l 1
 533.720703125 -0.21484375 l 1
 383.185546875 -0.21484375 l 1
 383.185546875 315.815429688 l 1
 364.485351562 386.875 l 1
 301.840820312 412.120117188 l 1
 233.584960938 379.39453125 l 1
 204.600585938 283.08984375 l 1
 204.600585938 -0.21484375 l 1
 55 -0.21484375 l 1x98
EndSplineSet
Validated: 1
Colour: ffff
EndChar

StartChar: o
Encoding: 111 111 78
Width: 566
Flags: HMW
HStem: -15.1238 125.056<248.01 317.041 248.01 352.057> 410.068 125.056<248.01 317.041>
VStem: 24.4094 150.067<211.478 308.522 211.478 356.043> 390.575 150.067<211.478 308.522>
LayerCount: 4
Back
SplineSet
25.2021484375 260 m 0
 25.2021484375 452 144.202148438 535 283.202148438 535 c 0
 422.202148438 535 541.202148438 452 541.202148438 260 c 0
 541.202148438 68 422.202148438 -15 283.202148438 -15 c 0
 144.202148438 -15 25.2021484375 68 25.2021484375 260 c 0
175.202148438 260 m 0
 175.202148438 163 214.202148438 110 283.202148438 110 c 0
 352.202148438 110 391.202148438 163 391.202148438 260 c 0
 391.202148438 357 352.202148438 410 283.202148438 410 c 0
 214.202148438 410 175.202148438 357 175.202148438 260 c 0
EndSplineSet
Fore
SplineSet
283.669921875 540.5 m 5
 467.864257812 474.115234375 l 5
 546.404296875 260 l 5
 467.864257812 45.884765625 l 5
 283.669921875 -20.5 l 5
 98.5400390625 45.884765625 l 5
 20 260 l 5
 98.5400390625 474.115234375 l 5
 283.669921875 540.5 l 5
283.669921875 106.66015625 m 5
 365.014648438 145.9296875 l 5
 393.064453125 260 l 5
 365.014648438 373.134765625 l 5
 283.669921875 413.33984375 l 5
 201.389648438 373.134765625 l 5
 173.33984375 260 l 5
 201.389648438 145.9296875 l 5
 283.669921875 106.66015625 l 5
EndSplineSet
Validated: 1
Colour: ffff
EndChar

StartChar: p
Encoding: 112 112 79
Width: 582
Flags: HMW
HStem: -207.592 21.4296G<50.1663 203.236 50.1663 50.1663> -18.807 127.557<305.282 331.814 266.505 389.98> 414.888 112.25<50.1663 330.283> 414.888 127.557<301.71 330.283>
VStem: 50.1663 141.844<209.776 313.862 209.776 527.138> 407.328 153.069<209.776 313.862>
LayerCount: 4
Back
SplineSet
205.352539062 -200 m 1xdc
 55.3525390625 -200 l 1
 55.3525390625 520 l 1
 195.352539062 520 l 1
 195.352539062 459 l 1
 225.352539062 509 272.352539062 535 331.352539062 535 c 0
 455.352539062 535 555.352539062 442 555.352539062 260 c 0
 555.352539062 78 450.352539062 -15 326.352539062 -15 c 0
 284.352539062 -15 235.352539062 -2 205.352539062 45 c 1
 205.352539062 -200 l 1xdc
194.352539062 260 m 0
 194.352539062 158 235.352539062 110 299.352539062 110 c 0
 363.352539062 110 405.352539062 158 405.352539062 260 c 0xec
 405.352539062 362 359.352539062 410 300.352539062 410 c 0
 241.352539062 410 194.352539062 362 194.352539062 260 c 0
EndSplineSet
Fore
SplineSet
55 519.754882812 m 5xcc
 195.25 519.754882812 l 5
 195.25 458.98046875 l 5
 253.219726562 522.559570312 l 5
 333.629882812 542.1953125 l 5
 495.384765625 472.0703125 l 5
 562.705078125 261.6953125 l 5
 492.580078125 51.3203125 l 5
 328.955078125 -18.8046875 l 5
 262.5703125 -6.650390625 l 5
 205.53515625 44.775390625 l 5
 205.53515625 -200.1953125 l 5
 55 -200.1953125 l 5
 55 519.754882812 l 5xcc
300.905273438 108.35546875 m 5
 379.4453125 145.754882812 l 5
 409.365234375 261.6953125 l 5
 378.509765625 377.634765625 l 5
 301.83984375 415.03515625 l 5
 225.169921875 377.634765625 l 5
 193.379882812 261.6953125 l 5
 223.299804688 145.754882812 l 5
 300.905273438 108.35546875 l 5
EndSplineSet
Validated: 1
Colour: ffff
EndChar

StartChar: q
Encoding: 113 113 80
Width: 582
Flags: HMW
HStem: -200.173 21.0095G<377.4 527.468 377.4 377.4> -15.089 125.056<251.343 277.355> 410.102 110.05<252.844 527.468> 410.102 125.056<252.844 280.857 189.315 311.871>
VStem: 27.2421 150.067<209.011 311.057 209.011 351.075> 377.4 150.067<-200.173 44.938 44.938 44.938>
LayerCount: 4
Back
SplineSet
527.352539062 -200 m 1xec
 377.352539062 -200 l 1
 377.352539062 45 l 1
 347.352539062 -2 298.352539062 -15 256.352539062 -15 c 0
 132.352539062 -15 27.3525390625 78 27.3525390625 260 c 0
 27.3525390625 442 127.352539062 535 251.352539062 535 c 0xdc
 310.352539062 535 357.352539062 509 387.352539062 459 c 1
 387.352539062 520 l 1
 527.352539062 520 l 1
 527.352539062 -200 l 1xec
388.352539062 260 m 0
 388.352539062 362 341.352539062 410 282.352539062 410 c 0
 223.352539062 410 177.352539062 362 177.352539062 260 c 0
 177.352539062 158 219.352539062 110 283.352539062 110 c 0
 347.352539062 110 388.352539062 158 388.352539062 260 c 0
EndSplineSet
Fore
SplineSet
527.705078125 519.754882812 m 1xcc
 527.705078125 -200.1953125 l 1
 377.169921875 -200.1953125 l 1
 377.169921875 44.775390625 l 1
 320.134765625 -6.650390625 l 1
 253.75 -18.8046875 l 1
 90.125 51.3203125 l 1
 20 261.6953125 l 1
 87.3203125 472.0703125 l 1
 249.075195312 542.1953125 l 1
 329.485351562 522.559570312 l 1
 387.455078125 458.98046875 l 1
 387.455078125 519.754882812 l 1
 527.705078125 519.754882812 l 1xcc
281.799804688 108.35546875 m 1
 359.405273438 145.754882812 l 1
 389.325195312 261.6953125 l 1
 357.53515625 377.634765625 l 1
 280.865234375 415.03515625 l 1
 204.1953125 377.634765625 l 1
 173.33984375 261.6953125 l 1
 203.259765625 145.754882812 l 1
 281.799804688 108.35546875 l 1
EndSplineSet
Validated: 1
Colour: ffff
EndChar

StartChar: r
Encoding: 114 114 81
Width: 444
Flags: HMW
HStem: 12.3835 20.0367G<61.6539 204.774 61.6539 61.6539> 389.264 119.266<61.6539 342.645> 389.264 133.578<295.893 342.645>
VStem: 61.6539 143.12<12.3835 232.787>
LayerCount: 4
Back
SplineSet
204.8046875 0 m 1xb0
 54.8046875 0 l 1
 54.8046875 520 l 1
 195.8046875 520 l 1
 195.8046875 430 l 1
 228.8046875 500 262.8046875 535 337.8046875 535 c 0
 377.8046875 535 405.8046875 528 429.8046875 509 c 1
 407.8046875 375 l 1
 387.8046875 385 364.8046875 395 333.8046875 395 c 0xd0
 247.8046875 395 204.8046875 332 204.8046875 231 c 2
 204.8046875 0 l 1xb0
EndSplineSet
Fore
SplineSet
55 -0.21484375 m 5x90
 55 519.64453125 l 5
 196.184570312 519.64453125 l 5
 196.184570312 429.884765625 l 5
 252.28515625 514.03515625 l 5
 340.174804688 540.21484375 l 5
 434.609375 514.03515625 l 5
 373.834960938 392.485351562 l 5
 336.434570312 397.16015625 l 5
 237.32421875 352.280273438 l 5
 204.599609375 229.794921875 l 5
 204.599609375 -0.21484375 l 5
 55 -0.21484375 l 5x90
EndSplineSet
Validated: 1
Colour: ffff
EndChar

StartChar: s
Encoding: 115 115 82
Width: 469
Flags: HMW
HStem: -2.38643 109.725<204.772 251.047 204.772 287.782> 412.66 109.725<206.204 243.415>
VStem: 33.9836 120.22<359.706 384.513 359.706 420.77> 310.681 124.037<136.917 168.403>
LayerCount: 4
Back
SplineSet
11.33984375 150 m 1
 136.33984375 171 l 1
 142.33984375 126 175.33984375 100 231.33984375 100 c 0
 272.33984375 100 314.33984375 110 314.33984375 152 c 0
 314.33984375 176 295.33984375 188 274.33984375 193 c 2
 151.33984375 220 l 2
 83.33984375 235 24.33984375 283 24.33984375 369 c 0
 24.33984375 488 123.33984375 535 230.33984375 535 c 0
 354.33984375 535 429.33984375 464 432.33984375 385 c 1
 306.33984375 363 l 1
 299.33984375 406 262.33984375 420 225.33984375 420 c 0
 184.33984375 420 150.33984375 408 150.33984375 373 c 0
 150.33984375 356 162.33984375 342 188.33984375 337 c 2
 307.33984375 312 l 2
 364.33984375 300 444.33984375 263 444.33984375 156 c 0
 444.33984375 41 352.33984375 -15 228.33984375 -15 c 0
 101.33984375 -15 21.33984375 55 11.33984375 150 c 1
EndSplineSet
Fore
SplineSet
134.069335938 169.3046875 m 5
 163.989257812 116.009765625 l 5
 231.309570312 97.3095703125 l 5
 289.279296875 107.594726562 l 5
 316.39453125 149.669921875 l 5
 303.3046875 178.655273438 l 5
 275.254882812 191.745117188 l 5
 149.96484375 219.794921875 l 5
 59.26953125 268.415039062 l 5
 20 371.264648438 l 5
 84.5146484375 501.23046875 l 5
 230.375 540.5 l 5
 379.974609375 494.684570312 l 5
 411.764648438 432.974609375 l 5
 307.979492188 364.719726562 l 5
 278.059570312 410.53515625 l 5
 225.69921875 423.625 l 5
 171.469726562 412.405273438 l 5
 149.029296875 375.940429688 l 5
 158.379882812 352.565429688 l 5
 187.364257812 338.540039062 l 5
 308.9140625 313.294921875 l 5
 400.544921875 270.28515625 l 5
 449.1640625 154.344726562 l 5
 386.51953125 22.509765625 l 5
 228.504882812 -20.5 l 5
 77.0341796875 29.0546875 l 5
 28.4140625 110.400390625 l 5
 134.069335938 169.3046875 l 5
EndSplineSet
Validated: 1
Colour: ffff
EndChar

StartChar: t
Encoding: 116 116 83
Width: 395
Flags: HMW
HStem: 5.4325 124.037<191.621 291.327> 397.58 113.542<27.9876 98.5932 27.9876 98.5932 241.712 336.172> 635.158 19.0826G<241.712 241.712>
VStem: 98.5932 143.12<181.469 202.937 202.937 397.58 511.121 613.213 613.213 613.213> 98.5932 237.578<160.002 511.121 397.58 511.121 397.58 613.213 397.58 613.213>
LayerCount: 4
Back
SplineSet
332.235351562 126 m 1xf0
 341.235351562 7 l 1
 321.235351562 -4 265.235351562 -10 246.235351562 -10 c 0
 137.235351562 -10 94.2353515625 50 94.2353515625 152 c 2
 94.2353515625 401 l 1
 20.2353515625 401 l 1xf0
 20.2353515625 520 l 5
 94.2353515625 520 l 5xe8
 94.2353515625 627 l 1
 244.235351562 670 l 1
 244.235351562 520 l 5
 343.235351562 520 l 5
 343.235351562 401 l 1
 244.235351562 401 l 1
 244.235351562 197 l 2
 244.235351562 152 244.235351562 120 291.235351562 120 c 0
 301.235351562 120 316.235351562 121 332.235351562 126 c 1xf0
EndSplineSet
Fore
SplineSet
358.470703125 3.45703125 m 5xe0
 246.270507812 -17.1123046875 l 5
 127.525390625 26.83203125 l 5
 93.865234375 148.3828125 l 5
 93.865234375 400.83203125 l 5
 20 400.83203125 l 5
 20 520.512695312 l 5
 93.865234375 520.512695312 l 5
 93.865234375 670.112304688 l 5
 244.400390625 670.112304688 l 5
 244.400390625 520.512695312 l 5
 343.510742188 520.512695312 l 5
 343.510742188 400.83203125 l 5
 244.400390625 400.83203125 l 5
 244.400390625 194.197265625 l 5
 250.010742188 138.09765625 l 5
 292.084960938 115.657226562 l 5
 334.16015625 122.202148438 l 5
 358.470703125 3.45703125 l 5xe0
EndSplineSet
Validated: 1
Colour: ffff
EndChar

StartChar: u
Encoding: 117 117 84
Width: 584
Flags: HMW
HStem: 2.11355 117.863<255.685 273.457> 16.1449 103.832<255.685 511.99 255.685 380.096> 483.855 18.7084G<67.6648 207.978 207.978 207.978 371.677 511.99 511.99 511.99>
VStem: 67.6648 140.313<204.164 207.906 207.906 502.563> 371.677 140.313<237.839 502.563 16.1449 502.563>
LayerCount: 4
Back
SplineSet
377.327148438 520 m 1xb8
 527.327148438 520 l 1
 527.327148438 0 l 1
 386.327148438 0 l 1
 386.327148438 75 l 1
 348.327148438 11 303.327148438 -15 241.327148438 -15 c 0
 97.3271484375 -15 52.3271484375 77 52.3271484375 201 c 2
 52.3271484375 520 l 1
 202.327148438 520 l 1
 202.327148438 205 l 2
 202.327148438 145 224.327148438 111 282.327148438 111 c 0x78
 334.327148438 111 377.327148438 153 377.327148438 237 c 2
 377.327148438 520 l 1xb8
EndSplineSet
Fore
SplineSet
529.654296875 520.21484375 m 5x38
 529.654296875 -0.580078125 l 5
 388.469726562 -0.580078125 l 5
 388.469726562 75.1552734375 l 5
 323.01953125 1.2900390625 l 5
 240.739257812 -20.21484375 l 5
 88.3349609375 42.4296875 l 5
 50 200.4453125 l 5
 50 520.21484375 l 5
 200.534179688 520.21484375 l 5
 200.534179688 204.184570312 l 5
 219.234375 133.125 l 5
 281.879882812 107.879882812 l 5
 350.134765625 140.60546875 l 5
 379.120117188 236.91015625 l 5
 379.120117188 520.21484375 l 5
 529.654296875 520.21484375 l 5x38
EndSplineSet
Validated: 1
Colour: ffff
EndChar

StartChar: v
Encoding: 118 118 85
Width: 541
Flags: HMW
HStem: -0.118903 21.0095G<207.023 339.082 207.023 207.023> 500.106 20.009G<-5.07271 146.996 146.996 146.996 400.109 550.177 550.177 550.177>
LayerCount: 4
Back
SplineSet
337.1171875 0 m 1
 205.1171875 0 l 1
 -6.8828125 520 l 1
 145.1171875 520 l 1
 270.1171875 184 l 1
 398.1171875 520 l 1
 548.1171875 520 l 1
 337.1171875 0 l 1
EndSplineSet
Fore
SplineSet
337.147460938 -0.1181640625 m 5
 205.087890625 -0.1181640625 l 5
 10 479.096679688 l 5
 141.80859375 528.368164062 l 5
 270.1171875 183.963867188 l 5
 401.42578125 528.368164062 l 5
 531.234375 478.096679688 l 5
 337.147460938 -0.1181640625 l 5
EndSplineSet
Validated: 1
Colour: ffff
EndChar

StartChar: w
Encoding: 119 119 86
Width: 775
Flags: HMW
HStem: -0.1188 21.0095G<159.067 292.127 159.067 159.067 480.212 480.212 480.212 611.271> 500.106 20.009G<1.99642 153.064 153.064 153.064 323.141 454.2 454.2 454.2 628.278 773.343 773.343 773.343>
LayerCount: 4
Back
SplineSet
292.169921875 0 m 1
 159.169921875 0 l 1
 2.169921875 520 l 1
 153.169921875 520 l 1
 236.169921875 168 l 1
 323.169921875 520 l 1
 454.169921875 520 l 1
 539.169921875 179 l 1
 628.169921875 520 l 1
 773.169921875 520 l 1
 611.169921875 0 l 1
 480.169921875 0 l 1
 390.169921875 349 l 1
 292.169921875 0 l 1
EndSplineSet
Fore
SplineSet
292.126953125 -0.119140625 m 1
 159.067382812 -0.119140625 l 1
 10 495.103515625 l 1
 151.063476562 528.119140625 l 1
 236.1015625 167.95703125 l 1
 323.141601562 520.115234375 l 1
 454.200195312 520.115234375 l 1
 539.23828125 178.961914062 l 1
 630.278320312 528.119140625 l 1
 765.33984375 494.103515625 l 1
 611.270507812 -0.119140625 l 1
 480.2109375 -0.119140625 l 1
 390.170898438 349.038085938 l 1
 292.126953125 -0.119140625 l 1
EndSplineSet
Validated: 1
Colour: ffff
EndChar

StartChar: x
Encoding: 120 120 87
Width: 485
Flags: HMW
HStem: -18.2 22.47G<-47.9025 136.138 -47.9025 -47.9025 344.788 344.788 344.788 535.248> 516.8 21.4G<-35.0625 158.608 158.608 158.608 339.438 520.268 520.268 520.268>
LayerCount: 4
Back
SplineSet
143.102539062 0 m 1
 -28.8974609375 0 l 1
 151.102539062 266 l 1
 -16.8974609375 520 l 1
 164.102539062 520 l 1
 248.102539062 372 l 1
 333.102539062 520 l 1
 502.102539062 520 l 1
 341.102539062 269 l 1
 516.102539062 0 l 1
 338.102539062 0 l 1
 240.102539062 160 l 1
 143.102539062 0 l 1
EndSplineSet
Fore
SplineSet
138.0546875 -8.1201171875 m 5
 15 64.912109375 l 5
 151.061523438 266.002929688 l 5
 27.005859375 453.086914062 l 5
 159.565429688 528.120117188 l 5
 248.104492188 372.049804688 l 5
 337.645507812 528.120117188 l 5
 462.201171875 458.08984375 l 5
 341.146484375 269.00390625 l 5
 470.205078125 69.9150390625 l 5
 343.147460938 -8.1201171875 l 5
 240.1015625 159.955078125 l 5
 138.0546875 -8.1201171875 l 5
EndSplineSet
Validated: 1
Colour: ffff
EndChar

StartChar: y
Encoding: 121 121 88
Width: 536
Flags: HMW
HStem: -210.165 134.06<116.491 128.497 91.4801 182.521> 500.154 20.009G<-3.06238 150.006 150.006 150.006 389.114 537.181 537.181 537.181>
LayerCount: 4
Back
SplineSet
58.0595703125 -195 m 1
 48.0595703125 -62 l 1
 65.0595703125 -69 74.0595703125 -76 109.059570312 -76 c 0
 148.059570312 -76 174.059570312 -62 194.059570312 -9 c 2
 199.059570312 5 l 1
 -2.9404296875 520 l 1
 150.059570312 520 l 1
 270.059570312 177 l 1
 389.059570312 520 l 1
 537.059570312 520 l 1
 334.059570312 -29 l 2
 290.059570312 -149 230.059570312 -210 135.059570312 -210 c 0
 98.0595703125 -210 77.0595703125 -202 58.0595703125 -195 c 1
EndSplineSet
Fore
SplineSet
105.369140625 -81.294921875 m 5
 156.794921875 -67.26953125 l 5
 200.739257812 1.919921875 l 5
 10 488.120117188 l 5
 144.639648438 535.8046875 l 5
 269.9296875 177.700195312 l 5
 394.284179688 535.8046875 l 5
 526.119140625 489.990234375 l 5
 333.509765625 -32.6748046875 l 5
 253.099609375 -171.0546875 l 5
 132.484375 -217.8046875 l 5
 14.6748046875 -188.8203125 l 5
 43.6591796875 -66.3349609375 l 5
 105.369140625 -81.294921875 l 5
EndSplineSet
Validated: 1
Colour: ffff
EndChar

StartChar: z
Encoding: 122 122 89
Width: 504
Flags: HMW
HStem: -18.2 133.75<208.228 484.288 19.9077 19.9077> 404.45 133.75<40.2377 284.198 40.2377 477.868 40.2377 477.868>
LayerCount: 4
Back
SplineSet
469.09765625 0 m 1
 35.09765625 0 l 1
 35.09765625 125 l 1
 282.09765625 395 l 1
 54.09765625 395 l 1
 54.09765625 520 l 1
 463.09765625 520 l 1
 463.09765625 395 l 1
 211.09765625 125 l 1
 469.09765625 125 l 1
 469.09765625 0 l 1
EndSplineSet
Fore
SplineSet
469.1953125 -0.1171875 m 5
 35 -0.1171875 l 5
 35 124.939453125 l 5
 282.110351562 395.060546875 l 5
 54.0078125 395.060546875 l 5
 54.0078125 520.1171875 l 5
 463.192382812 520.1171875 l 5
 463.192382812 395.060546875 l 5
 211.079101562 124.939453125 l 5
 469.1953125 124.939453125 l 5
 469.1953125 -0.1171875 l 5
EndSplineSet
Validated: 1
Colour: ffff
EndChar

StartChar: A
Encoding: 65 65 90
Width: 692
Flags: W
HStem: -8.24609 21G<100.705 158.305 531.85 590.233> 129.898 132.06<250.107 440.192> 700.163 20G<269.174 428.952>
LayerCount: 4
Back
SplineSet
277.150390625 720 m 1
 421.150390625 720 l 1
 701.150390625 0 l 1
 536.150390625 0 l 1
 488.150390625 130 l 1
 201.150390625 130 l 1
 154.150390625 0 l 1
 -8.849609375 0 l 1
 277.150390625 720 l 1
  Spiro
    277.15 720 v
    421.15 720 v
    701.15 0 v
    536.15 0 v
    488.15 130 v
    201.15 130 v
    154.15 0 v
    -8.84961 0 v
    0 0 z
  EndSpiro
345.150390625 521 m 1
 250.150390625 262 l 1
 440.150390625 262 l 1
 345.150390625 521 l 1
  Spiro
    345.15 521 v
    250.15 262 v
    440.15 262 v
    0 0 z
  EndSpiro
EndSplineSet
Fore
SplineSet
277.119140625 720.163085938 m 5
 421.184570312 720.163085938 l 5
 682.30078125 47.8623046875 l 5
 539.237304688 -8.24609375 l 5
 488.21484375 129.8984375 l 5
 201.084960938 129.8984375 l 5
 151.0625 -8.24609375 l 5
 10 47.7783203125 l 5
 277.119140625 720.163085938 l 5
  Spiro
    277.119 720.164 v
    421.184 720.164 v
    682.301 47.8614 v
    539.237 -8.24681 v
    488.214 129.898 v
    201.085 129.898 v
    151.062 -8.24681 v
    9.99919 47.7784 v
    0 0 z
  EndSpiro
345.149414062 521.07421875 m 5
 250.107421875 261.958007812 l 5
 440.192382812 261.958007812 l 5
 345.149414062 521.07421875 l 5
  Spiro
    345.15 521.074 v
    250.107 261.958 v
    440.192 261.958 v
    0 0 z
  EndSpiro
EndSplineSet
Validated: 1
Colour: ffff
EndChar

StartChar: B
Encoding: 66 66 91
Width: 711
Flags: HMW
HStem: 16.515 119.266<231.9 373.111 373.111 382.652> 307.524 119.266<231.9 354.982 231.9 354.982 354.982 360.707> 584.221 119.266<231.9 231.9 231.9 343.532>
VStem: 84.009 147.89<135.78 307.524 426.79 584.221> 462.799 150.753<492.625 541.285> 487.606 153.615<187.304 246.937>
LayerCount: 4
Back
SplineSet
382.39453125 0 m 2xf4
 69.39453125 0 l 1
 69.39453125 720 l 1
 372.39453125 720 l 2
 518.39453125 720 624.39453125 661 624.39453125 533 c 0
 624.39453125 465 589.39453125 402 510.39453125 376 c 1
 596.39453125 355 653.39453125 293 653.39453125 208 c 0
 653.39453125 56 545.39453125 0 382.39453125 0 c 2xf4
224.39453125 595 m 1xf8
 224.39453125 430 l 1xf4
 353.39453125 430 l 2
 426.39453125 430 466.39453125 463 466.39453125 521 c 0
 466.39453125 579 415.39453125 595 341.39453125 595 c 2
 224.39453125 595 l 1xf8
224.39453125 305 m 1
 224.39453125 125 l 1
 372.39453125 125 l 2xf8
 450.39453125 125 492.39453125 150 492.39453125 208 c 0
 492.39453125 275 442.39453125 305 359.39453125 305 c 2
 224.39453125 305 l 1
EndSplineSet
Fore
SplineSet
70 0.025390625 m 5xf0
 70 719.974609375 l 5
 372.939453125 719.974609375 l 5
 560.875 680.705078125 l 5
 633.8046875 536.71484375 l 5
 605.754882812 440.41015625 l 5
 511.319335938 375.89453125 l 5
 622.584960938 315.120117188 l 5
 662.7890625 204.790039062 l 5
 587.0546875 40.23046875 l 5
 383.224609375 0.025390625 l 5
 70 0.025390625 l 5xf0
225.209960938 430.125 m 5
 354.239257812 430.125 l 5
 442.129882812 455.370117188 l 5
 472.049804688 524.559570312 l 5
 436.51953125 584.400390625 l 5
 342.084960938 594.684570312 l 5
 225.209960938 594.684570312 l 5
 225.209960938 430.125 l 5
225.209960938 124.379882812 m 5
 372.939453125 125.315429688 l 5
 464.569335938 140.275390625 l 5
 498.229492188 204.790039062 l 5
 462.69921875 279.58984375 l 5
 360.784179688 304.834960938 l 5
 225.209960938 304.834960938 l 5
 225.209960938 124.379882812 l 5
EndSplineSet
Validated: 1
Colour: ffff
EndChar

StartChar: C
Encoding: 67 67 92
Width: 720
Flags: HMW
HStem: 9.20904 130.959<341.056 428.986 341.056 473.418> 579.816 130.959<336.379 424.308>
VStem: 66.978 154.344<291.239 428.746 291.239 461.485>
LayerCount: 4
Back
SplineSet
205 360 m 0
 205 213 278 125 388 125 c 0
 466 125 519 165 544 250 c 1
 701 206 l 1
 657 68 561 -15 388 -15 c 0
 168 -15 40 143 40 360 c 0
 40 577 163 735 383 735 c 0
 546 735 665 657 701 513 c 1
 544 469 l 1
 523 559 461 595 383 595 c 0
 273 595 205 507 205 360 c 0
EndSplineSet
Fore
SplineSet
387.799804688 120.639648438 m 5
 487.844726562 151.495117188 l 5
 546.75 247.799804688 l 5
 680.455078125 162.71484375 l 5
 596.3046875 37.4248046875 l 5
 387.799804688 -22.4150390625 l 5
 126 86.044921875 l 5
 32.5 360 l 5
 123.1953125 633.955078125 l 5
 382.190429688 742.415039062 l 5
 593.5 684.4453125 l 5
 680.455078125 554.48046875 l 5
 546.75 471.264648438 l 5
 485.974609375 570.375 l 5
 404.629882812 597.490234375 l 5
 256.5 545 l 5
 200.799804688 360 l 5
 252.224609375 184.219726562 l 5
 387.799804688 120.639648438 l 5
EndSplineSet
Validated: 1
Colour: ffff
EndChar

StartChar: D
Encoding: 68 68 93
Width: 714
Flags: HMW
HStem: -0.162935 144.065<229.66 294.689 294.689 319.701> 575.096 145.065<229.66 229.66 229.66 291.688>
VStem: 69.5882 160.072<143.902 575.096 143.902 720.161 143.902 720.161> 510.787 163.073<279.463 455.042>
LayerCount: 4
Back
SplineSet
319.712890625 0 m 2
 69.712890625 0 l 1
 69.712890625 720 l 1
 308.712890625 720 l 2
 550.712890625 720 673.712890625 594 673.712890625 362 c 0
 673.712890625 137 561.712890625 0 319.712890625 0 c 2
229.712890625 575 m 1
 229.712890625 144 l 1
 294.712890625 144 l 2
 430.712890625 144 510.712890625 196 510.712890625 363 c 0
 510.712890625 547 409.712890625 575 291.712890625 575 c 2
 229.712890625 575 l 1
EndSplineSet
Fore
SplineSet
70 0.025390625 m 5
 70 719.974609375 l 5
 291.595703125 719.974609375 l 5
 588.92578125 633.01953125 l 5
 682.42578125 361.870117188 l 5
 594.53515625 90.7197265625 l 5
 319.645507812 0.025390625 l 5
 70 0.025390625 l 5
229.885742188 144.014648438 m 5
 294.400390625 144.014648438 l 5
 458.025390625 187.025390625 l 5
 515.995117188 362.8046875 l 5
 449.610351562 541.389648438 l 5
 291.595703125 575.049804688 l 5
 229.885742188 575.049804688 l 5
 229.885742188 144.014648438 l 5
EndSplineSet
Validated: 1
Colour: ffff
EndChar

StartChar: E
Encoding: 69 69 94
Width: 667
Flags: HMW
HStem: 23.2485 135.636<237.128 589.781 237.128 589.781> 299.198 135.636<237.128 533.656 237.128 533.656> 561.115 135.636<237.128 580.427 237.128 237.128>
VStem: 87.4606 149.667<158.885 299.198 434.834 561.115>
LayerCount: 4
Back
SplineSet
607.12109375 0 m 5
 70.12109375 0 l 5
 70.12109375 720 l 5
 597.12109375 720 l 5
 597.12109375 575 l 5
 230.12109375 575 l 5
 230.12109375 440 l 5
 547.12109375 440 l 5
 547.12109375 295 l 5
 230.12109375 295 l 5
 230.12109375 145 l 5
 607.12109375 145 l 5
 607.12109375 0 l 5
EndSplineSet
Fore
SplineSet
607.2421875 -0.162109375 m 5
 70 -0.162109375 l 5
 70 720.162109375 l 5
 597.237304688 720.162109375 l 5
 597.237304688 575.096679688 l 5
 230.072265625 575.096679688 l 5
 230.072265625 440.03515625 l 5
 547.21484375 440.03515625 l 5
 547.21484375 294.970703125 l 5
 230.072265625 294.970703125 l 5
 230.072265625 144.903320312 l 5
 607.2421875 144.903320312 l 5
 607.2421875 -0.162109375 l 5
EndSplineSet
Colour: ffff
EndChar

StartChar: F
Encoding: 70 70 95
Width: 637
Flags: HMW
HStem: -0.162 21.0095G<69.9999 230.072 69.9999 69.9999> 294.971 145.065<230.072 507.196 230.072 507.196> 575.097 145.065<230.072 587.232 230.072 230.072>
VStem: 69.9999 160.072<-0.162 294.971 440.036 575.097>
LayerCount: 4
Back
SplineSet
230.116210938 0 m 1
 70.1162109375 0 l 1
 70.1162109375 720 l 1
 587.116210938 720 l 1
 587.116210938 575 l 1
 230.116210938 575 l 1
 230.116210938 440 l 1
 507.116210938 440 l 1
 507.116210938 295 l 1
 230.116210938 295 l 1
 230.116210938 0 l 1
EndSplineSet
Fore
SplineSet
230.072265625 -0.162109375 m 1
 70 -0.162109375 l 1
 70 720.162109375 l 1
 587.232421875 720.162109375 l 1
 587.232421875 575.096679688 l 1
 230.072265625 575.096679688 l 1
 230.072265625 440.03515625 l 1
 507.196289062 440.03515625 l 1
 507.196289062 294.970703125 l 1
 230.072265625 294.970703125 l 1
 230.072265625 -0.162109375 l 1
EndSplineSet
Validated: 1
Colour: ffff
EndChar

StartChar: G
Encoding: 71 71 96
Width: 759
Flags: HMW
HStem: 2.197 133.578<339.02 433.002 339.02 457.809> 265.536 118.312<393.405 534.616 393.405 684.415> 584.216 133.578<334.249 428.708>
VStem: 54.6893 157.432<289.867 430.124 289.867 463.519> 534.616 149.798<175.848 265.536 265.536 265.536>
LayerCount: 4
Back
SplineSet
204.762695312 360 m 0
 204.762695312 213 277.762695312 125 397.762695312 125 c 0
 474.762695312 125 513.762695312 143 542.762695312 167 c 1
 542.762695312 261 l 1
 394.762695312 261 l 1
 394.762695312 385 l 1
 699.762695312 385 l 1
 699.762695312 112 l 1
 645.762695312 32 526.762695312 -15 397.762695312 -15 c 0
 167.762695312 -15 39.7626953125 143 39.7626953125 360 c 0
 39.7626953125 577 162.762695312 735 392.762695312 735 c 0
 555.762695312 735 664.762695312 667 700.762695312 513 c 1
 543.762695312 469 l 1
 522.762695312 549 470.762695312 595 392.762695312 595 c 0
 272.762695312 595 204.762695312 507 204.762695312 360 c 0
EndSplineSet
Fore
SplineSet
396.584960938 120.639648438 m 1
 542.4453125 183.28515625 l 1
 542.4453125 260.889648438 l 1
 394.71484375 260.889648438 l 1
 394.71484375 385.245117188 l 1
 699.525390625 385.245117188 l 1
 699.525390625 112.224609375 l 1
 396.584960938 -22.4150390625 l 1
 125.435546875 86.044921875 l 1
 31 360 l 1
 123.565429688 634.889648438 l 1
 390.975585938 742.415039062 l 1
 596.674804688 688.184570312 l 1
 682.6953125 550.740234375 l 1
 545.25 471.264648438 l 1
 490.084960938 566.634765625 l 1
 390.975585938 600.294921875 l 1
 248.85546875 536.71484375 l 1
 199.299804688 360 l 1
 251.66015625 184.219726562 l 1
 396.584960938 120.639648438 l 1
EndSplineSet
Validated: 1
Colour: ffff
EndChar

StartChar: H
Encoding: 72 72 97
Width: 800
Flags: HMW
HStem: -25.2 22.47G<69.9997 241.2 69.9997 69.9997 558.99 558.99 558.99 730.19> 290.45 155.15<241.2 558.99 241.2 558.99> 723.8 21.4G<69.9997 241.2 241.2 241.2 558.99 730.19 730.19 730.19>
VStem: 69.9997 171.2<-25.2 290.45 445.6 745.2> 558.99 171.2<-25.2 290.45 290.45 290.45 445.6 745.2 -25.2 745.2>
LayerCount: 4
Back
SplineSet
251.594726562 0 m 1
 91.5947265625 0 l 1
 91.5947265625 720 l 1
 251.594726562 720 l 1
 251.594726562 440 l 1
 548.594726562 440 l 1
 548.594726562 720 l 1
 708.594726562 720 l 1
 708.594726562 0 l 1
 548.594726562 0 l 1
 548.594726562 295 l 1
 251.594726562 295 l 1
 251.594726562 0 l 1
EndSplineSet
Fore
SplineSet
241.200195312 -25.2001953125 m 5
 70 -25.2001953125 l 5
 70 745.200195312 l 5
 241.200195312 745.200195312 l 5
 241.200195312 445.599609375 l 5
 558.989257812 445.599609375 l 5
 558.989257812 745.200195312 l 5
 730.189453125 745.200195312 l 5
 730.189453125 -25.2001953125 l 5
 558.989257812 -25.2001953125 l 5
 558.989257812 290.450195312 l 5
 241.200195312 290.450195312 l 5
 241.200195312 -25.2001953125 l 5
EndSplineSet
Validated: 1
Colour: ffff
EndChar

StartChar: I
Encoding: 73 73 98
Width: 300
Flags: HMW
HStem: -0.162 21.0095G<69.9992 230.071 69.9992 69.9992> 700.153 20.009G<69.9992 230.071 230.071 230.071>
VStem: 69.9992 160.072<-0.162 720.162>
LayerCount: 4
Back
SplineSet
230.03515625 0 m 1
 70.03515625 0 l 1
 70.03515625 720 l 1
 230.03515625 720 l 1
 230.03515625 0 l 1
EndSplineSet
Fore
SplineSet
230.0703125 -0.162109375 m 1
 70 -0.162109375 l 1
 70 720.162109375 l 1
 230.0703125 720.162109375 l 1
 230.0703125 -0.162109375 l 1
EndSplineSet
Validated: 1
Colour: ffff
EndChar

StartChar: J
Encoding: 74 74 99
Width: 572
Flags: HMW
HStem: 8.50685 130.959<228.24 294.186 228.24 323.184> 677.333 18.7084G<337.216 487.818 487.818 487.818>
VStem: 37.8808 142.184<231.137 251.716> 337.216 150.602<268.554 696.041>
LayerCount: 4
Back
SplineSet
21.099609375 223 m 1
 173.099609375 245 l 1
 175.099609375 172 192.099609375 125 257.099609375 125 c 0
 333.099609375 125 341.099609375 180 341.099609375 263 c 2
 341.099609375 720 l 1
 502.099609375 720 l 1
 502.099609375 238 l 2
 502.099609375 51 395.099609375 -15 257.099609375 -15 c 0
 126.099609375 -15 18.099609375 50 21.099609375 223 c 1
EndSplineSet
Fore
SplineSet
168.729492188 237.735351562 m 5
 187.4296875 150.780273438 l 5
 252.879882812 118.0546875 l 5
 323.939453125 155.455078125 l 5
 341.705078125 262.98046875 l 5
 341.705078125 720.1953125 l 5
 502.524414062 720.1953125 l 5
 502.19921875 238.669921875 l 5
 427.724609375 33.9052734375 l 5
 252.879882812 -22.1953125 l 5
 84.580078125 32.03515625 l 5
 21 205.9453125 l 5
 168.729492188 237.735351562 l 5
EndSplineSet
Validated: 1
Colour: ffff
EndChar

StartChar: K
Encoding: 75 75 100
Width: 674
Flags: HMW
HStem: -25.1949 22.47G<50.0389 221.239 50.0389 50.0389 515.489 515.489 515.489 724.139> 723.805 21.4G<50.0389 221.239 221.239 221.239 507.999 713.439 713.439 713.439>
VStem: 50.0389 171.2<-25.1949 208.065 407.085 745.205>
LayerCount: 4
Back
SplineSet
230.12890625 0 m 1
 70.12890625 0 l 1
 70.12890625 720 l 1
 230.12890625 720 l 1
 230.12890625 404 l 1
 498.12890625 720 l 1
 690.12890625 720 l 1
 411.12890625 415 l 1
 700.12890625 0 l 1
 505.12890625 0 l 1
 308.12890625 304 l 1
 230.12890625 218 l 1
 230.12890625 0 l 1
EndSplineSet
Fore
SplineSet
230.072265625 -0.162109375 m 5
 70 -0.162109375 l 5
 70 720.162109375 l 5
 230.072265625 720.162109375 l 5
 230.072265625 404.01953125 l 5
 505.196289062 728.103515625 l 5
 613.244140625 636.124023438 l 5
 411.153320312 415.025390625 l 5
 644.2578125 79.8740234375 l 5
 510.197265625 -8.2490234375 l 5
 308.107421875 303.974609375 l 5
 230.072265625 217.936523438 l 5
 230.072265625 -0.162109375 l 5
EndSplineSet
Validated: 1
Colour: ffff
EndChar

StartChar: L
Encoding: 76 76 101
Width: 638
Flags: HMW
HStem: -0.162 145.065<230.072 608.242 230.072 608.242> 700.153 20.009G<70 230.072 230.072 230.072>
VStem: 70 160.072<144.903 720.162 144.903 720.162 144.903 720.162>
LayerCount: 4
Back
SplineSet
608.12109375 0 m 1
 70.12109375 0 l 1
 70.12109375 720 l 1
 230.12109375 720 l 1
 230.12109375 145 l 1
 608.12109375 145 l 1
 608.12109375 0 l 1
EndSplineSet
Fore
SplineSet
608.2421875 -0.162109375 m 5
 70 -0.162109375 l 5
 70 720.162109375 l 5
 230.072265625 720.162109375 l 5
 230.072265625 144.903320312 l 5
 608.2421875 144.903320312 l 5
 608.2421875 -0.162109375 l 5
EndSplineSet
Validated: 1
Colour: ffff
EndChar

StartChar: M
Encoding: 77 77 102
Width: 923
Flags: HMW
HStem: -25.2 22.47G<42.7718 213.972 42.7718 42.7718 389.452 389.452 389.452 533.902 709.382 709.382 709.382 880.582> 723.8 21.4G<42.7718 256.772 256.772 256.772 666.582 880.582 880.582 880.582>
VStem: 42.7718 171.2<-25.2 448.81> 709.382 171.2<-25.2 448.81 448.81 448.81>
LayerCount: 4
Back
SplineSet
230.176757812 0 m 1
 70.1767578125 0 l 1
 70.1767578125 720 l 1
 270.176757812 720 l 1
 462.176757812 193 l 1
 653.176757812 720 l 1
 853.176757812 720 l 1
 853.176757812 0 l 1
 693.176757812 0 l 1
 693.176757812 443 l 1
 529.176757812 0 l 1
 394.176757812 0 l 1
 230.176757812 443 l 1
 230.176757812 0 l 1
EndSplineSet
Fore
SplineSet
230.072265625 -0.162109375 m 5
 70 -0.162109375 l 5
 70 720.162109375 l 5
 270.08984375 720.162109375 l 5
 462.176757812 192.924804688 l 5
 653.263671875 720.162109375 l 5
 853.353515625 720.162109375 l 5
 853.353515625 -0.162109375 l 5
 693.28125 -0.162109375 l 5
 693.28125 443.037109375 l 5
 529.20703125 -0.162109375 l 5
 394.146484375 -0.162109375 l 5
 230.072265625 443.037109375 l 5
 230.072265625 -0.162109375 l 5
EndSplineSet
Validated: 1
Colour: ffff
EndChar

StartChar: N
Encoding: 78 78 103
Width: 769
Flags: HMW
HStem: -0.162 21.0095G<70.0001 226.071 70.0001 70.0001 537.211 537.211 537.211 699.284> 700.153 20.009G<70.0001 232.073 232.073 232.073 543.213 699.284 699.284 699.284>
VStem: 70.0001 156.07<-0.162 456.043> 543.213 156.07<263.957 720.162 -0.162 720.162>
LayerCount: 4
Back
SplineSet
226.141601562 0 m 1
 70.1416015625 0 l 1
 70.1416015625 720 l 1
 232.141601562 720 l 1
 543.141601562 264 l 1
 543.141601562 720 l 1
 699.141601562 720 l 1
 699.141601562 0 l 1
 537.141601562 0 l 1
 226.141601562 456 l 1
 226.141601562 0 l 1
EndSplineSet
Fore
SplineSet
226.0703125 -0.162109375 m 5
 70 -0.162109375 l 5
 70 720.162109375 l 5
 232.073242188 720.162109375 l 5
 543.212890625 263.95703125 l 5
 543.212890625 720.162109375 l 5
 699.283203125 720.162109375 l 5
 699.283203125 -0.162109375 l 5
 537.209960938 -0.162109375 l 5
 226.0703125 456.04296875 l 5
 226.0703125 -0.162109375 l 5
EndSplineSet
Validated: 1
Colour: ffff
EndChar

StartChar: O
Encoding: 79 79 104
Width: 764
Flags: HMW
HStem: 2.19981 133.578<330.224 434.7 330.224 487.177> 584.219 133.578<330.224 434.7>
VStem: 55.4339 157.432<289.87 430.127 289.87 463.521> 551.581 157.432<289.87 430.127>
LayerCount: 4
Back
SplineSet
39.72265625 360 m 0
 39.72265625 577 162.72265625 735 382.72265625 735 c 0
 601.72265625 735 724.72265625 577 724.72265625 360 c 0
 724.72265625 143 601.72265625 -15 382.72265625 -15 c 0
 162.72265625 -15 39.72265625 143 39.72265625 360 c 0
204.72265625 360 m 0
 204.72265625 213 272.72265625 125 382.72265625 125 c 0
 491.72265625 125 559.72265625 213 559.72265625 360 c 0
 559.72265625 507 491.72265625 595 382.72265625 595 c 0
 272.72265625 595 204.72265625 507 204.72265625 360 c 0
EndSplineSet
Fore
SplineSet
382.690429688 742.415039062 m 5
 640.75 633.955078125 l 5
 731.4453125 360 l 5
 640.75 86.044921875 l 5
 382.690429688 -22.4150390625 l 5
 123.6953125 86.044921875 l 5
 33 360 l 5
 123.6953125 633.955078125 l 5
 382.690429688 742.415039062 l 5
382.690429688 120.639648438 m 5
 514.525390625 184.219726562 l 5
 563.145507812 360 l 5
 514.525390625 535.780273438 l 5
 382.690429688 599.360351562 l 5
 249.919921875 535.780273438 l 5
 201.299804688 360 l 5
 249.919921875 184.219726562 l 5
 382.690429688 120.639648438 l 5
EndSplineSet
Validated: 1
Colour: ffff
EndChar

StartChar: P
Encoding: 80 80 105
Width: 672
Flags: HMW
HStem: 16.5136 20.0367G<83.227 235.887 83.227 83.227> 235.963 133.578<235.887 340.842 340.842 353.246 235.887 340.842> 569.908 133.578<235.887 235.887 235.887 338.933>
VStem: 83.227 152.66<16.5136 235.963 369.541 569.908> 463.924 155.523<448.257 498.348>
LayerCount: 4
Back
SplineSet
230.110351562 0 m 1
 70.1103515625 0 l 1
 70.1103515625 720 l 1
 345.110351562 720 l 2
 490.110351562 720 632.110351562 654 632.110351562 479 c 0
 632.110351562 334 532.110351562 230 353.110351562 230 c 2
 230.110351562 230 l 1
 230.110351562 0 l 1
230.110351562 580 m 1
 230.110351562 370 l 1
 340.110351562 370 l 2
 443.110351562 370 469.110351562 429 469.110351562 476 c 0
 469.110351562 534 433.110351562 580 338.110351562 580 c 2
 230.110351562 580 l 1
EndSplineSet
Fore
SplineSet
70 0.025390625 m 5
 70 719.974609375 l 5
 355.17578125 719.974609375 l 5
 553.395507812 664.809570312 l 5
 642.220703125 478.745117188 l 5
 570.225585938 300.16015625 l 5
 362.655273438 230.03515625 l 5
 229.885742188 230.03515625 l 5
 229.885742188 0.025390625 l 5
 70 0.025390625 l 5
229.885742188 370.28515625 m 5
 350.5 370.28515625 l 5
 453.350585938 405.815429688 l 5
 479.530273438 475.940429688 l 5
 449.610351562 549.8046875 l 5
 348.629882812 579.724609375 l 5
 229.885742188 579.724609375 l 5
 229.885742188 370.28515625 l 5
EndSplineSet
Validated: 1
Colour: ffff
EndChar

StartChar: Q
Encoding: 81 81 106
Width: 764
Flags: HMW
HStem: -40.6015 20.0367G<596.387 596.387> 1.38015 133.578<332.094 393.157 332.094 412.24> 583.399 133.578<332.094 436.57>
VStem: 57.3039 157.432<289.05 429.307 289.05 462.702> 553.451 157.432<332.94 429.307>
LayerCount: 4
Back
SplineSet
39.72265625 360 m 0
 39.72265625 577 162.72265625 735 382.72265625 735 c 0
 601.72265625 735 724.72265625 577 724.72265625 360 c 0
 724.72265625 255 695.72265625 164 641.72265625 98 c 1
 702.72265625 30 l 1
 604.72265625 -59 l 1
 536.72265625 17 l 1
 492.72265625 -3 440.72265625 -15 382.72265625 -15 c 0
 162.72265625 -15 39.72265625 143 39.72265625 360 c 0
363.72265625 212 m 1
 461.72265625 301 l 1
 531.72265625 221 l 1
 549.72265625 258 559.72265625 305 559.72265625 360 c 0
 559.72265625 507 491.72265625 595 382.72265625 595 c 0
 272.72265625 595 204.72265625 507 204.72265625 360 c 0
 204.72265625 213 272.72265625 125 382.72265625 125 c 0
 400.72265625 125 417.72265625 127 433.72265625 132 c 1
 363.72265625 212 l 1
EndSplineSet
Fore
SplineSet
363.990234375 212.03515625 m 1
 463.100585938 300.860351562 l 1
 526.6796875 228.865234375 l 1
 563.145507812 359.764648438 l 1
 514.525390625 536.48046875 l 1
 382.690429688 599.125 l 1
 249.919921875 535.544921875 l 1
 201.299804688 359.764648438 l 1
 249.919921875 183.985351562 l 1
 382.690429688 120.405273438 l 1
 426.634765625 140.974609375 l 1
 363.990234375 212.03515625 l 1
382.690429688 743.115234375 m 1
 640.75 634.655273438 l 1
 731.4453125 359.764648438 l 1
 644.490234375 97.0302734375 l 1
 704.330078125 29.7099609375 l 1
 605.219726562 -59.115234375 l 1
 521.0703125 35.3203125 l 1
 382.690429688 -22.650390625 l 1
 123.6953125 85.8095703125 l 1
 33 359.764648438 l 1
 123.6953125 634.655273438 l 1
 382.690429688 743.115234375 l 1
EndSplineSet
Validated: 1
Colour: ffff
EndChar

StartChar: R
Encoding: 82 82 107
Width: 679
Flags: HMW
HStem: 16.2984 20.0367G<83.1503 83.1503 83.1503 235.811 489.609 489.609 489.609 669.94> 254.83 128.807<235.811 276.838 235.811 302.6> 564.922 138.349<235.811 235.811 235.811 300.691>
VStem: 83.1503 152.66<16.2984 254.83 16.2984 383.638 383.638 564.922> 459.077 155.523<443.748 515.307>
LayerCount: 4
Back
SplineSet
69.849609375 0 m 1
 69.849609375 720 l 1
 352.849609375 720 l 2
 508.849609375 720 626.849609375 660 626.849609375 503 c 0
 626.849609375 393 554.849609375 323 449.849609375 309 c 1
 522.849609375 299 580.849609375 232 609.849609375 167 c 2
 684.849609375 0 l 1
 495.849609375 0 l 1
 443.849609375 121 l 2
 398.849609375 225 353.849609375 250 272.849609375 250 c 2
 229.849609375 250 l 1
 229.849609375 0 l 1
 69.849609375 0 l 1
229.849609375 575 m 1
 229.849609375 385 l 1
 299.849609375 385 l 2
 402.849609375 385 463.849609375 412 463.849609375 481 c 0
 463.849609375 565 392.849609375 575 297.849609375 575 c 2
 229.849609375 575 l 1
EndSplineSet
Fore
SplineSet
229.884765625 369.9921875 m 5
 349.564453125 369.9921875 l 5
 453.349609375 405.522460938 l 5
 478.594726562 475.647460938 l 5
 448.674804688 549.512695312 l 5
 347.694335938 580.3671875 l 5
 229.884765625 580.3671875 l 5
 229.884765625 369.9921875 l 5
70 -0.267578125 m 5
 70 719.682617188 l 5
 355.174804688 719.682617188 l 5
 552.459960938 665.452148438 l 5
 642.219726562 479.387695312 l 5
 569.290039062 299.8671875 l 5
 507.580078125 279.297851562 l 5
 649.69921875 80.142578125 l 5
 515.994140625 -8.6826171875 l 5
 361.719726562 229.7421875 l 5
 229.884765625 229.7421875 l 5
 229.884765625 -0.267578125 l 5
 70 -0.267578125 l 5
EndSplineSet
Validated: 1
Colour: ffff
EndChar

StartChar: S
Encoding: 83 83 108
Width: 618
Flags: HMW
HStem: 2.20392 133.578<266.569 336.698 266.569 375.339> 2.20392 237.578 503.122 214.679 584.223 133.578<262.752 330.496>
VStem: 47.5964 146.936<509.324 540.333 509.324 579.93> 417.799 156.477<183.966 230.718>
LayerCount: 4
Back
SplineSet
14.9345703125 230 m 1
 168.934570312 238 l 1
 176.934570312 153 222.934570312 125 305.934570312 125 c 0
 369.934570312 125 422.934570312 147 422.934570312 204 c 0
 422.934570312 245 402.934570312 264 345.934570312 283 c 0
 307.934570312 296 227.934570312 317 184.934570312 330 c 0
 58.9345703125 368 34.9345703125 448 34.9345703125 516 c 0
 34.9345703125 665 157.934570312 735 288.934570312 735 c 0
 458.934570312 735 552.934570312 664 562.934570312 514 c 1
 406.934570312 507 l 1
 397.934570312 559 369.934570312 595 292.934570312 595 c 0
 227.934570312 595 188.934570312 568 188.934570312 530 c 0
 188.934570312 503 199.934570312 487 233.934570312 474 c 0
 266.934570312 461 338.934570312 441 407.934570312 422 c 0
 512.934570312 392 586.934570312 329 586.934570312 209 c 0
 586.934570312 57 446.934570312 -15 309.934570312 -15 c 0
 118.934570312 -15 25.9345703125 77 14.9345703125 230 c 1
EndSplineSet
Fore
SplineSet
166.009765625 235.64453125 m 5x0c
 207.149414062 144.950195312 l 5
 306.259765625 120.639648438 l 5
 390.409179688 138.405273438 l 5
 425.004882812 201.049804688 l 5
 408.174804688 249.669921875 l 5
 346.46484375 281.459960938 l 5
 181.904296875 329.14453125 l 5
 57.5498046875 412.360351562 l 5
 29.5 518.950195312 l 5
 108.974609375 688.184570312 l 5
 288.494140625 742.415039062 l 5
 489.51953125 687.25 l 5
 540.944335938 574.115234375 l 5
 409.109375 509.599609375 l 5
 376.384765625 575.049804688 l 5
 292.234375 599.360351562 l 5
 214.629882812 581.594726562 l 5
 186.579101562 532.974609375 l 5
 195.9296875 499.315429688 l 5
 232.39453125 475.940429688 l 5
 307.194335938 451.629882812 l 5
 410.044921875 423.580078125 l 5
 540.944335938 348.780273438 l 5
 592.369140625 205.724609375 l 5
 503.544921875 33.6845703125 l 5
 310 -22.4150390625 l 5
 95.884765625 32.75 l 5
 32.3046875 173 l 5
 166.009765625 235.64453125 l 5x0c
EndSplineSet
Colour: ffff
EndChar

StartChar: T
Encoding: 84 84 109
Width: 664
Flags: HMW
HStem: -0.162 21.0095G<252.1 412.172 252.1 252.1> 575.097 145.065<29.9998 252.1 29.9998 634.272 412.172 412.172 412.172 634.272>
VStem: 252.1 160.072<-0.162 575.097>
LayerCount: 4
Back
SplineSet
412.135742188 0 m 1
 252.135742188 0 l 1
 252.135742188 575 l 1
 30.1357421875 575 l 1
 30.1357421875 720 l 1
 634.135742188 720 l 1
 634.135742188 575 l 1
 412.135742188 575 l 1
 412.135742188 0 l 1
EndSplineSet
Fore
SplineSet
412.170898438 -0.162109375 m 5
 252.100585938 -0.162109375 l 5
 252.100585938 575.096679688 l 5
 30 575.096679688 l 5
 30 720.162109375 l 5
 634.271484375 720.162109375 l 5
 634.271484375 575.096679688 l 5
 412.170898438 575.096679688 l 5
 412.170898438 -0.162109375 l 5
EndSplineSet
Validated: 1
Colour: ffff
EndChar

StartChar: U
Encoding: 85 85 110
Width: 752
Flags: HMW
HStem: 46.4756 120.948<337.841 415.415 337.841 458.79> 642.874 16.6825G<120.553 254.012 254.012 254.012 498.41 631.87 631.87 631.87>
VStem: 120.553 133.46<310.893 323.405 323.405 659.556> 498.41 133.46<323.405 659.556>
LayerCount: 4
Back
SplineSet
522.712890625 317 m 2
 522.712890625 720 l 1
 682.712890625 720 l 1
 682.712890625 302 l 2
 682.712890625 107 573.712890625 -15 376.712890625 -15 c 0
 181.712890625 -15 69.712890625 107 69.712890625 302 c 2
 69.712890625 720 l 1
 229.712890625 720 l 1
 229.712890625 317 l 2
 229.712890625 179 283.712890625 130 376.712890625 130 c 0
 469.712890625 130 522.712890625 179 522.712890625 317 c 2
EndSplineSet
Fore
SplineSet
522.540039062 719.682617188 m 5
 682.42578125 719.682617188 l 5
 682.42578125 295.900390625 l 5
 603.885742188 64.0205078125 l 5
 376.680664062 -22 l 5
 150.41015625 64.0205078125 l 5
 70 288.419921875 l 5
 70 719.682617188 l 5
 229.885742188 719.682617188 l 5
 229.885742188 303.379882812 l 5
 268.220703125 165 l 5
 376.680664062 123.860351562 l 5
 484.205078125 165 l 5
 522.540039062 303.379882812 l 5
 522.540039062 719.682617188 l 5
EndSplineSet
Validated: 1
Colour: ffff
EndChar

StartChar: V
Encoding: 86 86 111
Width: 704
Flags: HMW
HStem: -0.163774 21.0095G<278.118 420.182 278.118 278.118> 700.151 20.009G<-2.00793 163.066 163.066 163.066 545.238 708.311 708.311 708.311>
LayerCount: 4
Back
SplineSet
420.151367188 0 m 1
 278.151367188 0 l 1
 -1.8486328125 720 l 1
 163.151367188 720 l 1
 351.151367188 199 l 1
 545.151367188 720 l 1
 708.151367188 720 l 1
 420.151367188 0 l 1
EndSplineSet
Fore
SplineSet
420.181640625 -0.1630859375 m 1
 278.118164062 -0.1630859375 l 1
 15 675.077148438 l 1
 160.064453125 728.100585938 l 1
 352.151367188 201.615234375 l 1
 548.239257812 728.100585938 l 1
 689.302734375 672.138671875 l 1
 420.181640625 -0.1630859375 l 1
EndSplineSet
Validated: 1
Colour: ffff
EndChar

StartChar: W
Encoding: 87 87 112
Width: 1019
Flags: HMW
HStem: -0.163774 21.0095G<182.076 372.161 182.076 182.076 646.284 646.284 646.284 836.37> 700.151 20.009G<8.99746 176.073 176.073 176.073 417.181 601.264 601.264 601.264 843.373 1009.44 1009.44 1009.44>
LayerCount: 4
Back
SplineSet
372.22265625 0 m 1
 182.22265625 0 l 1
 9.22265625 720 l 1
 176.22265625 720 l 1
 289.22265625 175 l 1
 417.22265625 720 l 1
 601.22265625 720 l 1
 734.22265625 175 l 1
 843.22265625 720 l 1
 1009.22265625 720 l 1
 836.22265625 0 l 1
 646.22265625 0 l 1
 509.22265625 528 l 1
 372.22265625 0 l 1
EndSplineSet
Fore
SplineSet
372.161132812 -0.1630859375 m 1
 182.075195312 -0.1630859375 l 1
 15 695.836914062 l 1
 174.071289062 728.100585938 l 1
 289.124023438 174.915039062 l 1
 417.181640625 720.16015625 l 1
 601.263671875 720.16015625 l 1
 734.323242188 174.915039062 l 1
 845.374023438 728.100585938 l 1
 1004.4453125 696.836914062 l 1
 836.370117188 -0.1630859375 l 1
 646.284179688 -0.1630859375 l 1
 509.22265625 528.07421875 l 1
 372.161132812 -0.1630859375 l 1
EndSplineSet
Validated: 1
Colour: ffff
EndChar

StartChar: X
Encoding: 88 88 113
Width: 629
Flags: HMW
HStem: -25.1949 22.47G<-57.1922 139.688 -57.1922 -57.1922 482.088 482.088 482.088 683.248> 723.805 21.4G<-37.9322 173.928 173.928 173.928 482.088 677.898 677.898 677.898>
LayerCount: 4
Back
SplineSet
151.1328125 0 m 1
 -32.8671875 0 l 1
 226.1328125 373 l 1
 -14.8671875 720 l 1
 183.1328125 720 l 1
 324.1328125 492 l 1
 471.1328125 720 l 1
 654.1328125 720 l 1
 413.1328125 368 l 1
 659.1328125 0 l 1
 471.1328125 0 l 1
 316.1328125 250 l 1
 151.1328125 0 l 1
EndSplineSet
Fore
SplineSet
146.056640625 -8.2490234375 m 5
 20 75.2890625 l 5
 226.092773438 373.005859375 l 5
 45.01171875 633.810546875 l 5
 178.071289062 728.103515625 l 5
 324.13671875 492.059570312 l 5
 476.205078125 728.103515625 l 5
 605.263671875 647.817382812 l 5
 413.176757812 368.00390625 l 5
 609.265625 74.2890625 l 5
 476.205078125 -8.2490234375 l 5
 316.133789062 249.950195312 l 5
 146.056640625 -8.2490234375 l 5
EndSplineSet
Validated: 1
Colour: ffff
EndChar

StartChar: Y
Encoding: 89 89 114
Width: 621
Flags: HMW
HStem: -25.4778 22.47G<223.431 395.701 223.431 223.431> 723.522 21.4G<-56.9093 130.341 130.341 130.341 494.141 676.041 676.041 676.041>
VStem: 223.431 172.27<-25.4778 288.032>
LayerCount: 4
Back
SplineSet
390.135742188 0 m 1
 229.135742188 0 l 1
 229.135742188 293 l 1
 -32.8642578125 720 l 1
 142.135742188 720 l 1
 314.135742188 443 l 1
 482.135742188 720 l 1
 652.135742188 720 l 1
 390.135742188 293 l 1
 390.135742188 0 l 1
EndSplineSet
Fore
SplineSet
390.171875 -0.1630859375 m 5
 229.098632812 -0.1630859375 l 5
 229.098632812 292.967773438 l 5
 10 648.81640625 l 5
 137.057617188 728.100585938 l 5
 314.137695312 443.03515625 l 5
 487.215820312 728.100585938 l 5
 611.271484375 652.817382812 l 5
 390.171875 292.967773438 l 5
 390.171875 -0.1630859375 l 5
EndSplineSet
Validated: 1
Colour: ffff
EndChar

StartChar: Z
Encoding: 90 90 115
Width: 662
Flags: HMW
HStem: -25.2 155.15<216.636 631.796 30.456 30.456> 590.05 155.15<51.856 429.566 51.856 621.096 51.856 621.096>
LayerCount: 4
Back
SplineSet
612.125976562 0 m 1
 50.1259765625 0 l 1
 50.1259765625 145 l 1
 423.125976562 575 l 1
 70.1259765625 575 l 1
 70.1259765625 720 l 1
 602.125976562 720 l 1
 602.125976562 575 l 1
 224.125976562 145 l 1
 612.125976562 145 l 1
 612.125976562 0 l 1
EndSplineSet
Fore
SplineSet
612.251953125 -0.162109375 m 1
 50 -0.162109375 l 1
 50 144.903320312 l 1
 423.16796875 575.096679688 l 1
 70.0087890625 575.096679688 l 1
 70.0087890625 720.162109375 l 1
 602.248046875 720.162109375 l 1
 602.248046875 575.096679688 l 1
 224.077148438 144.903320312 l 1
 612.251953125 144.903320312 l 1
 612.251953125 -0.162109375 l 1
EndSplineSet
Validated: 1
Colour: ffff
EndChar

StartChar: afii10068
Encoding: 1075 1075 116
Width: 1000
Flags: HMW
LayerCount: 4
Back
SplineSet
55 0 m 5
 55 520 l 5
 421 520 l 5
 421 395 l 5
 203 395 l 5
 203 0 l 5
 55 0 l 5
EndSplineSet
Fore
SplineSet
55 0 m 5
 55 520 l 5
 421 520 l 5
 421 395 l 5
 203 395 l 5
 203 0 l 5
 55 0 l 5
EndSplineSet
Colour: ffff00
EndChar

StartChar: zero
Encoding: 48 48 117
Width: 601
VWidth: 958
InSpiro: 1
Flags: HMW
HStem: -15.1688 125.056<290.699 337.721 290.699 392.745> 610.112 125.056<258.685 305.706>
VStem: 35.0847 140.063<338.99 428.531 338.99 463.546> 421.258 140.063<291.469 381.009>
LayerCount: 4
Back
SplineSet
35.203125 360 m 4
 35.203125 567 109.203125 735 298.203125 735 c 4
 487.203125 735 561.203125 567 561.203125 360 c 4
 561.203125 153 487.203125 -15 298.203125 -15 c 4
 109.203125 -15 35.203125 153 35.203125 360 c 4
421.203125 360 m 4
 421.203125 402 417.203125 443 408.203125 478 c 5
 257.203125 122 l 5
 269.203125 114 283.203125 110 298.203125 110 c 4
 377.203125 110 421.203125 223 421.203125 360 c 4
175.203125 360 m 4
 175.203125 318 179.203125 278 187.203125 243 c 5
 338.203125 598 l 5
 326.203125 606 313.203125 610 298.203125 610 c 4
 219.203125 610 175.203125 497 175.203125 360 c 4
35.203125 360 m 0
 35.203125 567 109.203125 735 298.203125 735 c 0
 487.203125 735 561.203125 567 561.203125 360 c 0
 561.203125 153 487.203125 -15 298.203125 -15 c 0
 109.203125 -15 35.203125 153 35.203125 360 c 0
421.203125 360 m 0
 421.203125 402 417.203125 443 408.203125 478 c 1
 257.203125 122 l 1
 269.203125 114 283.203125 110 298.203125 110 c 0
 377.203125 110 421.203125 223 421.203125 360 c 0
175.203125 360 m 0
 175.203125 318 179.203125 278 187.203125 243 c 1
 338.203125 598 l 1
 326.203125 606 313.203125 610 298.203125 610 c 0
 219.203125 610 175.203125 497 175.203125 360 c 0
EndSplineSet
Fore
SplineSet
298.299804688 742.71484375 m 1
 504.797851562 630.510742188 l 1
 566.599609375 360.078125 l 1
 504.734375 89.5869140625 l 1
 298.299804688 -22.548828125 l 1
 91.8642578125 89.5869140625 l 1
 30 360.078125 l 1
 91.83203125 630.510742188 l 1
 298.299804688 742.71484375 l 1
  Spiro
    298.3 742.715 v
    504.798 630.51 v
    566.6 360.078 v
    504.734 89.5863 v
    298.3 -22.5491 v
    91.8641 89.5863 v
    29.9994 360.078 v
    91.832 630.51 v
    0 0 z
  EndSpiro
185.15234375 237.9453125 m 1
 340.22265625 602.109375 l 1
 298.470703125 615.194335938 l 1
 205.524414062 540.0703125 l 1
 172.997070312 359.9921875 l 1
 185.15234375 237.9453125 l 1
  Spiro
    185.152 237.945 v
    340.222 602.109 v
    298.47 615.195 v
    205.525 540.071 v
    172.997 359.993 v
    0 0 z
  EndSpiro
410.252929688 483.055664062 m 1
 255.18359375 117.890625 l 1
 298.129882812 104.7578125 l 1
 391.118164062 179.856445312 l 1
 423.688476562 359.78125 l 1
 410.252929688 483.055664062 l 1
  Spiro
    410.253 483.055 v
    255.183 117.891 v
    298.13 104.758 v
    391.117 179.856 v
    423.688 359.781 v
    0 0 z
  EndSpiro
EndSplineSet
Validated: 1
Colour: ffff
EndChar

StartChar: one
Encoding: 49 49 118
Width: 610
Flags: HMW
HStem: -0.162007 21.0095G<274.066 429.136 274.066 274.066> 700.153 20.009G<325.089 429.136 429.136 429.136>
VStem: 274.066 155.07<-0.162007 465.047 465.047 465.047>
LayerCount: 4
Back
SplineSet
430.068359375 720 m 5
 430.068359375 0 l 5
 275.068359375 0 l 5
 275.068359375 465 l 5
 258.068359375 428 217.068359375 400 139.068359375 400 c 5
 139.068359375 545 l 5
 242.068359375 555 311.068359375 638 326.068359375 720 c 5
 430.068359375 720 l 5
430.068359375 720 m 1
 430.068359375 0 l 1
 275.068359375 0 l 1
 275.068359375 465 l 1
 258.068359375 428 217.068359375 400 139.068359375 400 c 1
 139.068359375 545 l 1
 242.068359375 555 311.068359375 638 326.068359375 720 c 1
 430.068359375 720 l 1
EndSplineSet
Fore
SplineSet
430.021484375 0.837890625 m 1048
430.021484375 -0.162109375 m 1,1,-1
 275.067382812 -0.162109375 l 1,1,-1
 275.067382812 465.03125 l 1,1,-1
 229.875 418.6328125 l 1,2,-1
 186.026367188 410.022460938 l 1,3,4
 125 538.080078125 l 1,5,-1
 265.423828125 605.499023438 l 1,6,-1
 326.0234375 720.150390625 l 1,7,8
 430.021484375 720.150390625 l 1,9,10
 430.021484375 -0.162109375 l 1,1,-1
EndSplineSet
Validated: 1
Colour: ffff
EndChar

StartChar: two
Encoding: 50 50 119
Width: 605
Flags: HMW
HStem: -25.873 155.15<241.902 544.712 241.902 544.712> 610.777 149.8<276.677 325.362>
VStem: 51.4411 149.8<500.567 521.967> 388.492 160.5<498.962 559.952>
LayerCount: 4
Back
SplineSet
245.2265625 145 m 1
 528.2265625 145 l 1
 528.2265625 0 l 1
 63.2265625 0 l 1
 60.2265625 201 140.2265625 269 259.2265625 362 c 0
 345.2265625 429 382.2265625 459 382.2265625 522 c 0
 382.2265625 573 345.2265625 595 301.2265625 595 c 0
 254.2265625 595 209.2265625 570 207.2265625 492 c 1
 67.2265625 512 l 1
 75.2265625 648 158.2265625 735 303.2265625 735 c 0
 435.2265625 735 532.2265625 667 532.2265625 520 c 0
 532.2265625 411 447.2265625 330 360.2265625 268 c 0
 284.2265625 214 247.2265625 184 245.2265625 145 c 1
EndSplineSet
Fore
SplineSet
528.33203125 144.899414062 m 5
 528.33203125 0.046875 l 5
 53 0.046875 l 1
 107.217773438 218.447265625 l 1
 253.872070312 361.751953125 l 1
 349.615234375 444.984375 l 1
 379.516601562 525.084960938 l 1
 355.0390625 581.795898438 l 1
 296.745117188 599.51953125 l 1
 231.6171875 576.79296875 l 1
 200.875976562 494.546875 l 1
 70.126953125 543.078125 l 1
 125.997070312 680.640625 l 1
 298.7890625 742.431640625 l 1
 466.125 689.056640625 l 1
 532.466796875 523.127929688 l 1
 477.959960938 376.5234375 l 1
 356.974609375 265.96875 l 1
 270.079101562 197.59375 l 1
 245.205078125 144.899414062 l 1
 528.33203125 144.899414062 l 5
EndSplineSet
Validated: 1
Colour: ffff
EndChar

StartChar: three
Encoding: 51 51 120
Width: 603
Flags: HMW
HStem: -15.1688 140.063<266.789 316.311 266.789 360.831> 325.985 135.061<228.772 280.795 228.772 280.795> 608.111 127.057<264.788 306.807>
VStem: 48.6913 154.069<188.923 201.929> 352.827 155.07<515.57 560.59> 382.841 152.068<189.423 250.451>
LayerCount: 4
Back
SplineSet
229.456054688 461 m 1xf4
 281.456054688 461 l 2
 333.456054688 461 353.456054688 493 353.456054688 538 c 0
 353.456054688 583 327.456054688 608 287.456054688 608 c 0
 243.456054688 608 211.456054688 576 211.456054688 518 c 1
 67.4560546875 540 l 1
 77.4560546875 658 170.456054688 735 289.456054688 735 c 0
 408.456054688 735 508.456054688 671 508.456054688 550 c 0xf8
 508.456054688 472 469.456054688 419 400.456054688 399 c 1
 488.456054688 378 535.456054688 305 535.456054688 210 c 0
 535.456054688 70 431.456054688 -15 291.456054688 -15 c 0
 155.456054688 -15 54.4560546875 65 49.4560546875 189 c 1
 203.456054688 202 l 1
 206.456054688 155 243.456054688 125 291.456054688 125 c 0
 342.456054688 125 383.456054688 159 383.456054688 220 c 0
 383.456054688 281 352.456054688 326 281.456054688 326 c 2
 229.456054688 326 l 1
 229.456054688 461 l 1xf4
EndSplineSet
Fore
SplineSet
337.083007812 485.15234375 m 1xf0
 353.8828125 541.641601562 l 1
 335.51953125 594.56640625 l 1
 286.594726562 613.098632812 l 1
 230.994140625 589.333007812 l 1
 209.013671875 521.23046875 l 1
 73.2939453125 566.130859375 l 1
 133.603515625 688.3828125 l 1
 288.552734375 742.745117188 l 1
 445.83984375 694.645507812 l 1
 512.0234375 553.979492188 l 1
 483.291992188 454.768554688 l 1
 401.861328125 399.8359375 l 1
 504.333984375 331.73046875 l 1
 539.499023438 206.909179688 l 1
 468.565429688 38.6669921875 l 1
 290.508789062 -22.5185546875 l 1
 116.930664062 34.072265625 l 1
 50 134.8984375 l 1
 200.849609375 198.741210938 l 1
 228.5078125 141.512695312 l 1
 290.678710938 120.137695312 l 1
 357.16015625 145.290039062 l 1
 384.592773438 217.196289062 l 1
 359.700195312 294.642578125 l 1
 278.794921875 325.985351562 l 1
 228.772460938 325.985351562 l 1
 228.772460938 461.045898438 l 1
 275.79296875 461.045898438 l 1
 337.083007812 485.15234375 l 1xf0
EndSplineSet
Validated: 1
Colour: ffff
EndChar

StartChar: four
Encoding: 52 52 121
Width: 596
VWidth: 958
Flags: HMW
HStem: -0.162 21.0095G<319.125 474.195 319.125 319.125> 140.901 140.063<190.067 319.125 40 40 474.195 561.234> 700.153 20.009G<335.133 474.195 474.195 474.195>
VStem: 319.125 155.07<-0.162 140.901 -0.162 140.901 280.964 480.054 480.054 480.054>
LayerCount: 4
Back
SplineSet
474.1171875 0 m 1
 319.1171875 0 l 1
 319.1171875 141 l 1
 40.1171875 141 l 1
 40.1171875 281 l 1
 335.1171875 720 l 1
 474.1171875 720 l 1
 474.1171875 281 l 1
 561.1171875 281 l 1
 561.1171875 141 l 1
 474.1171875 141 l 1
 474.1171875 0 l 1
190.1171875 281 m 1
 319.1171875 281 l 1
 319.1171875 480 l 1
 190.1171875 281 l 1
EndSplineSet
Fore
SplineSet
474.194335938 -0.162109375 m 1
 319.125 -0.162109375 l 1
 319.125 140.901367188 l 1
 40 140.901367188 l 1
 40 280.963867188 l 1
 335.1328125 720.162109375 l 1
 474.194335938 720.162109375 l 1
 474.194335938 280.963867188 l 1
 561.234375 280.963867188 l 1
 561.234375 140.901367188 l 1
 474.194335938 140.901367188 l 1
 474.194335938 -0.162109375 l 1
190.067382812 280.963867188 m 1
 319.125 280.963867188 l 1
 319.125 480.0546875 l 1
 190.067382812 280.963867188 l 1
EndSplineSet
Validated: 1
Colour: ffff
EndChar

StartChar: five
Encoding: 53 53 122
Width: 604
Flags: HMW
HStem: -15.1638 140.063<250.085 312.613 250.085 359.134> 365.007 140.063<281.599 312.113> 575.101 145.065<220.071 493.194 220.071 220.071>
VStem: 382.144 157.071<213.939 282.47>
LayerCount: 4
Back
SplineSet
28.10546875 187 m 1
 175.10546875 215 l 1
 183.10546875 159 223.10546875 125 277.10546875 125 c 0
 348.10546875 125 382.10546875 178 382.10546875 250 c 0
 382.10546875 315 347.10546875 365 277.10546875 365 c 0
 230.10546875 365 203.10546875 344 183.10546875 308 c 1
 40.10546875 328 l 1
 109.10546875 720 l 1
 493.10546875 720 l 1
 493.10546875 575 l 1
 220.10546875 575 l 1
 200.10546875 471 l 1
 217.10546875 488 258.10546875 505 305.10546875 505 c 0
 458.10546875 505 539.10546875 392 539.10546875 250 c 0
 539.10546875 101 444.10546875 -15 274.10546875 -15 c 0
 141.10546875 -15 40.10546875 61 28.10546875 187 c 1
EndSplineSet
Fore
SplineSet
177.72265625 212.2421875 m 1
 212.260742188 145.014648438 l 1
 282.013671875 120.53515625 l 1
 362.7109375 156.721679688 l 1
 389.112304688 247.970703125 l 1
 362.327148438 331.620117188 l 1
 282.013671875 365.44140625 l 1
 223.637695312 350.134765625 l 1
 186.059570312 307.259765625 l 1
 40 327.500976562 l 1
 108.466796875 720.166992188 l 1
 494.1953125 720.166992188 l 1
 493.1953125 575.1015625 l 1
 220.072265625 575.1015625 l 1
 200.0625 471.055664062 l 1
 245.373046875 497.284179688 l 1
 310.51171875 508.098632812 l 1
 488.438476562 432.354492188 l 1
 549.293945312 247.885742188 l 1
 479.124023438 55.70703125 l 1
 278.865234375 -22.4619140625 l 1
 107.009765625 32.326171875 l 1
 47.994140625 145.909179688 l 1
 177.72265625 212.2421875 l 1
EndSplineSet
Validated: 1
Colour: ffff
EndChar

StartChar: six
Encoding: 54 54 123
Width: 614
Flags: HMW
HStem: -15.1688 140.063<282.165 340.691 282.165 393.215> 326.985 135.061<302.174 340.691> 600.108 135.061<286.167 341.692>
VStem: 67.5679 148.067<236.444 255.453 196.426 468.048> 409.723 137.062<196.426 255.453>
LayerCount: 4
Back
SplineSet
532.67578125 567 m 1
 404.67578125 527 l 1
 388.67578125 575 369.67578125 600 323.67578125 600 c 0
 258.67578125 600 218.67578125 521 216.67578125 409 c 1
 243.67578125 442 281.67578125 462 332.67578125 462 c 0
 476.67578125 462 551.67578125 357 551.67578125 232 c 0
 551.67578125 101 470.67578125 -15 325.67578125 -15 c 0
 133.67578125 -15 72.67578125 138 72.67578125 335 c 0
 72.67578125 601 167.67578125 735 328.67578125 735 c 0
 451.67578125 735 516.67578125 657 532.67578125 567 c 1
220.67578125 226 m 0
 220.67578125 167 256.67578125 125 317.67578125 125 c 0
 373.67578125 125 414.67578125 167 414.67578125 226 c 0
 414.67578125 285 373.67578125 327 317.67578125 327 c 0
 261.67578125 327 220.67578125 285 220.67578125 226 c 0
EndSplineSet
Fore
SplineSet
401.565429688 530.4140625 m 1
 371.76953125 586.086914062 l 1
 318.879882812 605.018554688 l 1
 240.225585938 550.444335938 l 1
 209.740234375 410.126953125 l 1
 259.737304688 449.735351562 l 1
 328.236328125 464.1484375 l 1
 495.052734375 394.624023438 l 1
 551.622070312 229.529296875 l 1
 491.799804688 53.3564453125 l 1
 321.091796875 -22.5234375 l 1
 118.548828125 80.677734375 l 1
 95.83203125 184.479492188 l 0
 63 334.500976562 l 1
 131.967773438 640.354492188 l 1
 324.069335938 742.740234375 l 1
 469.09765625 691.356445312 l 1
 524.020507812 585.51953125 l 1
 401.565429688 530.4140625 l 1
312.83984375 120.301757812 m 1
 383.786132812 149.2578125 l 1
 411.858398438 223.318359375 l 1
 383.786132812 297.37890625 l 1
 312.83984375 326.33203125 l 1
 242.010742188 297.37890625 l 1
 213.993164062 223.318359375 l 1
 240.065429688 149.2578125 l 1
 312.83984375 120.301757812 l 1
EndSplineSet
Validated: 1
Colour: ffff
EndChar

StartChar: seven
Encoding: 55 55 124
Width: 586
Flags: HMW
HStem: -0.160186 21.0095G<160.045 316.115 160.045 160.045> 575.099 145.065<60.0004 371.14 60.0004 531.212 60.0004 531.212>
VStem: 160.045 156.07<-0.160186 -0.160186>
LayerCount: 4
Back
SplineSet
371.106445312 575 m 1
 60.1064453125 575 l 1
 60.1064453125 720 l 1
 531.106445312 720 l 1
 531.106445312 575 l 1
 395.106445312 429 329.106445312 224 316.106445312 0 c 1
 160.106445312 0 l 1
 164.106445312 208 245.106445312 446 371.106445312 575 c 1
EndSplineSet
Fore
SplineSet
60 575.098632812 m 1
 60 720.163085938 l 1
 531.212890625 720.163085938 l 1
 531.212890625 572.09765625 l 1
 378.969726562 315.96875 l 1
 316.115234375 -8.24609375 l 1
 163.046875 20.8486328125 l 1
 218.256835938 316.385742188 l 1
 370.139648438 575.098632812 l 1
 60 575.098632812 l 1
EndSplineSet
Validated: 1
Colour: ffff
EndChar

StartChar: eight
Encoding: 56 56 125
Width: 613
Flags: HMW
HStem: -15.1688 140.063<274.455 325.478 274.455 369.998> 325.984 125.056<278.957 320.976 278.957 325.478> 605.11 130.059<278.957 320.976>
VStem: 57.8577 152.068<191.924 250.45> 85.8703 148.067<511.067 550.585 505.565 607.111> 366.997 148.067<511.067 550.585> 392.008 123.055 392.008 152.068<191.924 250.45 137.9 258.954>
LayerCount: 4
Back
SplineSet
63.9697265625 203 m 0xf1
 63.9697265625 298 104.969726562 362 187.969726562 399 c 1
 124.969726562 424 91.9697265625 472 91.9697265625 550 c 0
 91.9697265625 664 186.969726562 735 305.969726562 735 c 0
 424.969726562 735 520.969726562 664 520.969726562 550 c 0xea
 520.969726562 472 487.969726562 424 424.969726562 399 c 1
 507.969726562 362 549.969726562 298 549.969726562 203 c 0
 549.969726562 73 445.969726562 -15 305.969726562 -15 c 0
 165.969726562 -15 63.9697265625 73 63.9697265625 203 c 0xf1
215.969726562 225 m 0
 215.969726562 159 254.969726562 125 305.969726562 125 c 0
 356.969726562 125 397.969726562 159 397.969726562 225 c 0
 397.969726562 293 356.969726562 326 305.969726562 326 c 0
 254.969726562 326 215.969726562 293 215.969726562 225 c 0
239.969726562 528 m 0xec
 239.969726562 483 263.969726562 451 305.969726562 451 c 0
 347.969726562 451 372.969726562 483 372.969726562 528 c 0
 372.969726562 573 347.969726562 605 305.969726562 605 c 0
 263.969726562 605 239.969726562 573 239.969726562 528 c 0xec
EndSplineSet
Fore
SplineSet
185.494140625 399.859375 m 1xe0
 112.419921875 456.706054688 l 1
 87.58203125 554.002929688 l 1
 151.232421875 691.997070312 l 1
 305.864257812 742.768554688 l 1
 461.002929688 691.997070312 l 1
 525.165039062 554.002929688 l 1
 500.3046875 456.647460938 l 1
 427.337890625 399.859375 l 1
 522.793945312 322.088867188 l 1
 554.768554688 199.78515625 l 1
 483.907226562 38.9111328125 l 1
 305.864257812 -22.4951171875 l 1
 128.83984375 39.0126953125 l 1
 59 199.78515625 l 1
 90.505859375 322.088867188 l 1
 185.494140625 399.859375 l 1xe0
305.864257812 120.416992188 m 1
 372.278320312 146.181640625 l 1
 399.775390625 222.41015625 l 1
 372.342773438 299.881835938 l 1
 305.864257812 325.424804688 l 1
 240.404296875 299.915039062 l 1
 213.991210938 222.41015625 l 1
 240.435546875 146.181640625 l 1
 305.864257812 120.416992188 l 1
305.864257812 453.030273438 m 1
 356.137695312 475.077148438 l 1
 374.256835938 531.633789062 l 1
 356.137695312 588.038085938 l 1
 305.864257812 610.05859375 l 1
 256.141601562 588.038085938 l 1
 238.576171875 531.633789062 l 1
 256.141601562 475.077148438 l 1
 305.864257812 453.030273438 l 1
EndSplineSet
Validated: 1
Colour: ffff
EndChar

StartChar: nine
Encoding: 57 57 126
Width: 614
Flags: HMW
HStem: -15.1688 135.061<280.852 336.377 280.852 379.397> 257.954 135.061<271.848 310.366> 595.105 140.063<271.848 330.375>
VStem: 65.7561 137.062<464.547 523.573 464.547 553.587> 396.904 150.067<464.547 498.562 246.949 523.573>
LayerCount: 4
Back
SplineSet
86.865234375 153 m 1
 214.865234375 193 l 1
 230.865234375 145 259.865234375 120 305.865234375 120 c 0
 370.865234375 120 410.865234375 199 402.865234375 311 c 1
 375.865234375 278 337.865234375 258 286.865234375 258 c 0
 142.865234375 258 67.865234375 363 67.865234375 488 c 0
 67.865234375 619 148.865234375 735 293.865234375 735 c 0
 485.865234375 735 548.865234375 612 548.865234375 385 c 0
 548.865234375 109 461.865234375 -15 300.865234375 -15 c 0
 177.865234375 -15 102.865234375 63 86.865234375 153 c 1
398.865234375 494 m 0
 398.865234375 553 362.865234375 595 301.865234375 595 c 0
 245.865234375 595 204.865234375 553 204.865234375 494 c 0
 204.865234375 435 245.865234375 393 301.865234375 393 c 0
 357.865234375 393 398.865234375 435 398.865234375 494 c 0
EndSplineSet
Fore
SplineSet
213.057617188 189.70703125 m 1
 247.944335938 134.177734375 l 1
 305.865234375 115.271484375 l 1
 383.307617188 169.821289062 l 1
 404.796875 309.994140625 l 1
 354.852539062 270.384765625 l 1
 286.470703125 255.97265625 l 1
 119.612304688 325.497070312 l 1
 63 490.590820312 l 1
 122.833007812 666.849609375 l 1
 293.616210938 742.814453125 l 1
 497.19140625 651.047851562 l 1
 553.833984375 385.618164062 l 1
 488.896484375 75.9619140625 l 1
 300.760742188 -22.44921875 l 1
 150.59765625 28.849609375 l 1
 98.7705078125 119.892578125 l 1
 213.057617188 189.70703125 l 1
301.78125 599.90234375 m 1
 230.87890625 570.947265625 l 1
 202.84765625 496.887695312 l 1
 230.87890625 422.758789062 l 1
 301.78125 393.873046875 l 1
 372.728515625 422.758789062 l 1
 400.799804688 496.887695312 l 1
 374.641601562 570.947265625 l 1
 301.78125 599.90234375 l 1
EndSplineSet
Validated: 1
Colour: ffff
EndChar

StartChar: comma
Encoding: 44 44 127
Width: 257
Flags: HMW
HStem: -160.201 21.4296G<106.61 106.61> 0.0109688 153.069<51.5051 130.081 51.5051 205.595 51.5051 205.595>
VStem: 51.5051 154.089<0.0109688 153.08 -43.3585 153.08> 130.081 75.514<-27.5414 0.0109688>
LayerCount: 4
Back
SplineSet
130.049804688 0 m 5xd0
 53.0498046875 0 l 5
 53.0498046875 150 l 5
 204.049804688 150 l 5
 204.049804688 0 l 6
 204.049804688 -85 162.049804688 -133 107.049804688 -157 c 5
 70.0498046875 -94 l 5
 105.049804688 -79 130.049804688 -54 130.049804688 0 c 5xd0
130.049804688 0 m 1xd0
 53.0498046875 0 l 1
 53.0498046875 150 l 1
 204.049804688 150 l 1
 204.049804688 0 l 2
 204.049804688 -85 162.049804688 -133 107.049804688 -157 c 1
 70.0498046875 -94 l 1
 105.049804688 -79 130.049804688 -54 130.049804688 0 c 1xd0
EndSplineSet
Fore
SplineSet
207.099609375 -6.056640625 m 5xe0
 178.096679688 -111.53125 l 5
 116.4765625 -160.793945312 l 4
 113.45703125 -163.228515625 l 5
 66.6181640625 -104.939453125 l 5
 112.662109375 -70.1767578125 l 5
 130.223632812 -6.056640625 l 5
 95.7001953125 -6.056640625 l 5
 50 39.6455078125 l 5
 50 104.303710938 l 5
 95.7060546875 150 l 5
 161.399414062 150 l 5
 207.099609375 104.295898438 l 5
 207.099609375 -6.056640625 l 5xe0
EndSplineSet
Validated: 1
Colour: ffff
EndChar

StartChar: period
Encoding: 46 46 128
Width: 266
Flags: HMW
HStem: -6.86008 163.71<42.766 207.567 42.766 207.567>
VStem: 42.766 164.801<-6.86008 156.85 -6.86008 156.85>
LayerCount: 4
Back
SplineSet
200.588867188 0 m 1
 49.5888671875 0 l 1
 49.5888671875 150 l 1
 200.588867188 150 l 1
 200.588867188 0 l 1
200.588867188 0 m 1
 49.5888671875 0 l 1
 49.5888671875 150 l 1
 200.588867188 150 l 1
 200.588867188 0 l 1
EndSplineSet
Fore
SplineSet
44.076171875 41.5087890625 m 1025,3,-1
158.559570312 -5.494140625 m 1,11,-1
 91.0732421875 -5.494140625 l 1,12,-1
 44.076171875 41.5087890625 l 1,13,-1
 44 108.005859375 l 1,14,-1
 91.0048828125 155 l 1,15,-1
 158.5703125 155 l 1,17,-1
 205.567382812 107.997070312 l 1,18,-1
 205.643554688 41.5087890625 l 1,19,-1
 158.559570312 -5.494140625 l 1,11,-1
EndSplineSet
Validated: 1
Colour: ffff
EndChar

StartChar: hyphen
Encoding: 45 45 129
Width: 370
VWidth: 951
Flags: HMW
HStem: 191.969 136.061<49.9997 320.122 49.9997 320.122>
LayerCount: 4
Back
SplineSet
320.060546875 192 m 1
 50.060546875 192 l 1
 50.060546875 328 l 1
 320.060546875 328 l 1
 320.060546875 192 l 1
EndSplineSet
Fore
SplineSet
320.12109375 191.969726562 m 1
 50 191.969726562 l 1
 50 328.030273438 l 1
 320.12109375 328.030273438 l 1
 320.12109375 191.969726562 l 1
EndSplineSet
Validated: 1
Colour: ffff
EndChar

StartChar: endash
Encoding: 8211 8211 130
Width: 556
Flags: HMW
HStem: 195.625 133.75<12.64 543.36 12.64 543.36>
LayerCount: 4
Back
SplineSet
526 200 m 1
 30 200 l 1
 30 325 l 1
 526 325 l 1
 526 200 l 1
EndSplineSet
Fore
SplineSet
526.112304688 199.971679688 m 1
 29.8876953125 199.971679688 l 1
 29.8876953125 325.028320312 l 1
 526.112304688 325.028320312 l 1
 526.112304688 199.971679688 l 1
EndSplineSet
Validated: 1
EndChar

StartChar: emdash
Encoding: 8212 8212 131
Width: 800
Flags: HMW
HStem: 199.972 125.056<-0.0003125 800.36 -0.0003125 800.36>
LayerCount: 4
Back
SplineSet
800.1796875 200 m 1
 0.1796875 200 l 1
 0.1796875 325 l 1
 800.1796875 325 l 1
 800.1796875 200 l 1
EndSplineSet
Fore
SplineSet
800.359375 199.971679688 m 1
 0 199.971679688 l 1
 0 325.028320312 l 1
 800.359375 325.028320312 l 1
 800.359375 199.971679688 l 1
EndSplineSet
Validated: 1
EndChar

StartChar: exclam
Encoding: 33 33 132
Width: 261
Flags: HMW
HStem: -0.160872 150.067<55.2874 206.355 55.2874 206.355> 700.154 20.009G<51.2856 210.357 210.357 210.357>
VStem: 62.2905 137.062
LayerCount: 4
Back
SplineSet
188.321289062 228 m 1
 72.3212890625 228 l 1
 50.3212890625 720 l 1
 209.321289062 720 l 1
 188.321289062 228 l 1
205.321289062 0 m 1
 54.3212890625 0 l 1
 54.3212890625 150 l 1
 205.321289062 150 l 1
 205.321289062 0 l 1
EndSplineSet
Fore
SplineSet
50.076171875 41.6845703125 m 1025,3,-1
164.559570312 -5.318359375 m 1,11,-1
 97.0732421875 -5.318359375 l 1,12,-1
 50.076171875 41.6845703125 l 1,13,-1
 50 108.181640625 l 1,14,-1
 97.0048828125 155.174804688 l 1,15,-1
 164.5703125 155.174804688 l 1,17,-1
 211.567382812 108.172851562 l 1,18,-1
 211.643554688 41.6845703125 l 1,19,-1
 164.559570312 -5.318359375 l 1,11,-1
189.34765625 227.94140625 m 1,0,-1
 73.294921875 227.94140625 l 1,1,-1
 51.28515625 720.163085938 l 1,2,-1
 210.357421875 720.163085938 l 1,3,-1
 189.34765625 227.94140625 l 1,0,-1
EndSplineSet
Validated: 1
Colour: ffff
EndChar

StartChar: question
Encoding: 63 63 133
Width: 599
VWidth: 959
Flags: HMW
HStem: -0.166512 150.067<235.947 387.015 235.947 387.015> 595.101 140.063<288.971 334.992>
VStem: 224.942 168.076<506.561 527.571> 235.947 151.068<-0.166512 149.901 -0.166512 149.901> 393.018 155.07<506.561 549.08>
LayerCount: 4
Back
SplineSet
360.716796875 208 m 1xd8
 215.716796875 208 l 1
 215.716796875 253 l 2
 215.716796875 334 246.716796875 384 306.716796875 428 c 0
 353.716796875 462 371.716796875 486 371.716796875 527 c 0
 371.716796875 571 339.716796875 595 287.716796875 595 c 0
 247.716796875 595 203.716796875 561 203.716796875 494 c 1
 57.716796875 524 l 1
 69.716796875 656 166.716796875 735 286.716796875 735 c 0
 424.716796875 735 526.716796875 656 526.716796875 533 c 0
 526.716796875 435 469.716796875 396 414.716796875 345 c 0
 379.716796875 312 362.716796875 300 360.716796875 243 c 2xe0
 360.716796875 208 l 1xd8
365.716796875 0 m 1
 214.716796875 0 l 1
 214.716796875 150 l 1
 365.716796875 150 l 1
 365.716796875 0 l 1
EndSplineSet
Fore
SplineSet
209.2421875 41.5087890625 m 1029,3,-1
323.725585938 -5.494140625 m 5,11,-1
 256.239257812 -5.494140625 l 5,12,-1
 209.2421875 41.5087890625 l 5,13,-1
 209.166015625 108.005859375 l 5,14,-1
 256.170898438 155 l 5,15,-1
 323.736328125 155 l 5,17,-1
 370.733398438 107.997070312 l 5,18,-1
 370.809570312 41.5087890625 l 5,19,-1
 323.725585938 -5.494140625 l 5,11,-1
215.560546875 207.891601562 m 5,0,-1
 215.697265625 254.948242188 l 5,1,-1
 237.494140625 351.947265625 l 5,2,-1
 306.635742188 427.921875 l 5,3,-1
 357.959960938 474.950195312 l 5,4,-1
 373.133789062 528.196289062 l 5,5,-1
 350.17578125 579.6328125 l 5,6,-1
 287.47265625 597.440429688 l 5,7,-1
 229.318359375 571.6171875 l 5,8,-1
 201.724609375 494.42578125 l 5,9,-1
 59 536.349609375 l 5,10,-1
 128.280273438 683.149414062 l 5,11,-1
 286.366210938 740.267578125 l 5,12,-1
 461.571289062 684.280273438 l 5,13,-1
 531.188476562 534.059570312 l 5,14,-1
 495.087890625 420.084960938 l 5,15,-1
 376.759765625 299.35546875 l 5,16,-1
 360.762695312 233.939453125 l 5,17,-1
 360.762695312 207.926757812 l 5,18,-1
 215.560546875 207.891601562 l 5,0,-1
EndSplineSet
Validated: 1
Colour: ffff
EndChar

StartChar: .grave
Encoding: 65536 -1 134
Width: 500
Flags: HMW
HStem: -34.25 80.25<4330.24 4405.14 4330.24 4432.43> 474 80.25<4335.6 4405.14>
VStem: 4117.85 96.3<184.03 335.97 184.03 352.02> 4451.69 68.48<242.88 276.585 242.88 334.9 185.1 276.585> 4520.17 96.3<242.88 276.585> 4616.47 25.68<239.67 279.795>
LayerCount: 4
Back
SplineSet
4225 260 m 0
 4225 118 4294 60 4373 60 c 0
 4434 60 4483 95 4502 177 c 1
 4589 158 l 1
 4561 48 4485 -15 4373 -15 c 0
 4229 -15 4135 88 4135 260 c 0
 4135 432 4229 535 4373 535 c 0
 4485 535 4561 471 4589 362 c 1
 4502 342 l 1
 4483 425 4434 460 4373 460 c 0
 4304 460 4225 402 4225 260 c 0
4511 260 m 0
 4511 291 4508 319 4502 342 c 1
 4447 330 l 1
 4447 190 l 1
 4502 177 l 1
 4508 201 4511 228 4511 260 c 0
4625 150 m 1
 4625 370 l 1
 4589 362 l 1
 4596 331 4601 297 4601 260 c 0
 4601 222 4596 188 4589 158 c 1
 4625 150 l 1
EndSplineSet
Fore
SplineSet
4214.15039062 260 m 0xe0
 4214.15039062 108.059570312 4287.98046875 46 4372.50976562 46 c 0
 4437.78027344 46 4490.20996094 83.4501953125 4510.54003906 171.190429688 c 1
 4603.62988281 150.860351562 l 1
 4573.66992188 33.16015625 4492.34960938 -34.25 4372.50976562 -34.25 c 0
 4218.4296875 -34.25 4117.84960938 75.9599609375 4117.84960938 260 c 0
 4117.84960938 444.040039062 4218.4296875 554.25 4372.50976562 554.25 c 0
 4492.34960938 554.25 4573.66992188 485.76953125 4603.62988281 369.139648438 c 1
 4510.54003906 347.740234375 l 1
 4490.20996094 436.549804688 4437.78027344 474 4372.50976562 474 c 0
 4298.6796875 474 4214.15039062 411.940429688 4214.15039062 260 c 0xe0
4520.16992188 260 m 0xf0
 4520.16992188 293.169921875 4516.95996094 323.129882812 4510.54003906 347.740234375 c 1
 4451.69042969 334.900390625 l 1
 4451.69042969 185.099609375 l 1
 4510.54003906 171.190429688 l 1
 4516.95996094 196.870117188 4520.16992188 225.759765625 4520.16992188 260 c 0xf0
4642.15039062 142.299804688 m 1xe4
 4642.15039062 377.700195312 l 1xe4
 4603.62988281 369.139648438 l 1
 4611.12011719 335.969726562 4616.46972656 299.58984375 4616.46972656 260 c 0xe8
 4616.46972656 219.33984375 4611.12011719 182.959960938 4603.62988281 150.860351562 c 1
 4642.15039062 142.299804688 l 1xe4
EndSplineSet
Validated: 5
EndChar

StartChar: afii10065
Encoding: 1072 1072 135
Width: 550
VWidth: 964
Flags: HMW
LayerCount: 4
Back
SplineSet
352 54 m 1xb8
 309 2 265 -15 203 -15 c 0
 109 -15 30 36 30 132 c 0
 30 244 108 286 234 301 c 0
 288 307 320 313 346 325 c 1
 346 337 l 2
 346 371 327 413 264 413 c 0x78
 206 413 183 374 173 336 c 1
 46 378 l 1
 72 498 174 535 271 535 c 0
 404 535 496 475 496 314 c 2
 496 106 l 2
 496 53 508 19 526 0 c 1
 375 0 l 1
 360 13 354 37 352 54 c 1xb8
346 165 m 1
 346 235 l 1
 328 228 304 219 254 209 c 0
 208 200 178 183 180 142 c 0
 181 119 195 97 238 97 c 0xb8
 285 97 329 130 346 165 c 1
EndSplineSet
Fore
SplineSet
346.075195312 326.384765625 m 5x38
 346.075195312 338.540039062 l 5
 328.310546875 389.96484375 l 5
 261.92578125 416.14453125 l 5
 197.41015625 390.900390625 l 5
 169.360351562 337.60546875 l 5
 52.4853515625 398.379882812 l 5
 127.28515625 505.905273438 l 5
 269.405273438 540.5 l 5
 434.900390625 489.075195312 l 5
 495.67578125 324.514648438 l 5
 495.67578125 0.0703125 l 5
 351.685546875 0.0703125 l 5
 351.685546875 54.2998046875 l 5
 283.430664062 -5.5400390625 l 5
 200.215820312 -20.5 l 5
 75.8603515625 17.8349609375 l 5
 23.5 129.099609375 l 5
 79.6005859375 252.51953125 l 5
 346.075195312 326.384765625 l 5x38
195.540039062 186.134765625 m 5
 175.905273438 139.384765625 l 5
 189.930664062 107.594726562 l 5
 235.745117188 93.5703125 l 5
 302.130859375 114.139648438 l 5
 345.140625 162.759765625 l 5
 346.075195312 233.8203125 l 5
 195.540039062 186.134765625 l 5
EndSplineSet
Colour: ffff00
EndChar

StartChar: afii10066
Encoding: 1073 1073 136
Width: 1000
Flags: HM
LayerCount: 4
Back
SplineSet
513 750 m 1
 500 601 l 1
 485 588 453 583 431 581 c 2
 291 571 l 2
 211 565 170 518 161 431 c 1
 201 488 266 504 316 504 c 0
 452 504 548 412 548 247 c 0
 548 77 433 -15 290 -15 c 0
 150 -15 30 74 30 290 c 0
 30 482 70 705 310 720 c 2
 441 728 l 2
 470 730 499 737 513 750 c 1
182 243 m 0
 182 151 228 110 290 110 c 0
 352 110 398 151 398 243 c 0
 398 335 352 375 290 375 c 0
 228 375 182 335 182 243 c 0
EndSplineSet
Fore
SplineSet
500.412109375 601.014648438 m 1
 468.463867188 586.84765625 l 1
 431.389648438 581.01171875 l 1
 291.42578125 571.088867188 l 1
 199.791015625 531.482421875 l 1
 161.298828125 431.041992188 l 1
 235.063476562 488.974609375 l 1
 316.267578125 504.150390625 l 1
 483.208984375 437.470703125 l 1
 548.178710938 247.061523438 l 1
 472.788085938 52.3828125 l 1
 290.17578125 -14.939453125 l 1
 107.65625 56.560546875 l 1
 30.171875 289.994140625 l 1
 80.16796875 571.297851562 l 1
 310.098632812 719.799804688 l 1
 441.059570312 727.970703125 l 1
 482.625 734.807617188 l 1
 513 750 l 1
 500.412109375 601.014648438 l 1
290.341796875 110.099609375 m 1
 367.544921875 142.109375 l 1
 398.294921875 243.142578125 l 1
 367.544921875 343.674804688 l 1
 290.341796875 375.184570312 l 1
 213.06640625 343.674804688 l 1
 182.305664062 243.142578125 l 1
 213.06640625 142.109375 l 1
 290.341796875 110.099609375 l 1
EndSplineSet
EndChar

StartChar: afii10067
Encoding: 1074 1074 137
Width: 1000
Flags: HM
LayerCount: 4
Back
SplineSet
55 0 m 1xf4
 55 520 l 1
 269 520 l 2
 366 520 471 496 471 381 c 0
 471 332 438 285 387 270 c 1
 460 255 494 197 494 145 c 0
 494 37 406 0 300 0 c 2
 55 0 l 1xf4
205 405 m 1
 205 320 l 1xf8
 218 320 l 2
 275 320 319 321 319 366 c 0
 319 406 280 405 236 405 c 2
 205 405 l 1
205 205 m 1
 205 115 l 1xf8
 238 115 l 2
 305 115 342 123 342 159 c 0xf4
 342 197 320 205 232 205 c 2
 205 205 l 1
EndSplineSet
Fore
SplineSet
55 519.83984375 m 1
 268.98828125 519.83984375 l 1
 406.294921875 493.491210938 l 1
 470.888671875 380.79296875 l 1
 448.016601562 312.604492188 l 1
 386.944335938 269.920898438 l 1
 467.7734375 221.251953125 l 1
 493.896484375 144.8828125 l 1
 436.637695312 31.9599609375 l 1
 299.915039062 0 l 1
 55 0 l 1
 55 519.83984375 l 1
205.133789062 319.94140625 m 1
 218.0546875 319.94140625 l 2
 289.953125 326.028320312 l 1
 319.087890625 365.842773438 l 1
 294.048828125 400.36328125 l 1
 236.060546875 404.94921875 l 2
 205.133789062 404.94921875 l 1
 205.133789062 319.94140625 l 1
205.133789062 114.95703125 m 1
 238.14453125 114.95703125 l 1
 315.28515625 123.454101562 l 1
 342.095703125 158.890625 l 1
 320.109375 196.162109375 l 1
 232.225585938 204.984375 l 2
 205.299804688 204.984375 l 1
 205.133789062 114.95703125 l 1
EndSplineSet
EndChar

StartChar: periodcentered
Encoding: 183 183 138
Width: 251
Flags: HMW
HStem: 185.465 153.069<48.4554 202.545 48.4554 202.545>
VStem: 48.4554 154.089<185.465 338.533 185.465 338.533>
LayerCount: 4
Back
SplineSet
201 187 m 1
 50 187 l 1
 50 337 l 1
 201 337 l 1
 201 187 l 1
EndSplineSet
Fore
SplineSet
43.1396484375 228.145507812 m 1029,3,-1
159.913085938 180.203125 m 5,11,-1
 91.0771484375 180.203125 l 5,12,-1
 43.1396484375 228.145507812 l 5,13,-1
 43.0634765625 295.973632812 l 5,14,-1
 91.0068359375 343.908203125 l 5,15,-1
 159.923828125 343.908203125 l 5,17,-1
 207.861328125 295.965820312 l 5,18,-1
 207.9375 228.145507812 l 5,19,-1
 159.913085938 180.203125 l 5,11,-1
EndSplineSet
Validated: 1
Colour: ffff
EndChar

StartChar: afii10071
Encoding: 1105 1105 139
Width: 557
Flags: HMW
LayerCount: 4
Back
SplineSet
248 580 m 1x96c0
 97 580 l 1
 97 720 l 1
 248 720 l 1
 248 580 l 1x96c0
474 580 m 1
 323 580 l 1x4dc0
 323 720 l 1
 474 720 l 1
 474 580 l 1
532 217 m 1xaea0
 175 217 l 1
 179 145 226 110 293 110 c 0
 341 110 372 137 384 170 c 1
 524 141 l 1
 485 38 408 -15 283 -15 c 0
 149 -15 25 68 25 260 c 0
 25 452 150 535 283 535 c 0
 414 535 533 455 533 281 c 0
 533 250 532 219 532 217 c 1xaea0
279 410 m 0
 229 410 183 376 177 319 c 1x4da0
 381 319 l 1
 377 374 337 410 279 410 c 0
EndSplineSet
Fore
SplineSet
318.252929688 616.002929688 m 1029,3,-1
432.736328125 569 m 5,11,-1
 365.25 569 l 5,12,-1
 318.252929688 616.002929688 l 5,13,-1
 318.176757812 682.5 l 5,14,-1
 365.181640625 729.494140625 l 5,15,-1
 432.747070312 729.494140625 l 5,17,-1
 479.744140625 682.491210938 l 5,18,-1
 479.8203125 616.002929688 l 5,19,-1
 432.736328125 569 l 5,11,-1
91.998046875 616.002929688 m 1029,3,-1
206.481445312 569 m 5,11,-1
 138.995117188 569 l 5,12,-1
 91.998046875 616.002929688 l 5,13,-1
 91.921875 682.5 l 5,14,-1
 138.926757812 729.494140625 l 5,15,-1
 206.4921875 729.494140625 l 5,17,-1
 253.489257812 682.491210938 l 5,18,-1
 253.565429688 616.002929688 l 5,19,-1
 206.481445312 569 l 5,11,-1
EndSplineSet
Refer: 68 101 S 1 0 0 1 -0.5 0 3
Colour: ffff00
EndChar

StartChar: afii10023
Encoding: 1025 1025 140
Width: 667
Flags: HMW
LayerCount: 4
Back
SplineSet
290 779 m 1xfa
 140 779 l 1
 140 920 l 1
 290 920 l 1
 290 779 l 1xfa
530 779 m 1
 380 779 l 1
 380 920 l 1
 530 920 l 1
 530 779 l 1
607 0 m 1
 70 0 l 1
 70 720 l 1
 597 720 l 1
 597 575 l 1
 230 575 l 1
 230 440 l 1
 547 440 l 1
 547 295 l 1
 230 295 l 1xf6
 230 145 l 1
 607 145 l 1
 607 0 l 1
EndSplineSet
Fore
SplineSet
374.697265625 816.508789062 m 1029,3,-1
489.180664062 769.505859375 m 5,11,-1
 421.694335938 769.505859375 l 5,12,-1
 374.697265625 816.508789062 l 5,13,-1
 374.62109375 883.005859375 l 5,14,-1
 421.625976562 930 l 5,15,-1
 489.19140625 930 l 5,17,-1
 536.188476562 882.997070312 l 5,18,-1
 536.264648438 816.508789062 l 5,19,-1
 489.180664062 769.505859375 l 5,11,-1
133.942382812 816.508789062 m 1029,3,-1
248.42578125 769.505859375 m 5,11,-1
 180.939453125 769.505859375 l 5,12,-1
 133.942382812 816.508789062 l 5,13,-1
 133.866210938 883.005859375 l 5,14,-1
 180.87109375 930 l 5,15,-1
 248.436523438 930 l 5,17,-1
 295.43359375 882.997070312 l 5,18,-1
 295.509765625 816.508789062 l 5,19,-1
 248.42578125 769.505859375 l 5,11,-1
EndSplineSet
Refer: 94 69 S 1 0 0 1 0 0 3
Colour: ffff00
EndChar

StartChar: underscore
Encoding: 95 95 141
Width: 656
VWidth: 939
Flags: HMW
HStem: -0.028125 125.056<49.9999 606.25 49.9999 606.25>
LayerCount: 4
Back
SplineSet
606.125 0 m 1
 50.125 0 l 1
 50.125 125 l 1
 606.125 125 l 1
 606.125 0 l 1
EndSplineSet
Fore
SplineSet
606.25 -0.0283203125 m 1
 50 -0.0283203125 l 1
 50 125.028320312 l 1
 606.25 125.028320312 l 1
 606.25 -0.0283203125 l 1
EndSplineSet
Validated: 1
Colour: ffff
EndChar

StartChar: colon
Encoding: 58 58 142
Width: 271
Flags: HMW
HStem: 32.7756 163.71<53.6882 218.49 53.6882 218.49> 327.454 163.71<53.6882 218.49 53.6882 218.49>
VStem: 53.6882 164.801<32.7756 196.486 32.7756 196.486 327.454 491.164>
LayerCount: 4
Back
SplineSet
211.588867188 322 m 1
 60.5888671875 322 l 1
 60.5888671875 472 l 1
 211.588867188 472 l 1
 211.588867188 322 l 1
211.588867188 52 m 1
 60.5888671875 52 l 1
 60.5888671875 202 l 1
 211.588867188 202 l 1
 211.588867188 52 l 1
EndSplineSet
Fore
SplineSet
55.076171875 363.508789062 m 1025,3,-1
169.559570312 316.505859375 m 1,11,-1
 102.073242188 316.505859375 l 1,12,-1
 55.076171875 363.508789062 l 1,13,-1
 55 430.005859375 l 1,14,-1
 102.004882812 477 l 1,15,-1
 169.5703125 477 l 1,17,-1
 216.567382812 429.997070312 l 1,18,-1
 216.643554688 363.508789062 l 1,19,-1
 169.559570312 316.505859375 l 1,11,-1
55.076171875 94.0087890625 m 1025,3,-1
169.559570312 47.005859375 m 1,11,-1
 102.073242188 47.005859375 l 1,12,-1
 55.076171875 94.0087890625 l 1,13,-1
 55 160.505859375 l 1,14,-1
 102.004882812 207.5 l 1,15,-1
 169.5703125 207.5 l 1,17,-1
 216.567382812 160.497070312 l 1,18,-1
 216.643554688 94.0087890625 l 1,19,-1
 169.559570312 47.005859375 l 1,11,-1
EndSplineSet
Validated: 1
Colour: ffff
EndChar

StartChar: ellipsis
Encoding: 8230 8230 143
Width: 671
Flags: HMW
HStem: -6.86008 163.71<23.9053 188.707 23.9053 188.707 23.9053 253.099 253.099 417.901 482.293 647.095>
VStem: 23.9053 164.801<-6.86008 156.85 -6.86008 156.85> 253.099 164.801<-6.86008 156.85 -6.86008 156.85> 482.293 164.801<-6.86008 156.85 -6.86008 156.85>
CounterMasks: 1 70
LayerCount: 4
Back
SplineSet
201 0 m 1
 50 0 l 1
 50 150 l 1
 201 150 l 1
 201 0 l 1
411 0 m 1
 260 0 l 1
 260 150 l 1
 411 150 l 1
 411 0 l 1
621 0 m 1
 470 0 l 1
 470 150 l 1
 621 150 l 1
 621 0 l 1
EndSplineSet
Fore
SplineSet
464.576171875 43.5576171875 m 1025,3,-1
579.059570312 -3.4453125 m 1,11,-1
 511.573242188 -3.4453125 l 1,12,-1
 464.576171875 43.5576171875 l 1,13,-1
 464.5 110.0546875 l 1,14,-1
 511.504882812 157.048828125 l 1,15,-1
 579.0703125 157.048828125 l 1,17,-1
 626.067382812 110.045898438 l 1,18,-1
 626.143554688 43.5576171875 l 1,19,-1
 579.059570312 -3.4453125 l 1,11,-1
254.5 41.5087890625 m 1025,3,-1
368.983398438 -5.494140625 m 1,11,-1
 301.497070312 -5.494140625 l 1,12,-1
 254.5 41.5087890625 l 1,13,-1
 254.423828125 108.005859375 l 1,14,-1
 301.428710938 155 l 1,15,-1
 368.994140625 155 l 1,17,-1
 415.991210938 107.997070312 l 1,18,-1
 416.067382812 41.5087890625 l 1,19,-1
 368.983398438 -5.494140625 l 1,11,-1
44.4873046875 41.5087890625 m 1025,3,-1
158.970703125 -5.494140625 m 1,11,-1
 91.484375 -5.494140625 l 1,12,-1
 44.4873046875 41.5087890625 l 1,13,-1
 44.4111328125 108.005859375 l 1,14,-1
 91.416015625 155 l 1,15,-1
 158.981445312 155 l 1,17,-1
 205.978515625 107.997070312 l 1,18,-1
 206.0546875 41.5087890625 l 1,19,-1
 158.970703125 -5.494140625 l 1,11,-1
EndSplineSet
Validated: 1
EndChar

StartChar: plus
Encoding: 43 43 144
Width: 596
VWidth: 958
Flags: HMW
HStem: 113.888 21.0095G<230.081 365.142 230.081 230.081> 299.972 125.056<50.0007 230.081 50.0007 230.081 365.142 546.224> 590.103 20.009G<230.081 365.142 365.142 365.142>
VStem: 230.081 135.061<113.888 299.972 113.888 299.972 425.028 610.112>
LayerCount: 4
Back
SplineSet
365.112304688 300 m 1
 365.112304688 114 l 1
 230.112304688 114 l 1
 230.112304688 300 l 1
 50.1123046875 300 l 1
 50.1123046875 425 l 1
 230.112304688 425 l 1
 230.112304688 610 l 1
 365.112304688 610 l 1
 365.112304688 425 l 1
 546.112304688 425 l 1
 546.112304688 300 l 1
 365.112304688 300 l 1
EndSplineSet
Fore
SplineSet
365.142578125 299.97265625 m 1
 365.142578125 113.887695312 l 1
 230.08203125 113.887695312 l 1
 230.08203125 299.97265625 l 1
 50 299.97265625 l 1
 50 425.028320312 l 1
 230.08203125 425.028320312 l 1
 230.08203125 610.112304688 l 1
 365.142578125 610.112304688 l 1
 365.142578125 425.028320312 l 1
 546.224609375 425.028320312 l 1
 546.224609375 299.97265625 l 1
 365.142578125 299.97265625 l 1
EndSplineSet
Validated: 1
Colour: ffff
EndChar

StartChar: equal
Encoding: 61 61 145
Width: 596
VWidth: 958
Flags: HMW
HStem: 184.92 135.061<69.9999 526.206 69.9999 526.206> 405.019 135.061<69.9999 526.206 69.9999 526.206>
LayerCount: 4
Back
SplineSet
526.102539062 185 m 1
 70.1025390625 185 l 1
 70.1025390625 320 l 1
 526.102539062 320 l 1
 526.102539062 185 l 1
526.102539062 405 m 1
 70.1025390625 405 l 1
 70.1025390625 540 l 1
 526.102539062 540 l 1
 526.102539062 405 l 1
EndSplineSet
Fore
SplineSet
526.205078125 184.919921875 m 1
 70 184.919921875 l 1
 70 319.981445312 l 1
 526.205078125 319.981445312 l 1
 526.205078125 184.919921875 l 1
526.205078125 405.018554688 m 1
 70 405.018554688 l 1
 70 540.080078125 l 1
 526.205078125 540.080078125 l 1
 526.205078125 405.018554688 l 1
EndSplineSet
Validated: 1
Colour: ffff
EndChar

StartChar: quotedbl
Encoding: 34 34 146
Width: 459
VWidth: 966
Flags: HMW
HStem: 481.994 238.012<72.001 188.007 72.001 72.001 272.012 272.012 272.012 388.017>
LayerCount: 4
Back
SplineSet
188.008789062 482 m 1
 72.0087890625 482 l 1
 50.0087890625 720 l 1
 209.008789062 720 l 1
 188.008789062 482 l 1
388.008789062 482 m 1
 272.008789062 482 l 1
 250.008789062 720 l 1
 409.008789062 720 l 1
 388.008789062 482 l 1
EndSplineSet
Fore
SplineSet
188.006835938 481.994140625 m 1
 72.0009765625 481.994140625 l 1
 50 720.005859375 l 1
 209.006835938 720.005859375 l 1
 188.006835938 481.994140625 l 1
388.016601562 481.994140625 m 1
 272.010742188 481.994140625 l 1
 250.010742188 720.005859375 l 1
 409.017578125 720.005859375 l 1
 388.016601562 481.994140625 l 1
EndSplineSet
Validated: 1
Colour: ffff
EndChar

StartChar: quotesingle
Encoding: 39 39 147
Width: 257
Flags: HMW
HStem: 476.604 252.681<73.7973 196.953 73.7973 73.7973>
LayerCount: 4
Back
SplineSet
191.014648438 482 m 1
 75.0146484375 482 l 1
 53.0146484375 720 l 1
 212.014648438 720 l 1
 191.014648438 482 l 1
EndSplineSet
Fore
SplineSet
207.099609375 570.021484375 m 1xe0
 178.096679688 464.546875 l 1
 116.4765625 415.284179688 l 0
 113.45703125 412.849609375 l 1
 66.6181640625 471.138671875 l 1
 112.662109375 505.901367188 l 1
 130.223632812 570.021484375 l 1
 95.7001953125 570.021484375 l 1
 50 615.723632812 l 1
 50 680.381835938 l 1
 95.7060546875 726.078125 l 1
 161.399414062 726.078125 l 1
 207.099609375 680.374023438 l 1
 207.099609375 570.021484375 l 1xe0
EndSplineSet
Colour: ffff
EndChar

StartChar: bar
Encoding: 124 124 148
Width: 280
VWidth: 958
Flags: HMW
HStem: -100.207 21.0095G<59.9992 220.071 59.9992 59.9992> 800.198 20.009G<59.9992 220.071 220.071 220.071>
VStem: 59.9992 160.072<-100.207 820.207>
LayerCount: 4
Back
SplineSet
220.03515625 -100 m 1
 60.03515625 -100 l 1
 60.03515625 820 l 1
 220.03515625 820 l 1
 220.03515625 -100 l 1
EndSplineSet
Fore
SplineSet
220.0703125 -100.20703125 m 1
 60 -100.20703125 l 1
 60 820.20703125 l 1
 220.0703125 820.20703125 l 1
 220.0703125 -100.20703125 l 1
EndSplineSet
Validated: 1
Colour: ffff
EndChar

StartChar: brokenbar
Encoding: 166 166 149
Width: 280
Flags: HMW
HStem: -100.207 21.0095G<59.9992 220.071 59.9992 59.9992> 800.198 20.009G<59.9992 220.071 220.071 220.071>
VStem: 59.9992 160.072<-100.207 324.984 410.022 820.207>
LayerCount: 4
Back
SplineSet
220.03515625 -100 m 1
 60.03515625 -100 l 1
 60.03515625 325 l 1
 220.03515625 325 l 1
 220.03515625 -100 l 1
60.03515625 410 m 1
 60.03515625 820 l 1
 220.03515625 820 l 1
 220.03515625 410 l 1
 60.03515625 410 l 1
EndSplineSet
Fore
SplineSet
220.0703125 -100.20703125 m 1
 60 -100.20703125 l 1
 60 324.984375 l 1
 220.0703125 324.984375 l 1
 220.0703125 -100.20703125 l 1
60 410.022460938 m 1
 60 820.20703125 l 1
 220.0703125 820.20703125 l 1
 220.0703125 410.022460938 l 1
 60 410.022460938 l 1
EndSplineSet
Validated: 1
Colour: ffff
EndChar

StartChar: bracketleft
Encoding: 91 91 150
Width: 357
VWidth: 957
Flags: HMW
HStem: -140.216 135.061<215.07 337.125 215.07 337.125> 685.155 135.061<215.07 337.125 215.07 215.07>
VStem: 60.0002 155.07<-5.15525 685.155 -5.15525 820.216 -5.15525 820.216>
LayerCount: 4
Back
SplineSet
337.0625 -140 m 1
 60.0625 -140 l 1
 60.0625 820 l 1
 337.0625 820 l 1
 337.0625 685 l 1
 215.0625 685 l 1
 215.0625 -5 l 1
 337.0625 -5 l 1
 337.0625 -140 l 1
EndSplineSet
Fore
SplineSet
337.125 -140.215820312 m 1
 60 -140.215820312 l 1
 60 820.215820312 l 1
 337.125 820.215820312 l 1
 337.125 685.155273438 l 1
 215.0703125 685.155273438 l 1
 215.0703125 -5.1552734375 l 1
 337.125 -5.1552734375 l 1
 337.125 -140.215820312 l 1
EndSplineSet
Validated: 1
Colour: ffff
EndChar

StartChar: bracketright
Encoding: 93 93 151
Width: 357
VWidth: 957
Flags: HMW
HStem: -140.216 135.061<20.0002 142.055 20.0002 297.125 20.0002 142.055> 685.155 135.061<20.0002 142.055 20.0002 297.125>
VStem: 142.055 155.07<-5.15525 685.155 685.155 685.155>
LayerCount: 4
Back
SplineSet
297.0625 -140 m 1
 20.0625 -140 l 1
 20.0625 -5 l 1
 142.0625 -5 l 1
 142.0625 685 l 1
 20.0625 685 l 1
 20.0625 820 l 1
 297.0625 820 l 1
 297.0625 -140 l 1
EndSplineSet
Fore
SplineSet
297.125 -140.215820312 m 1
 20 -140.215820312 l 1
 20 -5.1552734375 l 1
 142.0546875 -5.1552734375 l 1
 142.0546875 685.155273438 l 1
 20 685.155273438 l 1
 20 820.215820312 l 1
 297.125 820.215820312 l 1
 297.125 -140.215820312 l 1
EndSplineSet
Validated: 1
Colour: ffff
EndChar

StartChar: slash
Encoding: 47 47 152
Width: 381
VWidth: 958
Flags: HMW
HStem: -100.206 21.0095G<-9.00384 145.066 -9.00384 -9.00384> 800.199 20.009G<237.107 392.177 392.177 392.177>
LayerCount: 4
Back
SplineSet
145.0859375 -100 m 1
 -8.9140625 -100 l 1
 237.0859375 820 l 1
 392.0859375 820 l 1
 145.0859375 -100 l 1
EndSplineSet
Fore
SplineSet
144.065429688 -104.208007812 m 1
 0 -66.1904296875 l 1
 237.106445312 820.208007812 l 1
 381.171875 782.190429688 l 1
 144.065429688 -104.208007812 l 1
EndSplineSet
Validated: 1
Colour: ffff
EndChar

StartChar: backslash
Encoding: 92 92 153
Width: 381
VWidth: 958
Flags: HMW
HStem: -100.206 21.0095G<236.357 390.427 236.357 236.357> 800.199 20.009G<-10.7538 144.316 144.316 144.316>
LayerCount: 4
Back
SplineSet
390.3359375 -100 m 1
 236.3359375 -100 l 1
 -10.6640625 820 l 1
 144.3359375 820 l 1
 390.3359375 -100 l 1
EndSplineSet
Fore
SplineSet
144.065429688 820.208007812 m 5
 381.171875 -66.1904296875 l 5
 237.106445312 -104.208007812 l 5
 0 782.190429688 l 5
 144.065429688 820.208007812 l 5
EndSplineSet
Validated: 1
Colour: ffff
EndChar

StartChar: semicolon
Encoding: 59 59 154
Width: 271
Flags: HMW
HStem: -185.515 22.9194G<112.624 112.624> -14.1655 163.71<53.6882 137.726 53.6882 218.49 53.6882 218.49> 337.265 163.71<53.6882 218.49 53.6882 218.49>
VStem: 53.6882 164.801<-14.1655 149.545 -60.55 149.545 337.265 500.975> 137.726 80.7636<-43.6333 -14.1655>
LayerCount: 4
Back
SplineSet
211.588867188 322 m 1xf0
 60.5888671875 322 l 1
 60.5888671875 472 l 1
 211.588867188 472 l 1
 211.588867188 322 l 1xf0
137.588867188 0 m 1
 60.5888671875 0 l 1
 60.5888671875 150 l 1
 211.588867188 150 l 1
 211.588867188 0 l 2
 211.588867188 -85 169.588867188 -133 114.588867188 -157 c 1
 77.5888671875 -94 l 1xe8
 112.588867188 -79 137.588867188 -54 137.588867188 0 c 1
EndSplineSet
Fore
SplineSet
214.638671875 -6.056640625 m 1xe0
 185.635742188 -111.53125 l 1
 124.015625 -160.793945312 l 0
 120.99609375 -163.228515625 l 1
 74.1572265625 -104.939453125 l 1
 120.201171875 -70.1767578125 l 1
 137.762695312 -6.056640625 l 1
 103.239257812 -6.056640625 l 1
 57.5390625 39.6455078125 l 1
 57.5390625 104.303710938 l 1
 103.245117188 150 l 1
 168.938476562 150 l 1
 214.638671875 104.295898438 l 1
 214.638671875 -6.056640625 l 1xe0
55.076171875 363.508789062 m 1025
169.559570312 316.505859375 m 1
 102.073242188 316.505859375 l 1
 55.076171875 363.508789062 l 1
 55 430.005859375 l 1
 102.004882812 477 l 1
 169.5703125 477 l 1
 216.567382812 429.997070312 l 1
 216.643554688 363.508789062 l 1
 169.559570312 316.505859375 l 1
EndSplineSet
Validated: 1
Colour: ffff
EndChar

StartChar: quotesinglbase
Encoding: 8218 8218 155
Width: 253
Flags: HMW
HStem: -167.743 22.47G<103.545 103.545> 0.246641 160.5<45.7648 128.155 45.7648 207.335 45.7648 207.335>
VStem: 45.7648 161.57<0.246641 160.747 -45.2284 160.747> 128.155 79.18<-28.6434 0.246641>
LayerCount: 4
Back
SplineSet
128.049804688 0 m 1xd0
 51.0498046875 0 l 1
 51.0498046875 150 l 1
 202.049804688 150 l 1
 202.049804688 0 l 2
 202.049804688 -85 160.049804688 -133 105.049804688 -157 c 1
 68.0498046875 -94 l 1
 103.049804688 -79 128.049804688 -54 128.049804688 0 c 1xd0
EndSplineSet
Fore
SplineSet
205.099609375 0.14453125 m 1xc0
 176.096679688 -105.331054688 l 1
 104.275390625 -163.245117188 l 1
 65.8349609375 -97.640625 l 1
 110.662109375 -63.9765625 l 1
 128.223632812 0.14453125 l 1
 93.7001953125 0.14453125 l 1
 48 45.845703125 l 1
 48 110.50390625 l 1
 93.7060546875 156.198242188 l 1
 159.399414062 156.198242188 l 1
 205.099609375 110.495117188 l 1
 205.099609375 0.14453125 l 1xc0
EndSplineSet
Validated: 1
EndChar

StartChar: quotedblbase
Encoding: 8222 8222 156
Width: 451
Flags: HMW
HStem: -171.028 22.9194G<92.8949 92.8949 311.175 311.175> 0.321998 163.71<33.9593 117.997 33.9593 198.761 33.9593 198.761 33.9593 252.239 252.239 336.277>
VStem: 33.9593 164.801<0.321998 164.032 -46.0625 164.032> 117.997 80.7636<-29.1458 0.321998> 252.239 164.801<0.321998 164.032 -46.0625 164.032> 336.277 80.7636<-29.1458 0.321998>
LayerCount: 4
Back
SplineSet
127 0 m 1xe8
 50 0 l 1
 50 150 l 1
 201 150 l 1
 201 0 l 2
 201 -85 159 -133 104 -157 c 1
 67 -94 l 1xd4
 102 -79 127 -54 127 0 c 1xe8
327 0 m 1
 250 0 l 1
 250 150 l 1
 401 150 l 1
 401 0 l 2
 401 -85 359 -133 304 -157 c 1
 267 -94 l 1xe8
 302 -79 327 -54 327 0 c 1
EndSplineSet
Fore
SplineSet
203.711914062 0.14453125 m 1xc0
 174.709960938 -105.330078125 l 1
 102.888671875 -163.245117188 l 1
 64.44921875 -97.640625 l 1
 109.275390625 -63.9755859375 l 1
 126.836914062 0.14453125 l 1
 92.3134765625 0.14453125 l 1
 46.61328125 45.845703125 l 1
 46.61328125 110.505859375 l 1
 92.3203125 156.19921875 l 1
 158.013671875 156.19921875 l 1
 203.711914062 110.495117188 l 1
 203.711914062 0.14453125 l 1xc0
404.38671875 0.14453125 m 5
 375.384765625 -105.330078125 l 5
 303.5625 -163.245117188 l 5
 265.123046875 -97.640625 l 5
 309.94921875 -63.9755859375 l 5
 327.509765625 0.14453125 l 5
 292.986328125 0.14453125 l 5
 247.288085938 45.845703125 l 5
 247.288085938 110.505859375 l 5
 292.9921875 156.19921875 l 5
 358.686523438 156.19921875 l 5
 404.38671875 110.495117188 l 5
 404.38671875 0.14453125 l 5
EndSplineSet
Validated: 1
EndChar

StartChar: quotedblright
Encoding: 8221 8221 157
Width: 451
Flags: HMW
HStem: 398.972 22.9194G<92.8949 92.8949 311.175 311.175> 570.322 163.71<33.9593 117.997 33.9593 198.761 33.9593 198.761 33.9593 252.239 252.239 336.277>
VStem: 33.9593 164.801<570.322 734.032 523.937 734.032> 117.997 80.7636<540.854 570.322> 252.239 164.801<570.322 734.032 523.937 734.032> 336.277 80.7636<540.854 570.322>
LayerCount: 4
Back
SplineSet
127 570 m 1xe8
 50 570 l 1
 50 720 l 1
 201 720 l 1
 201 570 l 2
 201 485 159 437 104 413 c 1
 67 476 l 1xd4
 102 491 127 516 127 570 c 1xe8
327 570 m 1
 250 570 l 1
 250 720 l 1
 401 720 l 1
 401 570 l 2
 401 485 359 437 304 413 c 1
 267 476 l 1xe8
 302 491 327 516 327 570 c 1
EndSplineSet
Fore
SplineSet
203.711914062 570.14453125 m 1xc0
 174.709960938 464.669921875 l 1
 102.888671875 406.754882812 l 1
 64.44921875 472.359375 l 1
 109.275390625 506.024414062 l 1
 126.836914062 570.14453125 l 1
 92.3134765625 570.14453125 l 1
 46.61328125 615.845703125 l 1
 46.61328125 680.505859375 l 1
 92.3203125 726.19921875 l 1
 158.013671875 726.19921875 l 1
 203.711914062 680.495117188 l 1
 203.711914062 570.14453125 l 1xc0
404.38671875 570.14453125 m 5
 375.384765625 464.669921875 l 5
 303.5625 406.754882812 l 5
 265.123046875 472.359375 l 5
 309.94921875 506.024414062 l 5
 327.509765625 570.14453125 l 5
 292.986328125 570.14453125 l 5
 247.288085938 615.845703125 l 5
 247.288085938 680.505859375 l 5
 292.9921875 726.19921875 l 5
 358.686523438 726.19921875 l 5
 404.38671875 680.495117188 l 5
 404.38671875 570.14453125 l 5
EndSplineSet
Validated: 1
EndChar

StartChar: quotedblleft
Encoding: 8220 8220 158
Width: 451
Flags: HMW
HStem: 413.972 163.71<114.723 198.761 33.9593 33.9593 333.003 417.041> 727.204 21.828G<139.825 139.825 358.105 358.105>
VStem: 33.9593 80.7636<413.972 607.15 577.682 607.15 577.682 624.066> 33.9593 164.801<413.972 577.682 413.972 624.066> 252.239 80.7636<413.972 607.15 577.682 607.15 577.682 624.066> 252.239 164.801<413.972 577.682 413.972 624.066>
LayerCount: 4
Back
SplineSet
324 578 m 1xd8
 401 578 l 1
 401 428 l 1
 250 428 l 1
 250 578 l 2
 250 663 292 711 347 735 c 1
 384 672 l 1xe8
 349 657 324 632 324 578 c 1xd8
124 578 m 1
 201 578 l 1
 201 428 l 1
 50 428 l 1
 50 578 l 2
 50 663 92 711 147 735 c 1
 184 672 l 1xe4
 149 657 124 632 124 578 c 1
EndSplineSet
Fore
SplineSet
247.788085938 577.809570312 m 1xc0
 276.790039062 683.284179688 l 1
 348.611328125 741.19921875 l 1
 387.05078125 675.594726562 l 1
 342.224609375 641.9296875 l 1
 324.663085938 577.809570312 l 1
 359.186523438 577.809570312 l 1
 404.88671875 532.108398438 l 1
 404.88671875 467.448242188 l 1
 359.1796875 421.754882812 l 1
 293.486328125 421.754882812 l 1
 247.788085938 467.458984375 l 1
 247.788085938 577.809570312 l 1xc0
46.11328125 577.809570312 m 1
 75.115234375 683.284179688 l 1
 146.9375 741.19921875 l 1
 185.376953125 675.594726562 l 1
 140.551757812 641.9296875 l 1
 122.990234375 577.809570312 l 1
 157.513671875 577.809570312 l 1
 203.211914062 532.108398438 l 1
 203.211914062 467.448242188 l 1
 157.5078125 421.754882812 l 1
 91.8134765625 421.754882812 l 1
 46.11328125 467.458984375 l 1
 46.11328125 577.809570312 l 1
EndSplineSet
Validated: 1
EndChar

StartChar: quoteleft
Encoding: 8216 8216 159
Width: 251
Flags: W
HStem: 409.888 313.179
VStem: 48.4922 154.016<454.694 518.075>
LayerCount: 4
Back
SplineSet
-404.4921875 578 m 1xd0
 -327.4921875 578 l 1
 -327.4921875 428 l 1
 -478.4921875 428 l 1
 -478.4921875 578 l 2
 -478.4921875 663 -436.4921875 711 -381.4921875 735 c 1
 -344.4921875 672 l 1xe0
 -379.4921875 657 -404.4921875 632 -404.4921875 578 c 1xd0
EndSplineSet
Fore
SplineSet
48.4921875 562.881835938 m 1
 76.9248046875 666.288085938 l 1
 147.337890625 723.06640625 l 1
 159.8984375 701.626953125 172.461914062 680.186523438 185.0234375 658.749023438 c 1
 141.076171875 625.745117188 l 1
 123.859375 562.881835938 l 1
 157.706054688 562.881835938 l 1
 202.5078125 518.075195312 l 1
 202.5078125 454.684570312 l 1
 157.701171875 409.887695312 l 1
 93.2939453125 409.887695312 l 1
 48.4921875 454.694335938 l 1
 48.4921875 490.756835938 48.4921875 526.819335938 48.4921875 562.881835938 c 1
EndSplineSet
Validated: 1
EndChar

StartChar: quoteright
Encoding: 8217 8217 160
Width: 251
Flags: HMW
HStem: 402.257 22.47G<102.495 102.495> 570.247 160.5<44.715 127.105 44.715 206.285 44.715 206.285>
VStem: 44.715 161.57<570.247 730.747 524.772 730.747> 127.105 79.18<541.357 570.247>
LayerCount: 4
Back
SplineSet
127 570 m 1xd0
 50 570 l 1
 50 720 l 1
 201 720 l 1
 201 570 l 2
 201 485 159 437 104 413 c 1
 67 476 l 1
 102 491 127 516 127 570 c 1xd0
EndSplineSet
Fore
SplineSet
202.5078125 570.072265625 m 1xc0
 174.075195312 466.666015625 l 1
 103.662109375 409.887695312 l 1
 65.9765625 474.205078125 l 1
 109.923828125 507.208984375 l 1
 127.140625 570.072265625 l 1
 93.2939453125 570.072265625 l 1
 48.4921875 614.87890625 l 1
 48.4921875 678.26953125 l 1
 93.298828125 723.06640625 l 1
 157.706054688 723.06640625 l 1
 202.5078125 678.259765625 l 1
 202.5078125 570.072265625 l 1xc0
EndSplineSet
Validated: 1
EndChar

StartChar: numbersign
Encoding: 35 35 161
Width: 719
VWidth: 958
Flags: HMW
HStem: -0.161961 21.0095G<58.8659 207.933 58.8659 58.8659 298.974 448.041 298.974 298.974> 174.917 125.056<48.8614 108.888 8.8434 144.905 293.972 348.996 48.8614 257.955 534.08 601.11> 425.029 125.056<112.89 179.92 72.8722 215.937 366.004 420.028 112.89 329.988 606.112 665.139> 700.153 20.009G<264.959 415.026 415.026 415.026 505.067 655.134 655.134 655.134>
LayerCount: 4
Back
SplineSet
448 0 m 1
 447 0 l 4
 299 0 l 1
 349 175 l 1
 258 175 l 1
 208 0 l 1
 59 0 l 1
 109 175 l 1
 9 175 l 1
 49 300 l 1
 145 300 l 1
 180 425 l 1
 73 425 l 1
 113 550 l 1
 216 550 l 1
 265 720 l 1
 415 720 l 1
 366 550 l 1
 456 550 l 1
 505 720 l 1
 655 720 l 1
 606 550 l 1
 705 550 l 1
 665 425 l 1
 570 425 l 1
 534 300 l 1
 641 300 l 1
 601 175 l 1
 498 175 l 1
 448 0 l 1
330 425 m 1
 294 300 l 1
 385 300 l 1
 420 425 l 1
 335 425 l 0
 330 425 l 1
EndSplineSet
Fore
SplineSet
446.040039062 -8.2490234375 m 1
 307.978515625 31.76953125 l 1
 348.997070312 174.916015625 l 1
 257.956054688 174.916015625 l 1
 205.931640625 -8.2490234375 l 1
 67.869140625 31.76953125 l 1
 108.887695312 174.916015625 l 1
 8.8427734375 174.916015625 l 1
 8.8427734375 299.97265625 l 1
 144.904296875 299.97265625 l 1
 179.920898438 425.029296875 l 1
 72.8720703125 425.029296875 l 1
 72.8720703125 550.084960938 l 1
 215.936523438 550.084960938 l 1
 266.959960938 728.103515625 l 1
 406.021484375 688.147460938 l 1
 366.00390625 550.084960938 l 1
 456.043945312 550.084960938 l 1
 507.067382812 728.103515625 l 1
 646.130859375 687.147460938 l 1
 606.111328125 550.084960938 l 1
 705.157226562 550.084960938 l 1
 705.157226562 425.029296875 l 1
 570.095703125 425.029296875 l 1
 534.079101562 299.97265625 l 1
 641.127929688 299.97265625 l 1
 641.377929688 174.916015625 l 1
 498.063476562 174.916015625 l 1
 446.040039062 -8.2490234375 l 1
329.98828125 425.029296875 m 1
 293.971679688 299.97265625 l 1
 385.012695312 299.97265625 l 1
 420.028320312 425.029296875 l 1
 329.98828125 425.029296875 l 1
EndSplineSet
Validated: 1
Colour: ffff
EndChar

StartChar: guillemotright
Encoding: 187 187 162
Width: 471
Flags: HMW
HStem: 93.924 21.0095G<19.9997 146.057 19.9997 19.9997 210.086 210.086 210.086 336.142> 412.067 20.009G<19.9997 146.057 146.057 146.057 210.086 336.142 336.142 336.142>
LayerCount: 4
Back
SplineSet
146.096679688 432 m 1
 261.096679688 263 l 1
 146.096679688 94 l 1
 20.0966796875 94 l 1
 114.096679688 263 l 1
 20.0966796875 432 l 1
 146.096679688 432 l 1
336.096679688 432 m 1
 451.096679688 263 l 1
 336.096679688 94 l 1
 210.096679688 94 l 1
 304.096679688 263 l 1
 210.096679688 432 l 1
 336.096679688 432 l 1
EndSplineSet
Fore
SplineSet
261.108398438 263 m 1
 111.291015625 42.900390625 l 1
 20 93.923828125 l 1
 114.041992188 263 l 1
 20 432.076171875 l 1
 112.041992188 483.099609375 l 1
 261.108398438 263 l 1
451.193359375 263 m 1
 301.375976562 42.900390625 l 1
 210.084960938 93.923828125 l 1
 304.126953125 263 l 1
 210.084960938 432.076171875 l 1
 302.126953125 483.099609375 l 1
 451.193359375 263 l 1
EndSplineSet
Validated: 1
Colour: ffff
EndChar

StartChar: guillemotleft
Encoding: 171 171 163
Width: 471
Flags: HMW
HStem: 93.924 21.0095G<135.052 261.108 135.052 135.052 325.137 451.194 325.137 325.137> 412.067 20.009G<135.052 261.108 261.108 261.108 325.137 451.194 451.194 451.194>
LayerCount: 4
Back
SplineSet
210.096679688 263 m 1
 325.096679688 432 l 1
 451.096679688 432 l 1
 357.096679688 263 l 1
 451.096679688 94 l 1
 325.096679688 94 l 1
 210.096679688 263 l 1
20.0966796875 263 m 1
 135.096679688 432 l 1
 261.096679688 432 l 1
 167.096679688 263 l 1
 261.096679688 94 l 1
 135.096679688 94 l 1
 20.0966796875 263 l 1
EndSplineSet
Fore
SplineSet
210.084960938 263 m 1
 359.151367188 483.099609375 l 1
 451.193359375 432.076171875 l 1
 357.151367188 263 l 1
 451.193359375 93.923828125 l 1
 359.90234375 42.900390625 l 1
 210.084960938 263 l 1
20 263 m 1
 169.06640625 483.099609375 l 1
 261.108398438 432.076171875 l 1
 167.06640625 263 l 1
 261.108398438 93.923828125 l 1
 169.817382812 42.900390625 l 1
 20 263 l 1
EndSplineSet
Validated: 1
Colour: ffff
EndChar

StartChar: guilsinglleft
Encoding: 8249 8249 164
Width: 341
Flags: HMW
HStem: 93.9237 21.0095G<154.993 321.068 154.993 154.993> 412.067 20.009G<154.993 321.068 321.068 321.068>
LayerCount: 4
Back
SplineSet
20 263 m 1
 155 432 l 1
 321 432 l 1
 187 263 l 1
 321 94 l 1
 155 94 l 1
 20 263 l 1
EndSplineSet
Fore
SplineSet
219.021484375 513.112304688 m 1
 321.068359375 432.076171875 l 1
 187.0078125 263 l 1
 321.068359375 93.923828125 l 1
 219.021484375 13.8876953125 l 1
 19.931640625 263 l 1
 219.021484375 513.112304688 l 1
EndSplineSet
Validated: 1
EndChar

StartChar: guilsinglright
Encoding: 8250 8250 165
Width: 341
Flags: HMW
HStem: 93.9237 21.0095G<19.9323 186.007 19.9323 19.9323> 412.067 20.009G<19.9323 186.007 186.007 186.007>
LayerCount: 4
Back
SplineSet
186 432 m 1
 321 263 l 1
 186 94 l 1
 20 94 l 1
 154 263 l 1
 20 432 l 1
 186 432 l 1
EndSplineSet
Fore
SplineSet
121.978515625 513.112304688 m 1
 321.068359375 263 l 1
 121.978515625 13.8876953125 l 1
 19.931640625 93.923828125 l 1
 153.9921875 263 l 1
 19.931640625 432.076171875 l 1
 121.978515625 513.112304688 l 1
EndSplineSet
Validated: 1
EndChar

StartChar: less
Encoding: 60 60 166
Width: 590
VWidth: 957
Flags: HMW
HStem: 51.8661 21.0095G<493.069 493.069> 627.125 20.009G<493.069 493.069>
LayerCount: 4
Back
SplineSet
113 281 m 1
 113 418 l 1
 493 647 l 1
 493 487 l 1
 242 350 l 1
 493 211 l 1
 493 52 l 1
 113 281 l 1
EndSplineSet
Fore
SplineSet
112.897460938 280.969726562 m 1
 112.897460938 418.030273438 l 1
 493.069335938 647.133789062 l 1
 566.102539062 526.080078125 l 1
 241.956054688 350 l 1
 564.100585938 170.919921875 l 1
 493.069335938 51.8662109375 l 1
 112.897460938 280.969726562 l 1
EndSplineSet
Validated: 1
Colour: ffff
EndChar

StartChar: greater
Encoding: 62 62 167
Width: 596
VWidth: 957
Flags: HMW
HStem: 51.8661 21.0095G<112.93 112.93> 627.125 20.009G<112.93 112.93>
LayerCount: 4
Back
SplineSet
493 418 m 1
 493 281 l 1
 113 52 l 1
 113 211 l 1
 364 350 l 1
 113 487 l 1
 113 647 l 1
 493 418 l 1
EndSplineSet
Fore
SplineSet
493.352539062 280.969726562 m 1
 113.180664062 51.8662109375 l 1
 42.1494140625 170.919921875 l 1
 364.293945312 350 l 1
 40.1474609375 526.080078125 l 1
 113.180664062 647.133789062 l 1
 493.352539062 418.030273438 l 1
 493.352539062 280.969726562 l 1
EndSplineSet
Validated: 1
Colour: ffff
EndChar

StartChar: dollar
Encoding: 36 36 168
Width: 592
VWidth: 958
Flags: HMW
HStem: -109.41 21.4296G<218.165 294.699 218.165 218.165> 809.003 20.4092G<218.165 294.699 294.699 294.699>
VStem: 1.8274 157.151<516.131 548.786 516.131 589.604> 218.165 76.5344<-109.41 -21.6505 -109.41 -20.6301 -109.41 -20.6301 124.275 289.589 461.027 592.666 741.653 829.412> 367.152 167.355<177.339 216.627>
LayerCount: 4
Back
SplineSet
250.654296875 819.88671875 m 5
 275.607421875 819.88671875 300.55859375 819.88671875 325.51171875 819.88671875 c 5
 325.51171875 790.516601562 325.51171875 761.147460938 325.51171875 731.77734375 c 5
 476.38671875 668.158203125 l 5
 536.416015625 513.953125 l 5
 484.5078125 511.537109375 432.51953125 509.200195312 380.447265625 506.948242188 c 5
 363.076171875 556.735351562 l 5
 325.51171875 587.895507812 l 5
 325.51171875 540.240234375 325.51171875 492.584960938 325.51171875 444.9296875 c 5
 492.818359375 371.520507812 l 5
 560.33984375 209.01953125 l 5
 487.19140625 48.40234375 l 5
 325.51171875 -14.05859375 l 5
 325.51171875 -42.7060546875 325.51171875 -71.3525390625 325.51171875 -100 c 5
 300.55859375 -100 275.607421875 -100 250.654296875 -100 c 5
 250.654296875 -71.01953125 250.654296875 -42.0390625 250.654296875 -13.05859375 c 5
 82.544921875 62.03515625 l 5
 18.66015625 230.022460938 l 5
 70.033203125 232.696289062 121.41015625 235.364257812 172.794921875 238.02734375 c 5
 196.708984375 162.833984375 l 5
 250.8203125 128.90625 l 5
 250.8203125 188.232421875 250.8203125 247.557617188 250.8203125 306.883789062 c 5
 77.3046875 391.565429688 l 5
 38.83203125 515.954101562 l 5
 103.1875 672.852539062 l 5
 250.8203125 733.779296875 l 5
 250.763671875 762.481445312 250.708984375 791.18359375 250.654296875 819.88671875 c 5
250.654296875 458.9375 m 5
 250.654296875 503.28515625 250.654296875 547.6328125 250.654296875 591.98046875 c 5
 207.765625 569.125976562 l 5
 192.634765625 529.961914062 l 5
 205.076171875 488.387695312 l 5
 250.654296875 458.9375 l 5
352.521484375 277.875 m 5
 339.77734375 284.795898438 l 5
 325.595703125 290.8828125 l 5
 325.595703125 236.2265625 325.595703125 181.5703125 325.595703125 126.9140625 c 5
 376.08203125 151.14453125 l 5
 396.619140625 203.94140625 l 5
 386.16796875 245.815429688 l 5
 352.521484375 277.875 l 5
EndSplineSet
Fore
SplineSet
250.626953125 819.8359375 m 1
 325.482421875 819.8359375 l 1
 325.482421875 739.213867188 l 1
 480.124023438 674.322265625 l 1
 525 559 l 1
 382.266601562 509.888671875 l 1
 364.547851562 560.670898438 l 1
 325.482421875 592.454101562 l 1
 325.482421875 446.629882812 l 1
 496.884765625 371.751953125 l 1
 565.756835938 206.000976562 l 1
 491.145507812 42.171875 l 1
 325.482421875 -21.5390625 l 1
 325.482421875 -99.94921875 l 1
 250.626953125 -99.94921875 l 1
 250.626953125 -20.5185546875 l 1
 78.40625 56.0771484375 l 1
 27 191 l 1
 170.4609375 235.588867188 l 1
 194.853515625 158.891601562 l 1
 250.796875 124.28515625 l 1
 250.796875 305.822265625 l 1
 73.060546875 392.198242188 l 1
 33.818359375 519.07421875 l 1
 99.4609375 679.110351562 l 1
 250.796875 741.255859375 l 1
 250.626953125 819.8359375 l 1
250.626953125 460.916992188 m 1
 250.626953125 596.62109375 l 1
 206.130859375 573.309570312 l 1
 190.697265625 533.362304688 l 1
 203.387695312 490.95703125 l 1
 250.626953125 460.916992188 l 1
353.782226562 276.233398438 m 1
 325.567382812 289.501953125 l 1
 325.567382812 122.25390625 l 1
 377.813476562 146.96875 l 1
 398.76171875 200.821289062 l 1
 388.1015625 243.533203125 l 1
 353.782226562 276.233398438 l 1
EndSplineSet
Validated: 1
Colour: ffff
EndChar

StartChar: Euro
Encoding: 8364 8364 169
Width: 588
Flags: HMW
HStem: -15.1688 138.062<310.509 362.532 310.509 407.052> 254.952 75.0337<9.87375 84.9075 9.87375 89.9097 9.87375 84.9075 243.979 366.034 243.979 243.979> 395.015 75.0337<9.87375 84.9075 9.87375 89.9097 244.979 366.034> 597.106 138.062<311.009 362.532>
VStem: 84.9075 156.07<329.986 395.015 329.986 395.015>
LayerCount: 4
Back
SplineSet
366 395 m 1
 241 395 l 1
 241 330 l 1
 366 330 l 1
 366 255 l 1
 244 255 l 1
 253 161 283 123 338 123 c 0
 387 123 413 156 427 231 c 1
 579 213 l 1
 563 65 476 -15 338 -15 c 0
 187 -15 106 94 90 255 c 1
 10 255 l 1
 10 330 l 1
 85 330 l 1
 85 395 l 1
 10 395 l 1
 10 470 l 1
 90 470 l 1
 108 628 189 735 338 735 c 0
 476 735 564 654 579 505 c 1
 427 486 l 1
 413 563 387 597 338 597 c 0
 284 597 254 550 245 470 c 1
 366 470 l 1
 366 395 l 1
EndSplineSet
Fore
SplineSet
240.953125 394.926757812 m 1
 240.953125 329.911132812 l 1
 366.217773438 329.911132812 l 1
 366.217773438 254.8515625 l 1
 244.016601562 254.8515625 l 1
 274.310546875 149.61328125 l 1
 339.88671875 118.275390625 l 1
 398.625 144.678710938 l 1
 430.569335938 228.4375 l 1
 570.125976562 174.916015625 l 1
 509.447265625 37.2216796875 l 1
 339.715820312 -22.4248046875 l 1
 161.522460938 53.6787109375 l 1
 86.5576171875 254.8515625 l 1
 9.9814453125 254.8515625 l 1
 9.9814453125 329.911132812 l 1
 84.955078125 329.911132812 l 1
 84.955078125 394.926757812 l 1
 9.9814453125 394.926757812 l 1
 9.9814453125 470.067382812 l 1
 86.5576171875 470.067382812 l 1
 163.0234375 667.811523438 l 1
 339.715820312 742.586914062 l 1
 509.732421875 682.19921875 l 1
 571.125976562 540.081054688 l 1
 430.569335938 488.3203125 l 1
 398.59375 574.452148438 l 1
 339.88671875 601.631835938 l 1
 275.236328125 567.443359375 l 1
 245.037109375 470.067382812 l 1
 366.217773438 470.067382812 l 1
 366.217773438 394.926757812 l 1
 240.953125 394.926757812 l 1
EndSplineSet
Validated: 1
EndChar

